<svg width="181" height="58" viewBox="0 0 181 58" fill="none" xmlns="http://www.w3.org/2000/svg">
<path d="M35.3691 13C35.5773 14.8928 34.8272 16.7579 33.731 18.1289C32.587 19.4785 30.757 20.5108 28.9746 20.3779C28.7413 18.5566 29.6444 16.6199 30.6554 15.4384C31.7981 14.0975 33.7824 13.0702 35.3691 13Z" fill="white"/>
<path d="M41.2041 23.9192C41.0052 24.0379 37.7088 26.0053 37.7449 30.0178C37.7863 34.8632 41.9832 36.4649 42.0346 36.4825C42.0096 36.5954 41.3774 38.7942 39.8032 41.0269C38.4887 42.9924 37.1115 44.914 34.9239 44.9491C33.884 44.9731 33.1817 44.674 32.45 44.3624C31.6867 44.0373 30.8914 43.6986 29.647 43.6986C28.3279 43.6986 27.4972 44.0482 26.696 44.3853C26.0034 44.6769 25.3328 44.9591 24.3877 44.998C22.3043 45.0746 20.7126 42.8996 19.3504 40.9516C16.6273 36.9742 14.5075 29.7431 17.3498 24.8224C18.727 22.4091 21.2381 20.855 23.9224 20.8136C25.1044 20.7895 26.2381 21.245 27.2319 21.6443C27.9919 21.9497 28.6701 22.2222 29.2256 22.2222C29.7135 22.2222 30.3727 21.9606 31.141 21.6557C32.3517 21.1751 33.8335 20.587 35.3429 20.7459C36.3752 20.776 39.3128 21.1535 41.2081 23.9168L41.2041 23.9192Z" fill="white"/>
<path d="M64.32 29.18V31.66H69.02C68.56 33.56 67.04 34.76 65 34.76C62.5 34.76 60.56 32.84 60.56 30.3C60.56 27.78 62.44 25.86 64.84 25.86C66.3 25.86 67.86 26.32 68.84 28.2L71.28 27.34C70.32 24.62 67.66 23.3 64.84 23.3C60.9 23.3 57.8 26.38 57.8 30.3C57.8 34.24 60.92 37.3 64.92 37.3C68.88 37.3 71.72 34.32 71.72 30.34C71.72 30.02 71.7 29.64 71.66 29.18H64.32ZM83.3473 31.82C83.2473 28.78 80.9473 26.72 78.2873 26.72C75.4273 26.72 73.1273 28.88 73.1273 32.02C73.1273 35.16 75.4273 37.3 78.2473 37.3C80.4273 37.3 82.2073 36.3 83.0873 34.22L80.7273 33.72C80.0073 34.94 79.0273 35.04 78.2473 35.04C77.0273 35.04 76.0073 34.16 75.7473 32.72H83.3473V31.82ZM78.2873 29.02C79.3473 29.02 80.3073 29.58 80.6473 30.86H75.8273C76.1473 29.62 77.2873 29.02 78.2873 29.02ZM91.8531 34.36C91.3331 34.64 90.6531 34.84 90.1931 34.84C89.3131 34.84 88.7331 34.32 88.7331 33.12V29.18H91.9931V27.02H88.7331V24H86.0931V27.02H83.9531V29.18H86.0931V33.32C86.0931 36.06 87.6531 37.3 90.0131 37.3C90.8531 37.3 91.5731 37.12 92.6131 36.56L91.8531 34.36ZM103.528 26.78C100.548 26.78 98.0883 28.88 98.0883 32.02C98.0883 35.16 100.548 37.26 103.528 37.26C106.448 37.26 108.908 35.16 108.908 32.02C108.908 28.88 106.448 26.78 103.528 26.78ZM103.528 35C102.088 35 100.648 33.88 100.648 32.02C100.648 30.16 102.088 29.04 103.528 29.04C104.908 29.04 106.348 30.16 106.348 32.02C106.348 33.88 104.908 35 103.528 35ZM116.68 26.72C115.36 26.72 114.32 27.14 113.54 27.92V27.02H110.9V37H113.54V32.58C113.54 30.14 114.52 29.14 116.02 29.14C117.24 29.14 118.04 30.08 118.04 31.48V37H120.68V30.92C120.68 28.44 119.08 26.72 116.68 26.72ZM129.548 22.46C128.608 22.46 127.948 23.2 127.948 24.04C127.948 24.92 128.608 25.58 129.548 25.58C130.468 25.58 131.148 24.92 131.148 24.04C131.148 23.2 130.468 22.46 129.548 22.46ZM130.868 37V27.02H128.228V37H130.868ZM140.27 23.3C136.31 23.3 133.21 26.42 133.21 30.32C133.21 34.22 136.31 37.3 140.27 37.3C144.23 37.3 147.33 34.22 147.33 30.32C147.33 26.42 144.23 23.3 140.27 23.3ZM140.27 34.74C137.85 34.74 135.95 32.88 135.95 30.32C135.95 27.76 137.85 25.86 140.27 25.86C142.69 25.86 144.59 27.76 144.59 30.32C144.59 32.88 142.69 34.74 140.27 34.74ZM154.453 23.3C151.313 23.3 149.353 24.98 149.353 27.38C149.353 30 151.273 30.88 152.873 31.22L155.713 31.76C156.913 32 157.273 32.46 157.273 33.22C157.273 34.18 156.453 34.92 154.893 34.92C153.373 34.92 152.253 34.26 151.893 32.74L149.033 33.32C149.373 36 151.833 37.3 154.633 37.3C157.813 37.3 159.953 35.68 159.953 33.08C159.953 31 158.613 29.7 156.433 29.24L153.553 28.66C152.513 28.46 152.213 27.98 152.213 27.3C152.213 26.4 153.033 25.64 154.393 25.64C155.733 25.64 156.833 26.46 157.033 27.72L159.753 27.16C159.233 24.78 157.173 23.3 154.453 23.3Z" fill="white"/>
<rect x="1" y="1" width="179" height="56" rx="8" stroke="white" stroke-width="2"/>
</svg>
