<svg width="28" height="38" viewBox="0 0 28 38" fill="none" xmlns="http://www.w3.org/2000/svg">
<path d="M10.2483 15.2403C10.8144 15.6673 12.9493 15.9056 13.7338 15.8858C13.9224 15.8759 14.0416 15.7964 14.121 15.6872C14.2005 15.7964 14.3196 15.8759 14.5182 15.8858C15.3027 15.9056 17.4277 15.6673 18.0037 15.2403C18.5697 14.8133 18.093 13.9892 18.1923 13.5622C18.2817 13.1352 19.4435 11.7152 20.4861 11.6655C21.5288 11.6258 23.3956 12.3805 23.9219 14.1083C24.4383 15.8361 24.2993 17.6136 22.9686 18.3484C21.648 19.0832 20.3868 18.6761 20.1585 18.3484C19.9201 18.0108 18.9271 18.0406 18.5399 18.5371C18.1625 19.0336 16.8418 19.9074 16.8418 20.4238C16.8418 20.4536 16.8418 20.4834 16.8418 20.5032C16.5638 20.3741 16.2361 20.3245 16.0772 20.6919C15.7694 21.3771 15.1935 23.3531 15.3524 24.0184C15.5013 24.6837 16.4744 24.4752 16.6929 24.8228C18.1228 27.1364 16.6631 29.0033 15.1935 29.5395C15.1736 29.182 15.0247 26.2825 15.0545 25.7562C15.0743 25.2001 15.1935 20.7912 15.1935 20.7415C15.1935 20.6621 15.2233 20.5827 15.2828 20.5231C16.3454 19.2818 17.0404 18.4676 17.0901 18.4179C17.1397 18.3782 17.3781 18.3186 17.527 18.2789C17.676 18.2491 17.8249 18.2094 17.9341 18.1697C18.0831 18.1101 18.5697 17.7526 19.6818 16.9086C20.1882 16.5312 20.7145 16.134 20.8536 16.0447C21.221 15.8262 22.78 14.9822 22.919 14.9325L22.8594 14.7438L22.8197 14.5651C22.6707 14.6048 20.8833 15.5879 20.655 15.717C20.4961 15.8163 20.0095 16.1837 19.4534 16.6107C18.8477 17.0675 17.9441 17.7526 17.8051 17.8122C17.7157 17.842 17.5667 17.8817 17.4376 17.9115C17.11 18.0009 16.9213 18.0505 16.8319 18.1399C16.7624 18.2193 15.7893 19.3414 14.9949 20.2748C14.8856 20.4039 14.8261 20.5628 14.8161 20.7316C14.8161 20.7813 14.697 25.1902 14.6771 25.7462C14.6473 26.3123 14.8062 29.4601 14.8161 29.5991L15.0545 29.5891C14.7466 29.6785 14.4388 29.7182 14.1608 29.6785C13.9026 29.6487 13.6444 29.5991 13.3961 29.5395H13.416C13.4259 28.1791 13.4458 24.5447 13.5153 24.1575C13.5947 23.7205 13.5451 21.6948 13.5252 20.8408C13.5252 20.6919 13.4756 20.5529 13.3862 20.4337C12.3734 19.0137 11.7279 18.2491 11.4797 18.1697C11.4002 18.1399 11.3208 18.1101 11.2314 18.0902C10.9434 18.0009 10.6257 17.9016 10.1689 17.6533C9.93059 17.5242 9.13619 16.988 8.30207 16.422C6.6537 15.3098 5.64084 14.6247 5.39259 14.5651L5.30322 14.9325C5.52168 14.9921 7.07076 16.0447 8.08362 16.7398C8.96738 17.3356 9.73199 17.8519 9.99017 17.9909C10.4767 18.259 10.8342 18.3583 11.1222 18.4477C11.2016 18.4775 11.2811 18.4974 11.3605 18.5272C11.4995 18.5867 12.0953 19.2818 13.0784 20.6522C13.1181 20.7118 13.1479 20.7813 13.1479 20.8508C13.1777 22.2012 13.1976 23.7603 13.1479 24.0879C13.0585 24.5646 13.0387 28.7153 13.0387 29.4402C11.9166 29.0629 11.0527 28.338 10.9534 27.2357C10.8144 25.786 11.6088 24.8228 11.9662 24.7433C12.3336 24.6639 12.6713 23.7702 12.3932 23.2439C12.1152 22.7275 11.857 21.2182 11.4201 21.0196C11.4002 21.0097 11.3704 20.9997 11.3506 20.9898C11.4002 20.8111 11.4102 20.6224 11.4102 20.4238C11.4102 19.9074 10.0795 19.0336 9.7022 18.5371C9.32486 18.0406 8.33186 18.0108 8.09355 18.3484C7.85523 18.6761 6.60405 19.0832 5.27343 18.3484C3.95275 17.6136 3.8038 15.8361 4.33009 14.1083C4.84644 12.3805 6.72321 11.6258 7.76586 11.6655C8.79857 11.7152 9.96038 13.1352 10.0597 13.5622C10.149 13.9892 9.68234 14.8133 10.2483 15.2403Z" fill="#FEFEFE"/>
<path d="M23.7431 22.0005C25.024 21.6232 24.7261 20.1933 24.5871 19.7266L23.3955 20.938C23.5544 20.9579 23.6636 20.9976 23.6934 21.0373C23.7431 21.1267 23.753 21.504 23.7431 22.0005Z" fill="#00A859"/>
<path d="M24.9242 23.5982C25.4703 22.635 25.6193 21.3342 25.6292 18.9609L25.3015 19.1198C25.371 20.0532 25.2916 20.798 25.0135 21.6718C24.8348 22.2378 24.1794 22.5854 23.7028 22.774C23.6432 23.5883 23.524 24.4522 23.3552 24.8295C23.0275 25.5842 24.3482 24.5912 24.9242 23.5982Z" fill="#00A859"/>
<path d="M27.2881 17.1533C27.2384 16.498 26.8909 15.5844 26.6625 16.3292C26.5334 16.7661 26.3248 17.5803 26.1858 18.6726C26.0965 19.4273 26.0369 20.3111 26.0567 21.3041C26.1064 23.7369 25.6496 24.2036 24.1998 25.4151C22.7401 26.6265 22.3628 26.9542 22.3628 26.9542C22.3628 26.9542 23.2664 23.3894 23.1671 22.5255C23.1175 22.0687 22.9884 21.7013 22.7997 21.5424C22.621 21.3934 22.3926 21.4133 22.1046 21.6913C21.5088 22.2673 21.052 25.9612 20.5257 27.0039C19.9995 28.0465 19.4732 29.1587 19.4732 29.1587C19.4732 29.1587 18.4305 31.4624 19.4732 32.0781C20.5158 32.6838 20.7343 32.7335 22.9189 30.1715C25.1134 27.6195 27.149 26.0109 27.2881 23.7866C27.4271 21.5623 27.3377 17.8187 27.2881 17.1533Z" fill="#00A859"/>
<path d="M4.35927 22.0005C4.34934 21.504 4.35927 21.1267 4.40892 21.0373C4.43871 20.9976 4.54794 20.9579 4.70682 20.938L3.50529 19.7266C3.3762 20.1933 3.0783 21.6232 4.35927 22.0005Z" fill="#FEFEFE"/>
<path d="M4.73669 24.83C4.57781 24.4526 4.45865 23.5887 4.39907 22.7745C3.92243 22.5858 3.25712 22.2382 3.08831 21.6722C2.81028 20.7984 2.72091 20.0536 2.80035 19.1202L2.47266 18.4648C2.48259 20.8381 2.63154 22.6354 3.17768 23.5986C3.74369 24.5916 5.07431 25.5846 4.73669 24.83Z" fill="#FEFEFE"/>
<path d="M8.62988 32.0781C9.67253 31.4624 8.62988 29.1587 8.62988 29.1587C8.62988 29.1587 8.1036 28.0465 7.57731 27.0039C7.05102 25.9612 6.58431 22.2673 5.98851 21.6913C5.71047 21.4133 5.48208 21.3934 5.30334 21.5424C5.10474 21.7013 4.97565 22.0687 4.926 22.5255C4.83664 23.3894 5.74026 26.9542 5.74026 26.9542C5.74026 26.9542 5.35299 26.6265 3.90322 25.4151C2.44351 24.2036 1.99666 23.7369 2.04631 21.3041C2.06617 20.3111 2.00659 19.4273 1.90729 18.6726C1.7782 17.5803 1.56967 16.7661 1.44058 16.3292C1.2122 15.5844 0.864646 16.498 0.814996 17.1533C0.765346 17.8187 0.666047 21.5623 0.814996 23.7866C0.954016 26.0109 2.98966 27.6195 5.18418 30.1715C7.36878 32.7335 7.57731 32.6838 8.62988 32.0781Z" fill="#00A859"/>
<path d="M7.06017 8.62304C7.06017 8.62304 7.21905 8.59325 7.40772 8.38472C7.59639 8.17619 8.99652 5.75328 9.2547 5.22699C9.50294 4.71063 9.80084 4.8 9.80084 4.8L9.87035 5.01846C9.92993 5.76321 9.10575 6.8853 8.69862 7.2825C8.29149 7.66976 8.69862 7.97759 8.69862 7.97759C8.69862 7.97759 8.90715 7.85843 9.44336 7.17327C9.97958 6.47817 10.1683 5.22699 10.1683 5.22699L10.3669 4.97874H10.6846C10.7045 5.00853 10.7243 5.05818 10.7541 5.11776C10.9527 5.55468 10.4364 6.61719 10.1484 7.09383C9.87035 7.56054 10.1484 7.5804 10.1484 7.5804C11.191 6.83565 11.1414 4.86951 11.052 4.68084C10.9527 4.48224 10.5456 4.6014 10.3569 4.52196C10.1683 4.44252 10.3569 4.06519 10.3569 4.06519C10.3569 4.06519 11.1414 3.85666 11.1116 3.96589C11.0818 4.07512 11.2407 4.31344 11.5386 4.45245C11.8365 4.6014 12.3429 4.47231 12.3429 4.47231L12.3926 4.75035L12.5514 4.86951C12.5812 6.83565 13.1969 6.99453 13.8126 7.5804C14.4282 8.16626 15.1829 8.28542 15.1829 8.28542C14.9644 8.86136 15.2127 9.82457 15.2127 9.82457C15.2127 9.82457 15.6099 9.99338 15.9276 9.70541C16.2454 9.42737 16.0964 8.28542 16.0964 8.22584C16.0964 8.16626 15.8482 8.63297 15.8482 8.63297C15.8482 8.63297 15.8482 8.63297 15.6695 8.22584C15.5006 7.81871 15.3219 7.13355 15.3219 7.13355C15.3219 7.13355 15.1332 6.64698 15.5205 7.02432C15.8978 7.40166 15.9276 7.42152 16.0369 7.1832C16.1461 6.94488 15.9376 6.21006 15.9376 6.21006C15.9376 6.21006 15.9276 6.11076 16.0567 6.16041C16.1759 6.21006 16.4639 6.44838 16.4639 6.44838C16.4639 6.44838 16.5234 6.08097 16.6327 6.14055C16.7419 6.21006 16.7618 6.32922 16.8908 6.67677C17.01 7.02432 17.2384 6.85551 17.2384 6.85551C17.2384 6.85551 17.1887 6.61719 17.2483 6.21999C17.3178 5.83272 17.5859 6.13062 17.5859 6.13062C17.6654 6.94488 18.3605 7.66976 18.3605 7.66976C18.6683 7.15341 17.8838 5.57454 17.8838 5.57454C17.8838 5.57454 17.6952 5.4951 17.2682 5.4951C16.8412 5.4951 15.9376 5.65398 15.9376 5.65398C15.9376 5.65398 15.6893 5.62419 15.2822 5.11776C14.8651 4.61133 15.0538 4.37302 15.0538 4.37302C15.0538 4.37302 15.2325 4.36309 15.4013 4.41273C15.5801 4.45245 15.8283 4.95888 16.1759 5.17734C16.5234 5.40573 16.9802 5.06811 17.298 4.72056C17.6157 4.37302 17.6157 3.56869 17.6157 3.56869C17.5959 3.26086 17.576 2.95303 17.5562 2.6452C17.5462 2.4466 17.7051 2.26786 17.9037 2.26786C18.1023 2.26786 18.3307 2.27779 18.5789 2.31751C19.3435 2.4466 19.8897 2.78422 20.1876 3.00268C20.0585 2.80408 19.0456 1.80115 17.9633 1.37416C17.5661 1.22521 17.2483 1.47346 17.0597 1.71178C16.9107 1.88059 16.8611 2.10898 16.9008 2.32744C17.0795 3.20128 17.01 3.88645 16.8412 4.1347C16.6525 4.42266 15.9276 4.3333 15.9276 4.3333C15.451 3.98575 15.2623 2.43667 15.2623 1.83094C15.2623 1.23514 14.9048 0.768436 14.1005 0.798226C13.2863 0.828016 13.0182 1.42381 13.0182 1.42381C13.0182 1.42381 13.3359 1.5529 13.7133 2.05933C14.1005 2.56576 13.8721 4.1347 13.8721 4.1347L13.6835 4.07512C13.6835 4.07512 13.5544 4.3333 13.0182 4.3333C12.4819 4.3333 11.7968 3.75736 11.7968 2.91331C11.7968 2.05933 11.5882 1.43374 11.5386 1.42381C10.625 1.28479 9.88028 2.248 9.31428 2.41681C8.74827 2.59555 8.67876 2.91331 8.67876 2.91331C9.41357 3.08212 9.92993 2.59555 10.4959 2.21821C11.062 1.83094 11.1315 2.06926 11.1315 2.06926C11.2208 2.73457 10.9726 3.13177 10.9726 3.13177C10.5158 3.05233 10.6449 2.73457 10.6449 2.73457C10.6449 2.73457 10.2477 2.79415 9.74126 3.241C9.23484 3.67792 8.49009 3.71764 8.49009 3.71764C8.50995 4.20421 9.04617 4.06519 9.04617 4.06519L8.88729 4.37302C8.56953 4.31344 8.4603 4.55175 8.4603 4.55175C8.58939 4.86951 9.04617 4.75035 9.04617 4.75035L8.99652 4.94895C8.48016 5.25678 7.37793 7.47117 7.06017 8.00738C6.74241 8.5436 7.06017 8.62304 7.06017 8.62304Z" fill="#00A859"/>
<path d="M11.8867 6.57837C12.0257 6.93585 12.2044 6.85641 12.2044 6.85641C12.2044 6.85641 12.3633 6.11166 12.2044 5.63502C12.0455 5.16832 11.9959 5.09881 11.9959 5.09881C11.9959 5.09881 11.6682 4.95979 11.5192 5.25769C11.3802 5.55558 11.0227 6.71739 11.0525 6.96564C11.0823 7.21389 11.0823 7.21389 11.0823 7.21389C11.0823 7.21389 11.5888 7.07487 11.6583 6.14145C11.7278 5.21797 11.8867 5.81376 11.8867 5.81376C11.8867 5.81376 11.7774 6.2904 11.8867 6.57837Z" fill="#00A859"/>
<path d="M18.5594 4.7734C18.8176 4.61452 18.9764 4.88263 18.9764 4.88263C19.0658 4.71382 18.8474 4.45564 18.8474 4.45564C18.8474 4.45564 19.0162 4.26697 19.3041 4.52515C19.5921 4.7734 19.8106 4.75354 19.8106 4.75354C19.6517 4.61452 19.5127 3.93928 19.5127 3.93928C19.6815 3.88963 19.8404 3.83998 20.0092 3.80026C19.6418 3.13496 19.2545 2.90657 18.9665 2.83706C18.5892 2.72783 17.9437 2.75762 17.9437 2.75762C17.9338 2.88671 17.9239 3.08531 17.9338 3.3137C17.9537 3.60166 18.0132 3.7804 18.043 3.94921C18.0828 4.19746 18.1125 4.54501 18.043 4.99186C18.043 4.99186 18.3111 4.93228 18.5594 4.7734Z" fill="#00A859"/>
<path d="M19.6815 8.11783C19.6815 8.11783 19.9695 8.0086 19.5723 7.32343C19.1751 6.64819 19.0063 6.251 18.9169 5.7545C18.8275 5.24807 18.3906 5.43674 18.3906 5.43674C18.3906 5.43674 18.5296 7.37308 19.6815 8.11783Z" fill="#00A859"/>
<path d="M19.5732 5.46484C19.5732 5.46484 19.4739 6.99406 20.4371 7.7686C21.4003 8.54313 21.4798 8.62257 21.4798 8.62257C21.4798 8.62257 21.45 8.22538 20.884 7.29196C20.318 6.36847 20.0002 5.67337 19.5732 5.46484Z" fill="#00A859"/>
<path d="M14.2405 9.74445C14.4291 9.70473 14.4291 8.55285 14.4291 8.55285C14.4291 8.55285 14.0617 8.6025 13.8333 8.32446C13.595 8.03649 13.2872 8.01663 13.2276 8.22516C13.168 8.43369 12.5325 9.58557 13.4361 10.1019C13.4361 10.1019 13.7539 9.88347 14.0319 10.1019C14.0319 10.1019 14.0518 9.77424 14.2405 9.74445Z" fill="#00A859"/>
<path d="M16.8711 9.17228C16.742 9.48011 17.0002 9.78794 17.0002 9.78794H17.2981C17.2981 9.78794 17.2981 9.55955 17.5861 9.59927C17.8641 9.64892 18.1223 9.53969 18.1223 9.53969C18.1223 9.53969 18.0428 9.5099 17.8145 9.25172C17.596 9.00347 17.2584 8.90417 17.2981 8.95382C17.4768 9.19214 17.3477 9.37088 17.3477 9.37088L16.8711 9.17228Z" fill="#00A859"/>
<path d="M15.819 11.9521C15.829 11.9521 15.819 11.9319 15.7988 11.9219C15.7988 11.9521 15.7988 11.9621 15.819 11.9521Z" fill="#00A859"/>
<path d="M15.3225 10.5315C15.3225 10.5315 15.2132 10.4521 15.2033 10.9883C15.1835 11.5245 15.0146 11.7628 15.0146 11.7628C15.0146 11.7628 15.1835 11.8621 15.4416 11.8621C15.6104 11.8621 15.7395 11.8919 15.7991 11.9217C15.7892 11.8522 15.7991 11.6734 15.7197 11.2762C15.6104 10.7202 15.3225 10.5315 15.3225 10.5315Z" fill="#00A859"/>
<path d="M14.2399 11.4448C14.2399 11.4448 14.5676 11.4746 14.6967 11.2363C14.8258 10.998 14.6967 10.5312 14.6967 10.5312C14.6967 10.5312 14.5577 10.6305 14.2399 10.7199C13.9221 10.8192 14.1009 11.4448 14.1009 11.4448H14.2399Z" fill="#00A859"/>
<path d="M13.2767 11.2328C13.1179 11.6201 12.959 11.7392 12.959 11.7392C12.959 11.7392 13.2767 11.9478 13.5548 11.7392C13.8428 11.5406 13.6938 11.352 13.6938 11.352V10.8555C13.6541 10.8555 13.4356 10.8555 13.2767 11.2328Z" fill="#00A859"/>
<path d="M4.37948 34.2015C4.37948 34.2015 5.69024 33.3277 6.78254 32.9503C6.42506 32.4836 5.72996 32.1758 4.92563 32.1758C3.76382 32.1758 2.81055 32.8312 2.81055 33.6454C2.81055 34.0327 3.41628 34.698 4.37948 34.2015Z" fill="#00A859"/>
<path d="M23.7734 34.6978C22.1151 33.7048 19.4539 32.5331 15.5514 32.3345V32.3643C15.1244 32.3345 14.6974 32.3146 14.2605 32.3047C14.2109 32.3047 14.1612 32.3047 14.1215 32.3047C14.0719 32.3047 14.0321 32.3047 13.9825 32.3047C13.5456 32.3146 13.1086 32.3345 12.6916 32.3643L12.6817 32.3345C8.77918 32.5331 6.12787 33.7048 4.45964 34.6978C3.76454 35.1049 3.41699 34.817 3.41699 34.817L4.95614 36.6937C5.34341 37.0711 5.9392 37.1207 6.37612 36.8129C8.16352 35.5518 10.8744 34.7475 13.913 34.7475C13.9825 34.7475 14.052 34.7574 14.1215 34.7574C14.191 34.7574 14.2605 34.7475 14.33 34.7475C17.3587 34.7475 20.0696 35.5518 21.8669 36.8129C22.3038 37.1207 22.8996 37.0711 23.2769 36.6937L24.8161 34.817C24.8161 34.817 24.4785 35.1049 23.7734 34.6978Z" fill="#00A859"/>
<path d="M23.3061 32.1758C22.5018 32.1758 21.8067 32.4836 21.4492 32.9503C22.5415 33.3277 23.8622 34.2015 23.8622 34.2015C24.8155 34.698 25.4212 34.0327 25.4212 33.6454C25.4212 32.8312 24.4779 32.1758 23.3061 32.1758Z" fill="#00A859"/>
<path d="M14.3988 1.30487C14.3988 1.38431 14.2896 1.44389 14.1506 1.44389C14.0215 1.44389 13.9023 1.38431 13.9023 1.30487C13.9023 1.23536 14.0215 1.17578 14.1506 1.17578C14.2896 1.17578 14.3988 1.23536 14.3988 1.30487Z" fill="black"/>
<path d="M16.7822 16.6468H16.7624H16.7822ZM14.975 29.8239L13.267 29.5955L13.3464 20.7578C12.7109 19.7152 11.5591 18.1065 10.3377 17.8682C9.2553 17.6597 6.03799 15.0878 5.63086 14.7899L6.54442 13.5586C8.00412 14.641 8.84817 15.6637 11.3009 16.627C12.0556 16.9249 13.2869 18.0867 14.0713 18.8215C15.2431 17.8682 15.5807 17.2724 16.2956 17.1334C16.812 16.9646 19.9201 15.1375 21.9955 13.6976L22.8494 14.7998C20.6648 15.6836 17.9242 17.8583 17.1 18.325C16.7822 18.464 15.8488 19.6655 15.0048 20.6387L14.975 29.8239Z" fill="#00AFEF"/>
<path d="M23.4556 21.3044C23.4556 21.3044 23.972 21.3341 24.2599 20.4504C24.538 19.5765 23.1875 20.8774 23.1875 20.8774L23.4556 21.3044Z" fill="#373435"/>
<path d="M27.2881 23.7866C27.149 26.0109 25.1134 27.6196 22.9189 30.1716C20.7343 32.7335 20.5158 32.6838 19.4732 32.0781C18.4305 31.4625 19.4732 29.1587 19.4732 29.1587C19.4732 29.1587 19.9995 28.0465 20.5258 27.0039C21.052 25.9612 21.5088 22.2673 22.1046 21.6914C22.3926 21.4133 22.621 21.3935 22.7997 21.5424C22.9884 21.7013 23.1175 22.0687 23.1671 22.5255C23.2664 23.3894 22.3628 26.9542 22.3628 26.9542C22.3628 26.9542 22.7401 26.6266 24.1998 25.4151C25.6496 24.2036 26.1064 23.7369 26.0568 21.3041C26.0369 20.3111 26.0965 19.4273 26.1858 18.6726C26.3249 17.5804 26.5334 16.7661 26.6625 16.3292C26.8909 15.5844 27.2384 16.498 27.2881 17.1534C27.3377 17.8187 27.4271 21.5623 27.2881 23.7866ZM25.4212 33.647C25.4212 34.0343 24.8155 34.6996 23.8622 34.2031C23.8622 34.2031 22.5415 33.3293 21.4492 32.9519C21.8067 32.4852 22.5018 32.1774 23.3062 32.1774C24.4779 32.1774 25.4212 32.8328 25.4212 33.647ZM23.2764 36.6955C22.899 37.0729 22.3032 37.1225 21.8663 36.8147C20.069 35.5536 17.3581 34.7493 14.3295 34.7493C14.2599 34.7493 14.1904 34.7592 14.1209 34.7592C14.0514 34.7592 13.9819 34.7493 13.9124 34.7493C10.8738 34.7493 8.16294 35.5536 6.37555 36.8147C5.93863 37.1225 5.34283 37.0729 4.95556 36.6955L3.41642 34.8188C3.41642 34.8188 3.76397 35.1068 4.45907 34.6996C6.1273 33.7066 8.7786 32.5349 12.6811 32.3363L12.691 32.3661C13.1081 32.3363 13.545 32.3164 13.9819 32.3065C14.0316 32.3065 14.0713 32.3065 14.1209 32.3065C14.1606 32.3065 14.2103 32.3065 14.2599 32.3065C14.6969 32.3164 15.1239 32.3363 15.5508 32.3661V32.3363C19.4533 32.5349 22.1146 33.7066 23.7729 34.6996C24.4779 35.1068 24.8155 34.8188 24.8155 34.8188L23.2764 36.6955ZM2.81069 33.647C2.81069 32.8328 3.76397 32.1774 4.92577 32.1774C5.7301 32.1774 6.4252 32.4852 6.78268 32.9519C5.69038 33.3293 4.37963 34.2031 4.37963 34.2031C3.41642 34.6996 2.81069 34.0343 2.81069 33.647ZM0.814766 23.7866C0.665817 21.5623 0.765116 17.8187 0.814766 17.1534C0.864416 16.498 1.21197 15.5844 1.44035 16.3292C1.56944 16.7661 1.77797 17.5804 1.90706 18.6726C2.00636 19.4273 2.06594 20.3111 2.04608 21.3041C1.99643 23.7369 2.44328 24.2036 3.90299 25.4151C5.35276 26.6266 5.74003 26.9542 5.74003 26.9542C5.74003 26.9542 4.8364 23.3894 4.92577 22.5255C4.97542 22.0687 5.10451 21.7013 5.30311 21.5424C5.48185 21.3935 5.71024 21.4133 5.98828 21.6914C6.58408 22.2673 7.05079 25.9612 7.57708 27.0039C8.10336 28.0465 8.62965 29.1587 8.62965 29.1587C8.62965 29.1587 9.6723 31.4625 8.62965 32.0781C7.57708 32.6838 7.36855 32.7335 5.18395 30.1716C2.98943 27.6196 0.953786 26.0109 0.814766 23.7866ZM4.35977 21.9992C3.24761 21.6715 3.32705 20.5494 3.45614 19.9536C3.53558 20.043 3.62495 20.1224 3.71432 20.2118C4.05194 20.5196 4.37963 20.7579 4.71724 20.9367H4.70731C4.54844 20.9565 4.43921 20.9963 4.40942 21.036C4.35977 21.1254 4.34984 21.5027 4.35977 21.9992ZM3.08873 21.6715C3.25754 22.2375 3.92285 22.5851 4.39949 22.7737C4.45907 23.588 4.57823 24.4519 4.7371 24.8292C5.07472 25.5839 3.74411 24.5909 3.1781 23.5979C2.63195 22.6347 2.483 21.3339 2.47307 18.9606C2.47307 18.8613 2.47307 18.7719 2.47307 18.6726V18.6329C2.57237 18.8117 2.6816 18.9805 2.80076 19.1493C2.73125 20.0728 2.81069 20.8076 3.08873 21.6715ZM2.69153 12.5161C3.54551 11.4039 4.70731 9.8449 6.9217 9.62645C9.13608 9.41792 10.2979 10.3315 11.2909 11.4436C12.2839 12.5657 13.8429 13.9857 13.9124 14.4326C13.9422 14.6014 13.9918 14.8 14.0216 14.9986C14.0117 15.0979 14.0018 15.217 14.0117 15.3362C13.972 15.505 13.8429 15.6142 13.5549 15.5944C12.83 15.5447 11.0228 15.1972 10.7149 15.0283C10.4071 14.8595 10.2681 14.224 10.2979 13.797C10.3177 13.37 10.0298 12.4366 9.03678 11.8408C8.04379 11.245 7.25932 11.0564 6.55429 11.4436C6.44506 11.5032 4.44914 12.238 4.00229 14.2042C3.54551 16.1604 3.59516 17.6995 5.27332 18.7719C6.96142 19.8345 8.89776 18.484 8.89776 18.484L9.3744 18.7422C9.3744 18.7422 10.9831 20.043 10.9334 20.4005C10.9036 20.5792 10.9235 20.7282 10.844 20.8473C10.6852 20.8374 10.5263 20.897 10.3873 21.0558C10.3575 21.0558 10.3277 21.0558 10.2979 21.0658C9.71202 21.1254 7.88491 21.3835 6.71317 21.2842C6.5245 21.0558 5.94856 20.9367 5.42227 20.9168C4.82647 20.6487 4.13138 20.2416 3.52565 19.6557C3.54551 19.6061 3.55544 19.5763 3.55544 19.5763C3.55544 19.5763 2.98943 18.2258 2.84048 18.8315C2.69153 18.6131 2.56244 18.3748 2.45321 18.1265C2.39363 17.2328 2.19503 16.5079 1.94678 16.0213C1.82762 14.6212 2.11559 13.2707 2.69153 12.5161ZM6.65359 9.44771C7.06072 9.31862 7.25932 9.1796 7.3189 9.12995C7.5175 8.99093 7.68631 8.80226 7.8154 8.5838L7.87498 8.46464C10.3078 8.2859 10.6852 7.72982 10.6852 7.72982C10.6852 7.72982 10.9731 7.76954 11.41 7.47164C11.8569 7.18367 12.6712 7.00493 12.6712 7.00493C12.7705 8.06744 13.5251 7.58087 12.9889 8.01779C12.4527 8.44478 12.5818 10.262 12.5818 10.262L12.8002 10.1925L12.83 10.7684L13.118 10.7883C13.118 11.2649 12.125 11.6522 11.9264 11.7316C11.2412 11.0464 10.5163 10.3712 9.99006 9.98392C8.60979 8.99093 6.65359 9.44771 6.65359 9.44771C6.65359 9.44771 9.53328 9.24911 6.53443 9.4775C6.57415 9.46757 6.61387 9.45764 6.65359 9.44771ZM11.6583 6.14103C11.5888 7.07444 11.0824 7.21346 11.0824 7.21346C11.0824 7.21346 11.0824 7.21346 11.0526 6.96521C11.0228 6.71696 11.3803 5.55516 11.5193 5.25726C11.6682 4.95936 11.9959 5.09838 11.9959 5.09838C11.9959 5.09838 12.0456 5.16789 12.2044 5.6346C12.3633 6.11124 12.2044 6.85598 12.2044 6.85598C12.2044 6.85598 12.0257 6.93542 11.8867 6.57794C11.7775 6.28998 11.8867 5.81334 11.8867 5.81334C11.8867 5.81334 11.7278 5.21754 11.6583 6.14103ZM7.06072 8.00786C7.37848 7.47164 8.4807 5.25726 8.99706 4.94943L9.04671 4.75083C9.04671 4.75083 8.58993 4.86999 8.46084 4.55223C8.46084 4.55223 8.57007 4.31391 8.88783 4.37349L9.04671 4.06566C9.04671 4.06566 8.51049 4.20468 8.49063 3.71811C8.49063 3.71811 9.23538 3.67839 9.74181 3.24147C10.2482 2.79463 10.6454 2.73505 10.6454 2.73505C10.6454 2.73505 10.5163 3.05281 10.9731 3.13225C10.9731 3.13225 11.2214 2.73505 11.132 2.06974C11.132 2.06974 11.0625 1.83142 10.4965 2.21869C9.93048 2.59603 9.41412 3.0826 8.6793 2.91379C8.6793 2.91379 8.74881 2.59603 9.31482 2.41729C9.88083 2.24848 10.6256 1.28527 11.5391 1.42429C11.5888 1.43422 11.7973 2.05981 11.7973 2.91379C11.7973 3.75783 12.4825 4.33377 13.0187 4.33377C13.5549 4.33377 13.684 4.07559 13.684 4.07559L13.8727 4.13517C13.8727 4.13517 14.1011 2.56624 13.7138 2.05981C13.3365 1.55338 13.0187 1.42429 13.0187 1.42429C13.0187 1.42429 13.2868 0.828492 14.1011 0.798702C14.9054 0.768912 15.2629 1.23562 15.2629 1.83142C15.2629 2.43715 15.4515 3.98622 15.9282 4.33377C15.9282 4.33377 16.6531 4.42314 16.8417 4.13517C17.0105 3.88692 17.0801 3.20175 16.9013 2.32792C16.8616 2.10946 16.9112 1.88107 17.0602 1.71226C17.2489 1.47394 17.5666 1.22569 17.9638 1.37464C19.0462 1.80163 20.059 2.80456 20.1881 3.00316C19.8902 2.7847 19.3441 2.44708 18.5795 2.31799C18.3312 2.27827 18.1028 2.26834 17.9042 2.26834C17.7056 2.26834 17.5468 2.44708 17.5567 2.64568C17.5766 2.95351 17.5964 3.26133 17.6163 3.56916C17.6163 3.56916 17.6163 4.37349 17.2985 4.72104C16.9808 5.06859 16.524 5.40621 16.1764 5.17782C15.8289 4.95936 15.5806 4.45293 15.4019 4.41321C15.2331 4.36356 15.0543 4.37349 15.0543 4.37349C15.0543 4.37349 14.8657 4.61181 15.2827 5.11824C15.6899 5.62467 15.9381 5.65446 15.9381 5.65446C15.9381 5.65446 16.8417 5.49558 17.2687 5.49558C17.6957 5.49558 17.8844 5.57502 17.8844 5.57502C17.8844 5.57502 18.6689 7.15388 18.361 7.67024C18.361 7.67024 17.6659 6.94535 17.5865 6.1311C17.5865 6.1311 17.3184 5.8332 17.2489 6.22047C17.1893 6.61766 17.2389 6.85598 17.2389 6.85598C17.2389 6.85598 17.0105 7.02479 16.8914 6.67724C16.7623 6.3297 16.7424 6.21054 16.6332 6.14103C16.524 6.08145 16.4644 6.44886 16.4644 6.44886C16.4644 6.44886 16.1764 6.21054 16.0573 6.16089C15.9282 6.11124 15.9381 6.21054 15.9381 6.21054C15.9381 6.21054 16.1466 6.94535 16.0374 7.18367C15.9282 7.42199 15.8984 7.40213 15.5211 7.02479C15.1338 6.64745 15.3225 7.13402 15.3225 7.13402C15.3225 7.13402 15.5012 7.81919 15.67 8.22632C15.8487 8.63345 15.8487 8.63345 15.8487 8.63345C15.8487 8.63345 16.097 8.16674 16.097 8.22632C16.097 8.2859 16.2459 9.42785 15.9282 9.70589C15.6104 9.99385 15.2132 9.82505 15.2132 9.82505C15.2132 9.82505 14.965 8.86184 15.1834 8.2859C15.1834 8.2859 14.4288 8.16674 13.8131 7.58087C13.1974 6.995 12.5818 6.83612 12.552 4.86999L12.3931 4.75083L12.3435 4.47279C12.3435 4.47279 11.837 4.60188 11.5391 4.45293C11.2412 4.31391 11.0824 4.07559 11.1121 3.96636C11.1419 3.85713 10.3575 4.06566 10.3575 4.06566C10.3575 4.06566 10.1688 4.443 10.3575 4.52244C10.5461 4.60188 10.9533 4.48272 11.0526 4.68132C11.1419 4.86999 11.1916 6.83612 10.1489 7.58087C10.1489 7.58087 9.8709 7.56101 10.1489 7.0943C10.4369 6.61766 10.9533 5.55516 10.7547 5.11824C10.7249 5.05866 10.705 5.00901 10.6852 4.97922H10.3674L10.1688 5.22747C10.1688 5.22747 9.98013 6.47865 9.44391 7.17374C8.90769 7.85891 8.69916 7.97807 8.69916 7.97807C8.69916 7.97807 8.29203 7.67024 8.69916 7.28297C9.10629 6.88577 9.93048 5.76369 9.8709 5.01894L9.80139 4.80048C9.80139 4.80048 9.50349 4.71111 9.25524 5.22747C8.99706 5.75376 7.59694 8.17667 7.40827 8.3852C7.2196 8.59373 7.06072 8.62352 7.06072 8.62352C7.06072 8.62352 6.74296 8.54408 7.06072 8.00786ZM20.8832 7.2929C21.4492 8.22632 21.479 8.62352 21.479 8.62352C21.479 8.62352 21.3996 8.54408 20.4364 7.76954C19.4732 6.995 19.5725 5.46579 19.5725 5.46579C19.9995 5.67432 20.3172 6.36942 20.8832 7.2929ZM18.9171 5.75376C19.0065 6.25026 19.1753 6.64745 19.5725 7.32269C19.9697 8.00786 19.6817 8.11709 19.6817 8.11709C18.5298 7.37234 18.3908 5.436 18.3908 5.436C18.3908 5.436 18.8277 5.24733 18.9171 5.75376ZM18.0433 3.9465C18.0135 3.77769 17.9539 3.59895 17.934 3.31098C17.9241 3.0826 17.934 2.884 17.944 2.75491C17.944 2.75491 18.5894 2.72512 18.9668 2.83435C19.2547 2.90386 19.642 3.13225 20.0094 3.79755C19.8406 3.83727 19.6817 3.88692 19.5129 3.93657C19.5129 3.93657 19.6519 4.61181 19.8108 4.75083C19.8108 4.75083 19.5923 4.77069 19.3044 4.52244C19.0164 4.26426 18.8476 4.45293 18.8476 4.45293C18.8476 4.45293 19.0661 4.71111 18.9767 4.87992C18.9767 4.87992 18.8178 4.61181 18.5596 4.77069C18.3114 4.92957 18.0433 4.98915 18.0433 4.98915C18.1128 4.5423 18.083 4.19475 18.0433 3.9465ZM17.0304 10.1726C17.5368 10.2123 17.7851 9.78533 17.7851 9.78533C18.3908 9.78533 18.7384 9.52715 18.7384 9.52715C18.7384 9.52715 16.7424 8.20646 16.5538 7.72982C16.3651 7.25318 17.1893 7.42199 17.1893 7.42199L17.2787 7.67024L17.8546 7.87877L17.9738 8.04758L18.927 8.10716L19.9697 9.34841H19.9796L19.9995 9.36827C19.4335 9.42785 18.7979 9.59666 18.2617 9.98392C17.7354 10.3613 17.0205 11.0365 16.3353 11.7117C16.3353 11.7117 16.1169 11.5231 15.9878 10.8876C15.8587 10.252 16.0573 10.4208 16.4346 10.401C16.8119 10.3811 17.0304 10.1726 17.0304 10.1726ZM17.2985 8.95121C17.2588 8.90156 17.5964 9.00086 17.8149 9.24911C18.0433 9.50729 18.1227 9.53708 18.1227 9.53708C18.1227 9.53708 17.8645 9.64631 17.5865 9.59666C17.2985 9.55694 17.2985 9.78533 17.2985 9.78533H17.0006C17.0006 9.78533 16.7424 9.4775 16.8715 9.16967L17.3482 9.36827C17.3482 9.36827 17.4773 9.18953 17.2985 8.95121ZM17.9638 21.5126C18.4901 21.5226 19.1554 21.5424 19.7314 21.5424C19.3342 22.0588 18.9668 22.6049 18.6291 23.161C18.371 22.4858 18.1128 21.88 17.9638 21.5126ZM15.0146 11.7614C15.0146 11.7614 15.1834 11.5231 15.2033 10.9869C15.2132 10.4506 15.3225 10.5301 15.3225 10.5301C15.3225 10.5301 15.6104 10.7187 15.7197 11.2748C15.7991 11.672 15.7892 11.8508 15.7991 11.9203C15.819 11.9302 15.8289 11.9501 15.819 11.9501C15.7991 11.96 15.7991 11.9501 15.7991 11.9203C15.7395 11.8905 15.6104 11.8607 15.4416 11.8607C15.1834 11.8607 15.0146 11.7614 15.0146 11.7614ZM15.7395 12.3175C14.8855 13.2012 14.2004 13.9658 14.2004 13.9658L14.1209 14.4326L14.0514 13.9658C14.0514 13.9658 13.2669 13.1019 12.3335 12.1487L12.4825 12.2777L15.7395 12.3175ZM13.2769 11.2351C13.4358 10.8578 13.6542 10.8578 13.6939 10.8578V11.3543C13.6939 11.3543 13.8429 11.5429 13.5549 11.7415C13.2769 11.9501 12.9591 11.7415 12.9591 11.7415C12.9591 11.7415 13.118 11.6224 13.2769 11.2351ZM14.6969 10.5301C14.6969 10.5301 14.826 10.9968 14.6969 11.2351C14.5678 11.4734 14.2401 11.4436 14.2401 11.4436H14.1011C14.1011 11.4436 13.9223 10.818 14.2401 10.7187C14.5578 10.6294 14.6969 10.5301 14.6969 10.5301ZM14.2401 9.74561C14.0514 9.7754 14.0316 10.1031 14.0316 10.1031C13.7535 9.88463 13.4358 10.1031 13.4358 10.1031C12.5321 9.58673 13.1676 8.43485 13.2272 8.22632C13.2868 8.01779 13.5946 8.03765 13.833 8.32562C14.0613 8.60366 14.4288 8.55401 14.4288 8.55401C14.4288 8.55401 14.4288 9.70589 14.2401 9.74561ZM10.2482 15.2369C10.8142 15.6639 12.9492 15.9022 13.7337 15.8823C13.9223 15.8724 14.0415 15.793 14.1209 15.6837C14.2004 15.793 14.3195 15.8724 14.5181 15.8823C15.3026 15.9022 17.4276 15.6639 18.0035 15.2369C18.5696 14.8099 18.0929 13.9857 18.1922 13.5587C18.2816 13.1317 19.4434 11.7117 20.486 11.6621C21.5287 11.6224 23.3955 12.377 23.9218 14.1049C24.4382 15.8327 24.2991 17.6101 22.9685 18.345C21.6478 19.0798 20.3867 18.6726 20.1583 18.345C19.92 18.0073 18.927 18.0371 18.5398 18.5336C18.1624 19.0301 16.8417 19.904 16.8417 20.4203C16.8417 20.4501 16.8417 20.4799 16.8417 20.4998C16.5637 20.3707 16.236 20.321 16.0771 20.6884C15.7693 21.3736 15.1934 23.3497 15.3522 24.015C15.5012 24.6803 16.4743 24.4718 16.6928 24.8193C18.1227 27.133 16.663 28.9998 15.1934 29.536C15.1735 29.1786 15.0246 26.279 15.0543 25.7527C15.0742 25.1966 15.1934 20.7877 15.1934 20.7381C15.1934 20.6586 15.2232 20.5792 15.2827 20.5196C16.3452 19.2784 17.0403 18.4641 17.09 18.4145C17.1396 18.3748 17.378 18.3152 17.5269 18.2754C17.6759 18.2457 17.8248 18.2059 17.934 18.1662C18.083 18.1066 18.5696 17.7492 19.6817 16.9051C20.1881 16.5278 20.7144 16.1306 20.8534 16.0412C21.2209 15.8227 22.7799 14.9787 22.9189 14.9291L22.8593 14.7404L22.8196 14.5616C22.6706 14.6014 20.8832 15.5844 20.6548 15.7135C20.496 15.8128 20.0094 16.1802 19.4533 16.6072C18.8476 17.064 17.944 17.7492 17.8049 17.8087C17.7156 17.8385 17.5666 17.8783 17.4375 17.908C17.1098 17.9974 16.9212 18.0471 16.8318 18.1364C16.7623 18.2159 15.7892 19.338 14.9948 20.2714C14.8855 20.4005 14.826 20.5593 14.816 20.7282C14.816 20.7778 14.6969 25.1867 14.677 25.7428C14.6472 26.3088 14.8061 29.4566 14.816 29.5956L15.0543 29.5857C14.7465 29.6751 14.4387 29.7148 14.1606 29.6751C13.9025 29.6453 13.6443 29.5956 13.396 29.536H13.4159C13.4258 28.1756 13.4457 24.5413 13.5152 24.154C13.5946 23.7171 13.545 21.6914 13.5251 20.8374C13.5251 20.6884 13.4755 20.5494 13.3861 20.4303C12.3733 19.0103 11.7278 18.2457 11.4796 18.1662C11.4001 18.1364 11.3207 18.1066 11.2313 18.0868C10.9433 17.9974 10.6256 17.8981 10.1688 17.6499C9.93048 17.5208 9.13608 16.9846 8.30196 16.4185C6.65359 15.3064 5.64073 14.6212 5.39248 14.5616L5.30311 14.9291C5.52157 14.9886 7.07065 16.0412 8.08351 16.7363C8.96727 17.3321 9.73188 17.8485 9.99006 17.9875C10.4766 18.2556 10.8341 18.3549 11.1221 18.4443C11.2015 18.4741 11.281 18.4939 11.3604 18.5237C11.4994 18.5833 12.0952 19.2784 13.0783 20.6487C13.118 20.7083 13.1478 20.7778 13.1478 20.8473C13.1776 22.1978 13.1974 23.7568 13.1478 24.0845C13.0584 24.5611 13.0386 28.7118 13.0386 29.4367C11.9165 29.0594 11.0526 28.3345 10.9533 27.2323C10.8142 25.7825 11.6086 24.8193 11.9661 24.7399C12.3335 24.6604 12.6712 23.7667 12.3931 23.2404C12.1151 22.7241 11.8569 21.2147 11.42 21.0161C11.4001 21.0062 11.3703 20.9963 11.3505 20.9863C11.4001 20.8076 11.41 20.6189 11.41 20.4203C11.41 19.904 10.0794 19.0301 9.70209 18.5336C9.32475 18.0371 8.33175 18.0073 8.09344 18.345C7.85512 18.6726 6.60394 19.0798 5.27332 18.345C3.95264 17.6101 3.80369 15.8327 4.32998 14.1049C4.84633 12.377 6.7231 11.6224 7.76575 11.6621C8.79846 11.7117 9.96027 13.1317 10.0596 13.5587C10.1489 13.9857 9.68223 14.8099 10.2482 15.2369ZM18.8575 29.0892C17.8745 30.966 16.1466 31.3929 14.9054 31.7306C13.6641 32.0583 11.5491 31.3334 10.2085 29.9233C8.85804 28.5033 8.76867 26.418 8.8779 25.3853C8.92755 24.9186 9.19566 24.2533 9.50349 23.6078C9.63258 23.5681 9.72195 23.449 9.66237 23.2901C9.99999 22.6248 10.3376 22.029 10.4766 21.7609C10.5362 21.6516 10.5859 21.5722 10.6355 21.5027C10.8242 21.4928 10.9632 21.4431 11.0724 21.3736C11.132 21.3935 11.1916 21.4233 11.271 21.4431C11.5789 21.5325 12.0952 23.4589 12.0952 23.4589L12.1449 23.9753C12.1449 23.9753 10.3078 25.1768 10.5958 27.0734C10.8838 28.9601 12.1349 29.7247 13.962 29.9332C17.09 30.2907 17.7354 27.3514 17.5865 26.2393C17.4475 25.1371 16.941 24.6604 16.5836 24.5214C16.2162 24.3824 15.7296 24.015 15.6998 23.6774C15.67 23.3397 16.0275 21.6119 16.2459 20.9565C16.375 20.5693 16.6133 20.5891 16.8517 20.7282C16.8914 21.1254 17.0403 21.4729 17.656 21.5126C18.0035 22.2077 18.4703 23.5483 18.9072 24.5313C19.364 25.5541 19.6718 26.6166 19.3143 27.9274C19.1455 28.3147 18.9965 28.692 18.8774 29.0395C18.8774 29.0495 18.8675 29.0693 18.8575 29.0892ZM18.4504 32.1973C17.5964 32.0483 16.6829 31.949 15.7494 31.8994C16.8616 31.6213 17.934 30.9957 18.6391 29.8637C18.3412 31.0057 18.3809 31.8596 18.4504 32.1973ZM8.51049 21.5424C9.03678 21.5424 9.63258 21.5226 10.1291 21.5126C9.95034 21.9495 9.71202 22.4758 9.50349 22.9823C9.35454 22.7439 9.16587 22.5652 8.9772 22.3269C8.78853 22.0786 8.70909 21.7807 8.51049 21.5424ZM7.98421 21.8204C8.23245 22.019 8.30196 22.3368 8.4807 22.595C8.68923 22.9028 8.9772 23.0816 9.11622 23.439C9.14601 23.5185 9.19566 23.5681 9.25524 23.5979C9.20559 23.727 9.16587 23.8561 9.12615 23.9753C8.91762 24.6505 8.16294 25.991 8.81832 27.8976C9.4737 29.8141 10.9533 31.3234 12.7307 31.8596C12.7605 31.8696 12.7804 31.8696 12.8102 31.8795C11.7079 31.9292 10.6554 32.0384 9.66237 32.2171C9.81132 31.8894 9.92055 29.685 7.9147 26.2194C7.9147 26.2194 6.88198 22.2276 6.78268 21.4729C7.11037 21.4928 7.38841 21.4928 7.59694 21.5126C7.68631 21.5226 7.79554 21.5325 7.90477 21.5325C7.86505 21.6219 7.87498 21.7311 7.98421 21.8204ZM19.6618 26.2393C19.5328 25.5938 19.1951 24.6207 18.8377 23.7071C18.9171 23.6972 18.9965 23.6575 19.0462 23.5681C19.4136 22.9525 19.8108 22.3666 20.2477 21.8006C20.3172 21.7013 20.3172 21.6119 20.2676 21.5325C20.4066 21.5325 20.5357 21.5226 20.6548 21.5126C20.8237 21.4928 21.052 21.4928 21.3202 21.4828C21.2109 22.2574 20.1881 26.2194 20.1881 26.2194C20.0193 26.5173 19.8605 26.7954 19.7214 27.0734C19.7413 26.8053 19.7214 26.5273 19.6618 26.2393ZM23.7033 22.7737C24.18 22.5851 24.8354 22.2375 25.0141 21.6715C25.2624 20.8672 25.3617 20.1721 25.312 19.338C25.4212 19.189 25.5305 19.0401 25.6298 18.8812C25.6298 18.901 25.6298 18.9308 25.6298 18.9606C25.6198 21.3339 25.4709 22.6347 24.9247 23.5979C24.3488 24.5909 23.0281 25.5839 23.3558 24.8292C23.5246 24.4519 23.6438 23.588 23.7033 22.7737ZM23.6934 21.036C23.6636 21.0062 23.5941 20.9764 23.4948 20.9565C23.8424 20.7778 24.1899 20.5395 24.5375 20.2118C24.5772 20.1621 24.6268 20.1224 24.6765 20.0728C24.7857 20.6884 24.7857 21.6914 23.7431 21.9992C23.753 21.5027 23.7431 21.1254 23.6934 21.036ZM25.5503 12.5161C26.0865 13.2211 26.3745 14.4425 26.3249 15.7433C25.9575 16.2696 25.6596 17.2129 25.6298 18.4542C25.5305 18.6528 25.4113 18.8315 25.2921 19.0003C25.1928 18.0073 24.5375 19.5763 24.5375 19.5763C24.5375 19.5763 24.5673 19.6259 24.5871 19.7252C24.597 19.7352 24.597 19.755 24.607 19.7649C24.031 20.2912 23.3955 20.6586 22.8394 20.9069C22.2536 20.9168 21.5684 21.036 21.3797 21.2942C20.1981 21.3637 18.51 21.1254 17.9539 21.0658C17.7652 21.0459 17.6361 21.0062 17.5468 20.9665L17.4475 20.9069C17.3184 20.7877 17.3382 20.6189 17.3184 20.4005C17.2687 20.043 18.8774 18.7422 18.8774 18.7422L19.354 18.484C19.354 18.484 21.2904 19.8345 22.9685 18.7719C24.6566 17.6995 24.6963 16.1604 24.2495 14.2042C23.8026 12.238 21.7968 11.5032 21.6876 11.4436C20.9925 11.0564 20.1981 11.245 19.2051 11.8408C18.2121 12.4366 17.9241 13.37 17.9539 13.797C17.9738 14.224 17.8347 14.8595 17.5269 15.0283C17.2191 15.1972 15.4218 15.5447 14.6969 15.5944C14.399 15.6142 14.2798 15.505 14.2302 15.3362C14.2401 15.217 14.2401 15.0979 14.2302 14.9986C14.25 14.8 14.3096 14.6014 14.3295 14.4326C14.399 13.9857 15.9679 12.5657 16.9609 11.4436C17.9539 10.3315 19.1157 9.41792 21.3301 9.62645C23.5445 9.8449 24.6963 11.4039 25.5503 12.5161ZM27.3874 15.4553C27.1689 15.2269 26.9107 15.2071 26.6625 15.3858C26.6625 15.1376 26.6426 14.8893 26.6128 14.651C26.4043 13.0424 25.312 10.8578 23.3558 9.91442C23.3459 9.90448 23.3459 9.88463 23.326 9.86477C23.2962 9.83498 23.2764 9.80519 23.2565 9.7754C23.2466 9.75554 23.2267 9.74561 23.2168 9.73568L23.2069 9.71582C23.1771 9.6761 23.1473 9.64631 23.1075 9.61652C23.0877 9.59666 23.0579 9.5768 23.038 9.55694C23.1175 9.56687 23.1969 9.58673 23.2863 9.60659C22.7401 9.09023 22.1245 8.44478 21.5188 7.66031C21.0421 7.02479 20.6548 6.41907 20.347 5.87292C20.6251 6.0318 21.479 6.0318 21.479 6.0318C20.9726 5.65446 20.7541 4.68132 20.7541 4.68132C21.1017 4.83027 21.479 4.7409 21.479 4.7409C21.1315 4.36356 20.9428 3.66846 20.9428 3.66846C21.3202 3.69825 21.3202 3.50958 21.3202 3.50958C21.0719 3.3507 19.2448 1.71226 18.1624 1.17604C17.4872 0.838422 17.0205 1.28527 16.7623 1.66261C16.6133 1.88107 16.5736 2.14918 16.663 2.39743C16.8318 2.91379 17.0503 3.88692 16.4346 4.0458C15.5806 4.26426 15.4515 2.75491 15.4813 1.93072C15.5211 1.10653 15.0146 0.570312 14.1011 0.570312C13.1776 0.570312 12.5222 1.68247 12.5222 1.68247C12.5222 1.68247 13.1478 1.77184 13.3365 1.90093C13.5251 2.03002 13.972 3.03295 13.4953 3.66846C13.0187 4.29405 12.4527 3.69825 12.2044 3.41028C11.9463 3.13225 12.1747 1.45408 11.8569 1.10653C11.5391 0.758982 9.68223 1.58317 8.82825 2.30806C7.97428 3.03295 6.96142 3.16203 6.96142 3.16203C6.96142 3.56916 7.49764 3.53937 7.49764 3.53937C7.37848 3.98622 6.99121 4.48272 6.99121 4.48272L7.49764 4.6416C7.52743 5.21754 7.03093 5.65446 7.03093 5.65446H7.59694C7.47778 6.11124 7.30897 6.63752 7.05079 7.1936C6.55429 8.27597 5.9287 9.07037 5.42227 9.60659C5.54143 9.60659 5.65066 9.60659 5.75989 9.59666C3.25754 10.2222 1.86734 12.814 1.62902 14.651C1.5893 14.939 1.57937 15.217 1.5893 15.505C1.2914 15.217 0.973646 15.1773 0.715467 15.4553C0.0501586 16.1604 -0.138511 24.2036 0.715467 25.4151C1.46021 26.4776 4.43921 30.3801 5.69038 31.6908C5.45206 31.6313 5.19388 31.6015 4.92577 31.6015C3.44621 31.6015 2.24468 32.525 2.24468 33.647C2.24468 33.7066 2.25461 33.7563 2.25461 33.8059C2.2844 34.0641 2.37377 34.3223 2.52272 34.5407V34.5507C2.59223 34.65 2.67167 34.7493 2.76104 34.8486L4.47893 37.0232C5.08465 37.619 6.03793 37.7084 6.74296 37.2218C8.24238 36.1891 10.4568 35.494 12.9591 35.3451V35.3749C13.3365 35.3451 13.7237 35.3252 14.1209 35.3252C14.5082 35.3252 14.8955 35.3451 15.2728 35.3749V35.3451C17.7851 35.494 19.9995 36.1891 21.4989 37.2218C22.2039 37.7084 23.1473 37.619 23.753 37.0232L25.4808 34.8486C25.5702 34.7493 25.6496 34.65 25.7191 34.5507V34.5407C25.8681 34.3223 25.9575 34.0641 25.9773 33.8059C25.9872 33.7563 25.9872 33.7066 25.9872 33.647C25.9872 32.525 24.7857 31.6015 23.3062 31.6015C22.9785 31.6015 22.6607 31.6511 22.3628 31.7405C23.5842 30.4794 26.6228 26.4875 27.3874 25.4151C28.2314 24.2036 28.0427 16.1604 27.3874 15.4553Z" fill="#373435"/>
<path d="M8.04369 20.5405C10.834 20.5008 9.41403 19.9547 9.41403 19.9547C9.41403 19.9547 8.77851 19.1702 8.54019 19.2695C8.30187 19.3589 8.47068 19.7163 7.66635 19.766C6.86203 19.8057 5.0647 20.3618 3.78374 18.3162C2.50277 16.2806 2.9099 16.0025 2.92976 15.7146C2.95955 15.4266 2.79074 14.4336 2.79074 14.4336C2.79074 14.5031 1.98641 16.5189 3.04892 18.0084C4.11142 19.4979 5.25337 20.5902 8.04369 20.5405Z" fill="#373435"/>
<path d="M19.1858 10.5296C17.9544 10.8672 15.9188 14.0548 15.5415 14.2434C15.1641 14.4321 14.9953 14.6208 15.1641 14.7201C15.323 14.8094 16.167 14.6009 16.5841 14.6009C17.0111 14.6009 17.2891 14.4619 17.3189 14.2434C17.3388 14.0349 17.17 13.1114 17.6963 12.4759C18.2126 11.8304 19.0467 10.5296 20.8639 10.5296C21.3008 10.5296 21.7874 10.5296 21.7874 10.5296C21.7874 10.5296 20.7249 10.1026 19.1858 10.5296Z" fill="#373435"/>
<path d="M10.5562 12.4759C11.0725 13.1114 10.9136 14.0349 10.9335 14.2434C10.9534 14.4619 11.2413 14.6009 11.6584 14.6009C12.0854 14.6009 12.9195 14.8094 13.0883 14.7201C13.2472 14.6208 13.0883 14.4321 12.711 14.2434C12.3336 14.0548 10.298 10.8672 9.06666 10.5296C7.52751 10.1026 6.45508 10.5296 6.45508 10.5296C6.45508 10.5296 6.95158 10.5296 7.37857 10.5296C9.20568 10.5296 10.0299 11.8304 10.5562 12.4759Z" fill="#373435"/>
<path d="M24.4584 18.3162C23.1774 20.3618 21.39 19.8057 20.5758 19.766C19.7714 19.7163 19.9402 19.3589 19.7019 19.2695C19.4636 19.1702 18.8281 19.9547 18.8281 19.9547C18.8281 19.9547 17.4081 20.5008 20.1984 20.5405C22.9987 20.5902 24.1307 19.4979 25.1932 18.0084C26.2656 16.5189 25.4514 14.5031 25.4514 14.4336C25.4514 14.4336 25.2925 15.4266 25.3124 15.7146C25.3421 16.0025 25.7493 16.2806 24.4584 18.3162Z" fill="#373435"/>
<path d="M10.4369 28.5611C9.18576 26.6446 10.2979 25.2643 10.6256 24.5791C10.9533 23.884 11.1916 24.1621 11.3604 23.9933C11.5193 23.8145 11.1022 22.9506 11.1022 22.9506C11.1022 22.9506 11.1519 21.4909 10.1092 23.9436C9.05667 26.3963 9.5631 27.8163 10.427 29.3257C11.2909 30.835 13.267 30.8847 13.3266 30.9145C13.3266 30.9145 12.552 30.3882 12.3137 30.2988C12.0655 30.2094 11.6782 30.4676 10.4369 28.5611Z" fill="#373435"/>
<path d="M16.8123 21.7038C16.6733 21.813 16.5541 22.6372 16.3953 23.0046C16.2463 23.3819 16.2662 23.6898 16.435 23.7891C16.6038 23.8884 17.4379 24.0969 17.7855 24.792C18.133 25.497 18.9274 26.7283 18.272 28.3469C18.1132 28.7243 17.9344 29.1612 17.9344 29.1612C17.9344 29.1612 18.6792 28.3767 18.8778 26.8574C19.0366 25.636 17.1003 22.6273 17.0705 22.2201C17.0506 21.813 16.9513 21.5945 16.8123 21.7038Z" fill="#373435"/>
<path d="M6.41602 13.7294C6.52525 13.8187 9.07725 15.9537 10.5866 16.4998C11.8676 16.9765 13.5656 18.5752 13.9032 18.883C13.9628 18.9426 14.0422 18.9724 14.1217 18.9724C14.2011 18.9724 14.2905 18.9525 14.3501 18.893C15.3133 17.9893 15.8693 17.5127 15.9984 17.4432C16.2765 17.3935 17.2 17.0063 17.5773 16.7779C18.0142 16.5197 21.8273 14.0968 21.9961 13.9975L21.7876 13.6698C21.7479 13.6996 17.8156 16.192 17.3787 16.4502C16.9716 16.6984 16.0878 17.046 15.9488 17.0658C15.8594 17.0658 15.7502 17.0658 14.1217 18.5752C13.6053 18.0886 11.9967 16.619 10.7157 16.1523C9.27585 15.6161 6.68412 13.4613 6.66426 13.4414L6.41602 13.7294Z" fill="#373435"/>
<path d="M6.2767 35.5837C6.28663 35.6333 6.28663 35.673 6.28663 35.7028C6.26677 35.7525 6.23698 35.7922 6.1774 35.822C6.11782 35.8518 6.05824 35.8617 5.99866 35.8319C5.93908 35.8121 5.88943 35.7624 5.84971 35.673C5.80007 35.5837 5.78021 35.5042 5.79014 35.4347C5.81 35.3751 5.83978 35.3156 5.90929 35.2858C5.96887 35.256 6.01852 35.2461 6.06817 35.2659C6.09796 35.2758 6.12775 35.2957 6.15754 35.3255C6.22705 35.2858 6.25684 35.2758 6.33628 35.2361C6.30649 35.1865 6.26677 35.1468 6.20719 35.117C6.09796 35.0673 5.96887 35.0772 5.82986 35.1468C5.72063 35.2063 5.65112 35.2858 5.62133 35.3851C5.58161 35.5042 5.59154 35.6333 5.67098 35.7624C5.73056 35.8915 5.81993 35.9709 5.92915 36.0107C6.02845 36.0405 6.13768 36.0305 6.24691 35.9709C6.34621 35.9213 6.40579 35.8518 6.44551 35.7624C6.4753 35.683 6.4753 35.5936 6.45544 35.4943C6.38593 35.534 6.34621 35.5539 6.2767 35.5837Z" fill="#373435"/>
<path d="M6.82218 35.4655C6.79239 35.386 6.77253 35.3463 6.73281 35.2669C6.89169 35.1874 6.98106 35.1477 7.13994 35.0782C7.12008 35.0186 7.11015 34.9888 7.08036 34.9293C6.92148 35.0087 6.83211 35.0484 6.67323 35.1279C6.64344 35.0583 6.62358 35.0186 6.59379 34.959C6.77253 34.8697 6.8619 34.83 7.05057 34.7406C7.02078 34.6909 7.01085 34.6611 6.99099 34.6016C6.73281 34.7108 6.60372 34.7704 6.35547 34.8995C6.50442 35.2172 6.57393 35.3761 6.72288 35.6939C6.97113 35.5747 7.10022 35.5151 7.34847 35.4059C7.32861 35.3463 7.30875 35.3165 7.28889 35.2569C7.10022 35.3364 7.01085 35.386 6.82218 35.4655Z" fill="#373435"/>
<path d="M7.68661 34.3039C7.77598 34.5323 7.8157 34.6514 7.90507 34.8798C7.68661 34.7011 7.56745 34.6216 7.33906 34.4528C7.25962 34.4826 7.22983 34.4926 7.15039 34.5323C7.27948 34.86 7.34899 35.0188 7.47808 35.3465C7.54759 35.3167 7.57738 35.3068 7.64689 35.277C7.54759 35.0387 7.50787 34.9295 7.40857 34.6912C7.64689 34.8699 7.75612 34.9593 7.98451 35.138C8.05402 35.1082 8.09374 35.0884 8.16325 35.0685C8.04409 34.7309 7.98451 34.572 7.86535 34.2344C7.79584 34.2642 7.75612 34.2741 7.68661 34.3039Z" fill="#373435"/>
<path d="M8.67883 33.9453C8.39086 34.0347 8.25184 34.0943 7.96387 34.2035C7.98373 34.2531 7.99366 34.2829 8.01352 34.3425C8.11282 34.3028 8.1724 34.2829 8.2717 34.2531C8.371 34.5213 8.42065 34.6603 8.51002 34.9383C8.57953 34.9085 8.61925 34.8986 8.68876 34.8688C8.59939 34.6007 8.54974 34.4617 8.46037 34.1836C8.5696 34.1439 8.61925 34.1241 8.72847 34.0943C8.70862 34.0347 8.69869 34.0049 8.67883 33.9453Z" fill="#373435"/>
<path d="M9.37379 34.1252C9.35393 34.1351 9.32414 34.155 9.28442 34.1649C9.20498 34.1848 9.16526 34.2047 9.08582 34.2245C9.05603 34.1351 9.0461 34.0855 9.01631 33.9961C9.10568 33.9763 9.1454 33.9564 9.22484 33.9365C9.26456 33.9266 9.29435 33.9167 9.31421 33.9266C9.35393 33.9365 9.38372 33.9663 9.39365 34.016C9.41351 34.0656 9.40358 34.0954 9.37379 34.1252ZM9.70148 34.4827C9.69155 34.4728 9.68162 34.443 9.67169 34.4032C9.67169 34.3834 9.66176 34.3735 9.66176 34.3437C9.6419 34.2841 9.62204 34.2444 9.60218 34.2245C9.57239 34.1947 9.5426 34.1848 9.49295 34.1749C9.5426 34.1451 9.56246 34.1054 9.57239 34.0656C9.59225 34.016 9.59225 33.9763 9.58232 33.9365C9.57239 33.9068 9.55253 33.877 9.5426 33.8472C9.52274 33.8273 9.50288 33.8075 9.47309 33.7876C9.4433 33.7677 9.41351 33.7578 9.37379 33.7578C9.33407 33.7479 9.28442 33.7578 9.22484 33.7777C9.05603 33.8273 8.96666 33.8571 8.79785 33.9068C8.89715 34.2444 8.9468 34.4132 9.0461 34.7508C9.11561 34.7309 9.15533 34.721 9.22484 34.7011C9.18512 34.5621 9.16526 34.4926 9.12554 34.3635C9.19505 34.3437 9.23477 34.3337 9.30428 34.3139C9.35393 34.294 9.39365 34.294 9.41351 34.304C9.4433 34.3238 9.46316 34.3536 9.47309 34.4032C9.48302 34.443 9.49295 34.4529 9.50288 34.4827C9.50288 34.5125 9.51281 34.5323 9.52274 34.5522C9.53267 34.5721 9.5426 34.582 9.55253 34.6018C9.63197 34.5721 9.67169 34.5621 9.75113 34.5423L9.7412 34.5224C9.72134 34.5125 9.71141 34.5025 9.70148 34.4827Z" fill="#373435"/>
<path d="M10.069 34.1171C10.079 33.9682 10.0889 33.8987 10.1088 33.7497C10.1783 33.8788 10.218 33.9384 10.2974 34.0575C10.2081 34.0873 10.1584 34.0973 10.069 34.1171ZM9.95982 33.5809C9.91017 33.9582 9.88038 34.1469 9.85059 34.5143C9.9201 34.4945 9.95982 34.4845 10.0393 34.4647C10.0393 34.3952 10.0492 34.3554 10.0492 34.276C10.1783 34.2462 10.2478 34.2263 10.3769 34.1966C10.4166 34.2661 10.4365 34.2959 10.4762 34.3654C10.5556 34.3455 10.5854 34.3356 10.6648 34.3157C10.4762 33.998 10.3769 33.8391 10.1683 33.5312C10.0889 33.5511 10.0393 33.561 9.95982 33.5809Z" fill="#373435"/>
<path d="M10.933 34.1017C10.8833 33.8137 10.8536 33.6747 10.8039 33.3867C10.7245 33.3966 10.6847 33.4066 10.6152 33.4264C10.6748 33.774 10.7145 33.9428 10.784 34.2903C11.0323 34.2407 11.1515 34.2208 11.3997 34.1712C11.3898 34.1116 11.3898 34.0818 11.3699 34.0123C11.2011 34.052 11.1117 34.062 10.933 34.1017Z" fill="#373435"/>
<path d="M12.3035 33.8749C12.2836 33.8948 12.2538 33.8948 12.2141 33.9047C12.1347 33.9146 12.085 33.9146 11.9956 33.9345C11.9857 33.8352 11.9857 33.7855 11.9758 33.6962C12.0652 33.6862 12.1049 33.6763 12.1942 33.6664C12.234 33.6664 12.2638 33.6664 12.2836 33.6763C12.3233 33.6862 12.3432 33.716 12.3531 33.7657C12.3531 33.8153 12.3432 33.855 12.3035 33.8749ZM11.9261 33.3585C12.0056 33.3486 12.0453 33.3387 12.1247 33.3288C12.1744 33.3288 12.2141 33.3288 12.2439 33.3387C12.2737 33.3387 12.2935 33.3685 12.2935 33.4082C12.3035 33.4479 12.2935 33.4777 12.2638 33.4876C12.2439 33.5075 12.2141 33.5174 12.1744 33.5274C12.085 33.5373 12.0453 33.5373 11.9559 33.5472C11.946 33.4777 11.9361 33.438 11.9261 33.3585ZM12.3829 33.5671C12.4127 33.5472 12.4326 33.5274 12.4425 33.5075C12.4723 33.4678 12.4822 33.4281 12.4822 33.3685C12.4723 33.3188 12.4524 33.2791 12.4226 33.2394C12.373 33.1897 12.2836 33.1599 12.1744 33.1699C11.9956 33.1897 11.9063 33.2096 11.7275 33.2295C11.7772 33.577 11.797 33.7557 11.8467 34.1033C12.0056 34.0834 12.085 34.0735 12.2439 34.0536C12.2836 34.0536 12.3233 34.0437 12.3631 34.0338C12.4028 34.0139 12.4326 33.9941 12.4624 33.9742C12.4822 33.9543 12.5021 33.9245 12.512 33.8948C12.5418 33.855 12.5517 33.8054 12.5418 33.7557C12.5418 33.7061 12.5219 33.6664 12.4921 33.6267C12.4723 33.5969 12.4326 33.577 12.3829 33.5671Z" fill="#373435"/>
<path d="M12.9392 33.6559C12.9789 33.5069 12.9988 33.4374 13.0385 33.2984C13.0981 33.4374 13.1179 33.497 13.1775 33.636C13.0782 33.6459 13.0385 33.6459 12.9392 33.6559ZM12.9193 33.0998C12.8101 33.4672 12.7604 33.6459 12.6611 34.0133C12.7406 34.0034 12.7803 34.0034 12.8597 33.9935C12.8697 33.924 12.8796 33.8842 12.8995 33.8048C13.0385 33.7949 13.0981 33.7949 13.2271 33.7849C13.2569 33.8545 13.2768 33.8942 13.2967 33.9637C13.3761 33.9637 13.4158 33.9538 13.5052 33.9538C13.3662 33.6062 13.2867 33.4374 13.1378 33.0898C13.0484 33.0898 13.0087 33.0998 12.9193 33.0998Z" fill="#373435"/>
<path d="M14.151 33.0625C14.151 33.3008 14.151 33.4299 14.151 33.6782C14.0119 33.4299 13.9424 33.3107 13.7836 33.0625C13.7041 33.0625 13.6644 33.0625 13.585 33.0724C13.5949 33.42 13.5949 33.5987 13.6148 33.9562C13.6843 33.9463 13.7141 33.9463 13.7836 33.9463C13.7736 33.698 13.7736 33.5689 13.7637 33.3207C13.9226 33.5689 14.002 33.6881 14.141 33.9463C14.2205 33.9463 14.2503 33.9463 14.3297 33.9463C14.3297 33.5888 14.3297 33.41 14.3396 33.0625C14.2602 33.0625 14.2304 33.0625 14.151 33.0625Z" fill="#373435"/>
<path d="M15.0738 33.0824C14.9149 33.2214 14.8454 33.2909 14.6965 33.4299C14.7064 33.281 14.7064 33.2114 14.7064 33.0625C14.6369 33.0625 14.5972 33.0625 14.5177 33.0625C14.5177 33.42 14.5078 33.5888 14.5078 33.9463C14.5773 33.9463 14.617 33.9463 14.6866 33.9463C14.6866 33.8271 14.6866 33.7675 14.6965 33.6583C14.7362 33.6186 14.7461 33.5987 14.7859 33.5689C14.8951 33.7278 14.9447 33.8072 15.044 33.9661C15.1433 33.9661 15.193 33.9761 15.2824 33.9761C15.1433 33.7576 15.0738 33.6484 14.9249 33.4398C15.0838 33.3008 15.1632 33.2313 15.3221 33.0923C15.2228 33.0923 15.1731 33.0824 15.0738 33.0824Z" fill="#373435"/>
<path d="M16.3154 33.8656C16.2657 33.9053 16.2061 33.9252 16.1366 33.9252C16.0572 33.9153 16.0075 33.8755 15.9678 33.816C15.9281 33.7663 15.9182 33.6869 15.9182 33.5876C15.9281 33.4883 15.9579 33.4088 16.0075 33.3592C16.0671 33.3095 16.1267 33.2897 16.2061 33.2996C16.2757 33.3095 16.3352 33.3493 16.375 33.4088C16.4147 33.4684 16.4246 33.5479 16.4147 33.6372C16.4047 33.7365 16.365 33.816 16.3154 33.8656ZM16.2161 33.1507C16.087 33.1308 15.9778 33.1606 15.9082 33.2202C15.8089 33.2897 15.7494 33.4088 15.7394 33.5677C15.7196 33.7266 15.7593 33.8458 15.8387 33.9451C15.8983 34.0146 15.9976 34.0642 16.1168 34.0741C16.2459 34.094 16.3452 34.0642 16.4147 34.0146C16.514 33.9351 16.5835 33.8259 16.6033 33.667C16.6232 33.5081 16.5835 33.379 16.514 33.2897C16.4445 33.2102 16.3551 33.1606 16.2161 33.1507Z" fill="#373435"/>
<path d="M16.6826 34.1238C16.7521 34.1338 16.7918 34.1437 16.8614 34.1536C16.8911 34.0047 16.9011 33.9352 16.9209 33.7862C17.0798 33.816 17.1593 33.8259 17.3181 33.8557C17.3281 33.7961 17.3281 33.7664 17.3479 33.7068C17.1791 33.677 17.0997 33.6671 16.9408 33.6373C16.9607 33.5578 16.9607 33.5181 16.9706 33.4387C17.1593 33.4685 17.2486 33.4784 17.4373 33.5181C17.4472 33.4585 17.4472 33.4287 17.4572 33.3592C17.199 33.3195 17.0699 33.2897 16.8018 33.25C16.7521 33.5975 16.7323 33.7763 16.6826 34.1238Z" fill="#373435"/>
<path d="M18.5004 33.59C18.4409 33.8283 18.4111 33.9574 18.3614 34.1958C18.2721 33.9177 18.2323 33.7787 18.133 33.5106C18.0536 33.4907 18.0139 33.4808 17.9344 33.4609C17.8649 33.8085 17.8351 33.9773 17.7656 34.3248C17.8252 34.3447 17.8649 34.3447 17.9344 34.3646C17.9841 34.1163 18.0139 33.9972 18.0635 33.7489C18.1529 34.0269 18.2025 34.166 18.282 34.444C18.3614 34.4639 18.3912 34.4738 18.4607 34.4937C18.5501 34.156 18.5898 33.9773 18.6792 33.6397C18.6097 33.6198 18.57 33.6099 18.5004 33.59Z" fill="#373435"/>
<path d="M18.8376 33.6758C18.7482 34.0233 18.7085 34.1921 18.6191 34.5298C18.6887 34.5496 18.7284 34.5595 18.7979 34.5794C18.8872 34.2418 18.9369 34.073 19.0263 33.7354C18.9468 33.7056 18.917 33.6956 18.8376 33.6758Z" fill="#373435"/>
<path d="M19.4633 34.4431C19.5427 34.4729 19.5824 34.4829 19.6619 34.5126C19.6321 34.5623 19.5924 34.602 19.5427 34.6219C19.4931 34.6417 19.4434 34.6417 19.3838 34.6219C19.3243 34.602 19.2746 34.5623 19.2349 34.5027C19.2051 34.4531 19.1952 34.3637 19.225 34.2644C19.2547 34.1552 19.3044 34.0857 19.364 34.0559C19.4236 34.0161 19.4931 34.0062 19.5626 34.036C19.6023 34.0459 19.6321 34.0658 19.6619 34.0857C19.7016 34.1254 19.7314 34.175 19.7215 34.2346C19.8009 34.2644 19.8307 34.2743 19.9002 34.3041C19.9201 34.2147 19.9002 34.1353 19.8505 34.0559C19.8009 33.9764 19.7215 33.9268 19.6023 33.8871C19.4732 33.8473 19.354 33.8473 19.2547 33.9069C19.1455 33.9665 19.076 34.0658 19.0363 34.2048C19.0065 34.3438 19.0164 34.463 19.0661 34.5623C19.1157 34.6616 19.1952 34.7311 19.3143 34.7609C19.3838 34.7907 19.4434 34.7907 19.4931 34.7808C19.5328 34.7708 19.5725 34.751 19.6122 34.7212C19.6122 34.7708 19.6122 34.7907 19.6023 34.8403C19.6519 34.8503 19.6718 34.8602 19.7215 34.8801C19.781 34.7013 19.8108 34.6119 19.8704 34.4233C19.7215 34.3736 19.6519 34.3538 19.503 34.3041C19.4831 34.3637 19.4732 34.3935 19.4633 34.4431Z" fill="#373435"/>
<path d="M20.3077 34.314C20.4964 34.3835 20.5857 34.4232 20.7744 34.5027C20.7943 34.4431 20.8042 34.4133 20.824 34.3537C20.5659 34.2445 20.4368 34.1948 20.1786 34.1055C20.0594 34.4332 20.0098 34.602 19.8906 34.9396C20.1488 35.029 20.2779 35.0786 20.5361 35.1878C20.5559 35.1283 20.5659 35.0985 20.5857 35.0389C20.407 34.9594 20.3077 34.9197 20.119 34.8502C20.1488 34.7708 20.1687 34.7211 20.1985 34.6417C20.3573 34.7013 20.4467 34.7311 20.6155 34.8006C20.6354 34.741 20.6453 34.7112 20.6652 34.6615C20.4964 34.592 20.4169 34.5622 20.2481 34.4927C20.268 34.4232 20.2779 34.3934 20.3077 34.314Z" fill="#373435"/>
<path d="M21.3103 34.968C21.2905 34.968 21.2607 34.9581 21.221 34.9382C21.1415 34.9084 21.1018 34.8886 21.0224 34.8588C21.0621 34.7694 21.0819 34.7297 21.1117 34.6403C21.1912 34.6701 21.2309 34.69 21.3103 34.7297C21.35 34.7396 21.3798 34.7595 21.3898 34.7794C21.4196 34.8091 21.4196 34.8489 21.3997 34.8985C21.3798 34.9482 21.35 34.968 21.3103 34.968ZM21.5089 35.0574C21.5486 35.0276 21.5685 34.9978 21.5884 34.9581C21.5983 34.9283 21.6082 34.8985 21.6082 34.8687C21.6082 34.8389 21.6082 34.8091 21.5983 34.7794C21.5884 34.7396 21.5685 34.7098 21.5387 34.6801C21.5089 34.6602 21.4692 34.6304 21.4096 34.6006C21.2408 34.5311 21.1614 34.4914 20.9926 34.4219C20.8635 34.7496 20.8039 34.9084 20.6748 35.2361C20.7443 35.2659 20.7741 35.2858 20.8436 35.3156C20.8933 35.1865 20.9231 35.117 20.9727 34.9879C21.0422 35.0177 21.072 35.0375 21.1415 35.0673C21.1912 35.0872 21.221 35.117 21.2309 35.1368C21.2507 35.1666 21.2408 35.2063 21.221 35.256C21.211 35.2858 21.2011 35.2957 21.1912 35.3255C21.1812 35.3553 21.1713 35.3752 21.1614 35.4049C21.1614 35.4149 21.1614 35.4347 21.1614 35.4546C21.2309 35.4844 21.2706 35.5042 21.35 35.544L21.36 35.5241C21.35 35.5042 21.3401 35.4844 21.35 35.4546C21.35 35.4447 21.36 35.4149 21.3699 35.3851C21.3798 35.3553 21.3898 35.3454 21.3997 35.3255C21.4196 35.2659 21.4295 35.2262 21.4295 35.1865C21.4295 35.1567 21.4096 35.117 21.3699 35.0872C21.4295 35.0971 21.4692 35.0872 21.5089 35.0574Z" fill="#373435"/>
<path d="M21.8467 34.7969C21.7077 35.1246 21.6283 35.2834 21.4893 35.6012C21.5588 35.631 21.5886 35.6509 21.6581 35.6806C21.807 35.3629 21.8765 35.204 22.0255 34.8862C21.956 34.8565 21.9162 34.8366 21.8467 34.7969Z" fill="#373435"/>
<path d="M22.3924 35.6895C22.3129 35.6498 22.2732 35.63 22.1838 35.5803C22.2931 35.481 22.3427 35.4314 22.442 35.3321C22.4321 35.4711 22.4122 35.5505 22.3924 35.6895ZM21.7568 35.7392C21.8263 35.769 21.8661 35.7888 21.9356 35.8286C21.9952 35.769 22.015 35.7491 22.0746 35.6895C22.1938 35.7591 22.2533 35.7888 22.3725 35.8484C22.3626 35.9279 22.3526 35.9676 22.3427 36.047C22.4122 36.0867 22.4519 36.1066 22.5214 36.1463C22.581 35.769 22.6009 35.5803 22.6406 35.203C22.5612 35.1633 22.5214 35.1434 22.442 35.0938C22.164 35.3519 22.0249 35.4711 21.7568 35.7392Z" fill="#373435"/>
<path d="M8.04393 20.5366C5.25361 20.5863 4.11166 19.494 3.04915 18.0045C1.98665 16.515 2.79097 14.4992 2.79097 14.4297C2.79097 14.4297 2.95978 15.4227 2.92999 15.7107C2.91013 15.9986 2.503 16.2767 3.78397 18.3123C5.06494 20.3579 6.86226 19.8018 7.66659 19.7621C8.47092 19.7125 8.30211 19.355 8.54043 19.2656C8.77875 19.1663 9.41426 19.9508 9.41426 19.9508C9.41426 19.9508 10.8342 20.4969 8.04393 20.5366ZM9.06672 10.5272C10.298 10.8648 12.3337 14.0524 12.711 14.241C13.0884 14.4297 13.2472 14.6184 13.0884 14.7177C12.9195 14.807 12.0854 14.5985 11.6584 14.5985C11.2414 14.5985 10.9534 14.4595 10.9335 14.241C10.9137 14.0325 11.0726 13.109 10.5562 12.4735C10.0299 11.8281 9.20573 10.5272 7.37862 10.5272C6.95163 10.5272 6.45513 10.5272 6.45513 10.5272C6.45513 10.5272 7.52757 10.1002 9.06672 10.5272ZM10.9335 20.3976C10.9832 20.0401 9.37454 18.7393 9.37454 18.7393L8.89791 18.4811C8.89791 18.4811 6.96156 19.8316 5.27347 18.7691C3.5953 17.6967 3.54565 16.1575 4.00243 14.2013C4.44928 12.2352 6.4452 11.5004 6.55443 11.4408C7.25946 11.0535 8.04393 11.2422 9.03693 11.838C10.0299 12.4338 10.3179 13.3672 10.298 13.7942C10.2682 14.2212 10.4073 14.8567 10.7151 15.0255C11.0229 15.1943 12.8302 15.5419 13.5551 15.5915C14.28 15.6412 13.9821 14.8865 13.9125 14.4297C13.843 13.9829 12.284 12.5629 11.291 11.4408C10.298 10.3286 9.13622 9.41507 6.92184 9.6236C4.70746 9.84206 3.54565 11.4011 2.69167 12.5132C1.84763 13.6254 1.61924 16.0483 2.38384 17.9846C3.15838 19.9111 5.11459 20.8743 6.13737 21.1821C7.17009 21.4899 9.60293 21.1324 10.298 21.0629C10.9832 20.9934 10.8839 20.7551 10.9335 20.3976Z" fill="#D8B58F"/>
<path d="M25.1928 18.0045C24.1303 19.494 22.9983 20.5863 20.198 20.5366C17.4077 20.4969 18.8277 19.9508 18.8277 19.9508C18.8277 19.9508 19.4632 19.1663 19.7015 19.2656C19.9399 19.355 19.7711 19.7125 20.5754 19.7621C21.3896 19.8018 23.177 20.3579 24.458 18.3123C25.7489 16.2767 25.3418 15.9986 25.312 15.7107C25.2921 15.4227 25.451 14.4297 25.451 14.4297C25.451 14.4992 26.2653 16.515 25.1928 18.0045ZM20.8634 10.5272C19.0462 10.5272 18.2121 11.8281 17.6957 12.4735C17.1694 13.109 17.3382 14.0325 17.3184 14.241C17.2886 14.4595 17.0105 14.5985 16.5835 14.5985C16.1665 14.5985 15.3224 14.807 15.1636 14.7177C14.9947 14.6184 15.1635 14.4297 15.5409 14.241C15.9182 14.0524 17.9539 10.8648 19.1852 10.5272C20.7243 10.1002 21.7868 10.5272 21.7868 10.5272C21.7868 10.5272 21.3003 10.5272 20.8634 10.5272ZM25.5503 12.5132C24.6963 11.4011 23.5444 9.84206 21.3301 9.6236C19.1157 9.41507 17.9539 10.3286 16.9609 11.4408C15.9679 12.5629 14.3989 13.9829 14.3294 14.4297C14.2599 14.8865 13.962 15.6412 14.6968 15.5915C15.4217 15.5419 17.2191 15.1943 17.5269 15.0255C17.8347 14.8567 17.9737 14.2212 17.9539 13.7942C17.9241 13.3672 18.2121 12.4338 19.205 11.838C20.198 11.2422 20.9924 11.0535 21.6875 11.4408C21.7968 11.5004 23.8026 12.2352 24.2495 14.2013C24.6963 16.1575 24.6566 17.6967 22.9685 18.7691C21.2903 19.8316 19.354 18.4811 19.354 18.4811L18.8774 18.7393C18.8774 18.7393 17.2687 20.0401 17.3184 20.3976C17.3581 20.7551 17.2687 20.9934 17.9539 21.0629C18.639 21.1324 21.0818 21.4899 22.1046 21.1821C23.1373 20.8743 25.0836 19.9111 25.8581 17.9846C26.6327 16.0483 26.4043 13.6254 25.5503 12.5132Z" fill="#D8B58F"/>
<path d="M18.8777 26.8575C18.6791 28.3768 17.9344 29.1613 17.9344 29.1613C17.9344 29.1613 18.1131 28.7244 18.272 28.347C18.9274 26.7285 18.133 25.4971 17.7854 24.7921C17.4379 24.097 16.6037 23.8885 16.4349 23.7892C16.2661 23.6899 16.2463 23.3821 16.3952 23.0047C16.5541 22.6373 16.6733 21.8131 16.8123 21.7039C16.9513 21.5947 17.0506 21.8131 17.0705 22.2202C17.1002 22.6274 19.0366 25.6362 18.8777 26.8575ZM10.4273 29.3301C9.5634 27.8208 9.05697 26.4008 10.1095 23.9481C11.1522 21.4954 11.1025 22.9551 11.1025 22.9551C11.1025 22.9551 11.5196 23.819 11.3607 23.9977C11.1919 24.1665 10.9536 23.8885 10.6259 24.5836C10.2982 25.2687 9.18606 26.649 10.4372 28.5655C11.6785 30.4721 12.0658 30.2139 12.314 30.3032C12.5523 30.3926 13.3269 30.9189 13.3269 30.9189C13.2673 30.8891 11.2912 30.8395 10.4273 29.3301ZM17.3485 21.0783C17.0009 20.84 16.4747 20.2938 16.2463 20.9591C16.0278 21.6145 15.6703 23.3423 15.7001 23.68C15.7299 24.0176 16.2165 24.385 16.5839 24.524C16.9414 24.663 18.699 26.4901 16.6832 29.062C16.6037 29.1514 15.7796 30.2933 13.9624 29.9358C12.1551 29.5883 10.8841 28.9627 10.5961 27.076C10.3081 25.1794 12.1452 23.9779 12.1452 23.9779L12.0955 23.4615C12.0955 23.4615 11.5792 21.5351 11.2714 21.4457C10.9536 21.3563 10.7848 21.1776 10.477 21.7635C10.1691 22.3394 8.99739 24.3651 8.87823 25.3879C8.769 26.4206 8.85837 28.5059 10.2088 29.9259C11.5494 31.336 13.6645 32.0608 14.9057 31.7332C16.147 31.3955 17.8748 30.9686 18.8579 29.0918C19.831 27.215 19.4934 25.8447 18.9075 24.5339C18.3316 23.2331 17.706 21.3067 17.3485 21.0783Z" fill="#D8B58F"/>
</svg>
