<svg width="356" height="164" viewBox="0 0 356 164" fill="none" xmlns="http://www.w3.org/2000/svg">
<path d="M75.3901 154.874C66.8784 149.327 60.6896 139.356 61.9562 129.275C69.6205 137.233 79.8525 142.223 90.8419 143.363C95.0816 143.787 99.8414 143.818 102.852 146.833C104.726 148.709 105.522 151.451 105.563 154.101C105.604 156.752 104.967 159.362 104.334 161.936L104.489 162.58C94.3366 162.204 83.9018 160.421 75.3901 154.874Z" fill="#F0F0F0"/>
<path d="M62.1693 129.274C65.3534 137.057 70.9088 143.639 78.0467 148.085C79.5663 149.07 81.2316 149.809 82.9813 150.274C84.7004 150.673 86.4948 150.604 88.1783 150.075C89.7578 149.613 91.32 148.957 92.9844 148.887C93.8369 148.864 94.6846 149.021 95.472 149.349C96.2595 149.676 96.9688 150.166 97.5535 150.787C99.0507 152.296 99.9164 154.253 100.696 156.196C101.563 158.354 102.428 160.608 104.192 162.206C104.406 162.4 104.093 162.72 103.879 162.527C100.81 159.747 100.473 155.286 98.0602 152.061C96.9346 150.556 95.3486 149.381 93.4096 149.331C91.7141 149.288 90.1025 149.962 88.5073 150.444C86.8726 150.985 85.1304 151.117 83.433 150.829C81.6653 150.453 79.9743 149.78 78.4325 148.837C74.9275 146.771 71.7692 144.166 69.0735 141.118C65.9775 137.656 63.4964 133.691 61.7376 129.393C61.6289 129.127 62.0613 129.01 62.1693 129.274H62.1693Z" fill="white"/>
<path d="M75.664 146.789C74.7555 147.886 73.4868 148.623 72.0846 148.871C70.6824 149.118 69.238 148.859 68.0093 148.139C67.7611 147.993 67.977 147.6 68.2255 147.747C69.3684 148.419 70.7139 148.66 72.0192 148.427C73.3245 148.194 74.5035 147.503 75.3434 146.477C75.5262 146.254 75.8458 146.568 75.664 146.789V146.789Z" fill="white"/>
<path d="M87.4082 150.414C87.1627 147.514 85.8331 144.813 83.6845 142.85C83.4714 142.655 83.7843 142.335 83.9971 142.529C86.2291 144.576 87.6071 147.39 87.8559 150.409C87.8794 150.697 87.4316 150.701 87.4082 150.414Z" fill="white"/>
<path d="M66.5407 137.468C66.9806 137.118 67.3264 136.663 67.5472 136.145C67.768 135.628 67.8567 135.063 67.8054 134.503C67.7783 134.215 68.2262 134.212 68.2532 134.497C68.3069 135.117 68.2082 135.74 67.9655 136.312C67.7229 136.885 67.3438 137.389 66.8613 137.781C66.8189 137.822 66.7626 137.845 66.7038 137.846C66.6449 137.846 66.5881 137.825 66.5447 137.785C66.5024 137.743 66.4783 137.687 66.4776 137.628C66.4768 137.568 66.4995 137.511 66.5407 137.468Z" fill="white"/>
<path d="M90.9906 110.828C91.0126 111.007 91.0347 111.186 91.0601 111.367C91.3691 113.77 91.8728 116.145 92.5664 118.467C92.6172 118.648 92.6714 118.83 92.7272 119.008C94.4578 124.585 97.2088 129.792 100.84 134.365C102.287 136.183 103.87 137.889 105.575 139.467C107.931 141.646 110.658 143.821 112.113 146.571C112.268 146.856 112.406 147.15 112.524 147.452L105.262 162.339C105.229 162.365 105.199 162.392 105.165 162.418L104.902 163.026C104.809 162.951 104.713 162.87 104.62 162.795C104.565 162.752 104.512 162.705 104.458 162.662C104.422 162.632 104.386 162.601 104.352 162.576C104.34 162.567 104.328 162.556 104.32 162.548C104.286 162.523 104.257 162.496 104.226 162.473C103.691 162.027 103.158 161.576 102.627 161.121C102.624 161.12 102.624 161.12 102.622 161.115C98.5875 157.637 94.8077 153.792 91.7317 149.495C91.6392 149.366 91.5432 149.235 91.454 149.099C90.0782 147.155 88.8636 145.101 87.8224 142.959C87.2561 141.784 86.7496 140.581 86.3048 139.355C85.1618 136.185 84.5245 132.854 84.4164 129.486C84.2018 122.771 86.1371 116.063 90.6427 111.197C90.758 111.072 90.8718 110.951 90.9906 110.828Z" fill="#F0F0F0"/>
<path d="M91.163 110.954C89.0192 119.086 89.4921 127.686 92.5144 135.533C93.1351 137.234 94.0199 138.827 95.1365 140.252C96.269 141.606 97.7432 142.631 99.4061 143.222C100.945 143.804 102.587 144.221 103.958 145.167C104.653 145.662 105.235 146.298 105.667 147.033C106.098 147.769 106.37 148.587 106.463 149.435C106.75 151.541 106.263 153.625 105.716 155.646C105.108 157.89 104.442 160.211 104.888 162.549C104.942 162.833 104.5 162.9 104.446 162.617C103.669 158.55 106.085 154.785 106.101 150.757C106.108 148.878 105.549 146.985 104.031 145.778C102.703 144.722 101.01 144.291 99.4464 143.715C97.8158 143.162 96.3454 142.219 95.1635 140.967C93.978 139.603 93.0332 138.047 92.3697 136.366C90.8155 132.606 89.8622 128.624 89.5447 124.568C89.1567 119.94 89.5632 115.28 90.7466 110.789C90.82 110.511 91.2359 110.678 91.163 110.954Z" fill="white"/>
<path d="M91.3925 133.065C90.007 133.393 88.5499 133.218 87.2815 132.572C86.013 131.925 85.0158 130.848 84.4678 129.534C84.3579 129.268 84.7665 129.084 84.8766 129.351C85.3846 130.576 86.3136 131.579 87.4961 132.178C88.6785 132.778 90.0364 132.936 91.3247 132.622C91.6047 132.555 91.6709 132.998 91.3925 133.065V133.065Z" fill="white"/>
<path d="M98.5867 143.029C100.137 140.566 100.701 137.609 100.168 134.747C100.115 134.464 100.558 134.396 100.611 134.68C101.16 137.658 100.566 140.734 98.9476 143.294C98.7931 143.538 98.433 143.272 98.5867 143.029Z" fill="white"/>
<path d="M89.7191 120.13C90.2817 120.115 90.8316 119.96 91.3195 119.679C91.8074 119.399 92.2181 119.002 92.5146 118.523C92.6658 118.278 93.0258 118.544 92.8755 118.788C92.5454 119.315 92.0914 119.754 91.553 120.065C91.0146 120.376 90.4083 120.55 89.7869 120.573C89.7285 120.58 89.6697 120.564 89.6223 120.529C89.5749 120.494 89.5425 120.443 89.5317 120.385C89.523 120.326 89.5379 120.267 89.573 120.219C89.608 120.171 89.6606 120.139 89.7191 120.13H89.7191Z" fill="white"/>
<path d="M335.148 154.874C343.66 149.327 349.849 139.356 348.582 129.275C340.918 137.233 330.686 142.223 319.696 143.363C315.457 143.787 310.697 143.818 307.686 146.833C305.812 148.709 305.016 151.451 304.976 154.101C304.935 156.752 305.572 159.362 306.204 161.936L306.049 162.58C316.202 162.204 326.636 160.421 335.148 154.874Z" fill="#F0F0F0"/>
<path d="M348.369 129.274C345.185 137.057 339.629 143.639 332.491 148.085C330.972 149.07 329.306 149.809 327.557 150.274C325.838 150.673 324.043 150.604 322.36 150.075C320.78 149.613 319.218 148.957 317.554 148.887C316.701 148.864 315.853 149.021 315.066 149.349C314.278 149.676 313.569 150.166 312.984 150.787C311.487 152.296 310.622 154.253 309.841 156.196C308.975 158.354 308.11 160.608 306.346 162.206C306.132 162.4 306.445 162.72 306.659 162.527C309.728 159.747 310.065 155.286 312.478 152.061C313.603 150.556 315.189 149.381 317.128 149.331C318.824 149.288 320.435 149.962 322.031 150.444C323.665 150.985 325.407 151.117 327.105 150.829C328.873 150.453 330.564 149.78 332.105 148.837C335.61 146.771 338.769 144.166 341.464 141.118C344.56 137.656 347.041 133.691 348.8 129.393C348.909 129.127 348.477 129.01 348.369 129.274H348.369Z" fill="white"/>
<path d="M334.874 146.789C335.782 147.886 337.051 148.623 338.453 148.871C339.856 149.118 341.3 148.859 342.529 148.139C342.777 147.993 342.561 147.6 342.312 147.747C341.17 148.419 339.824 148.66 338.519 148.427C337.213 148.194 336.034 147.503 335.195 146.477C335.012 146.254 334.692 146.568 334.874 146.789V146.789Z" fill="white"/>
<path d="M323.13 150.414C323.375 147.514 324.705 144.813 326.853 142.85C327.066 142.655 326.754 142.335 326.541 142.529C324.309 144.576 322.931 147.39 322.682 150.409C322.659 150.697 323.106 150.701 323.13 150.414Z" fill="white"/>
<path d="M343.997 137.468C343.557 137.118 343.212 136.663 342.991 136.145C342.77 135.628 342.681 135.063 342.733 134.503C342.76 134.215 342.312 134.212 342.285 134.497C342.231 135.117 342.33 135.74 342.572 136.312C342.815 136.885 343.194 137.389 343.677 137.781C343.719 137.822 343.775 137.845 343.834 137.846C343.893 137.846 343.95 137.825 343.993 137.785C344.036 137.743 344.06 137.687 344.06 137.628C344.061 137.568 344.038 137.511 343.997 137.468Z" fill="white"/>
<path d="M319.548 110.828C319.526 111.007 319.504 111.186 319.478 111.367C319.169 113.77 318.666 116.145 317.972 118.467C317.921 118.648 317.867 118.83 317.811 119.008C316.081 124.585 313.33 129.792 309.698 134.365C308.251 136.183 306.668 137.889 304.963 139.467C302.608 141.646 299.88 143.821 298.425 146.571C298.27 146.856 298.133 147.15 298.014 147.452L305.276 162.339C305.31 162.365 305.34 162.392 305.373 162.418L305.636 163.026C305.73 162.95 305.825 162.87 305.919 162.795C305.973 162.752 306.026 162.705 306.081 162.662C306.117 162.632 306.152 162.601 306.186 162.576C306.198 162.566 306.21 162.556 306.219 162.548C306.253 162.523 306.282 162.496 306.312 162.473C306.848 162.027 307.38 161.576 307.911 161.121C307.915 161.12 307.915 161.12 307.916 161.115C311.951 157.637 315.731 153.792 318.807 149.495C318.899 149.366 318.995 149.235 319.084 149.099C320.46 147.155 321.675 145.101 322.716 142.959C323.282 141.784 323.789 140.581 324.234 139.355C325.377 136.185 326.014 132.854 326.122 129.486C326.337 122.771 324.401 116.063 319.896 111.197C319.78 111.072 319.667 110.951 319.548 110.828Z" fill="#F0F0F0"/>
<path d="M319.375 110.954C321.519 119.086 321.046 127.686 318.024 135.533C317.403 137.234 316.518 138.827 315.402 140.252C314.269 141.606 312.795 142.631 311.132 143.222C309.593 143.804 307.951 144.221 306.58 145.167C305.885 145.662 305.303 146.298 304.871 147.033C304.44 147.769 304.168 148.587 304.075 149.435C303.788 151.541 304.275 153.625 304.822 155.646C305.43 157.89 306.096 160.211 305.65 162.549C305.596 162.833 306.038 162.9 306.092 162.617C306.869 158.55 304.453 154.785 304.438 150.757C304.43 148.878 304.989 146.985 306.507 145.778C307.835 144.722 309.528 144.291 311.092 143.715C312.722 143.162 314.193 142.219 315.375 140.967C316.56 139.603 317.505 138.047 318.168 136.366C319.723 132.606 320.676 128.624 320.993 124.568C321.381 119.94 320.975 115.28 319.791 110.789C319.718 110.511 319.302 110.678 319.375 110.954Z" fill="white"/>
<path d="M319.145 133.065C320.531 133.393 321.988 133.218 323.256 132.572C324.525 131.925 325.522 130.848 326.07 129.534C326.18 129.268 325.771 129.084 325.661 129.351C325.153 130.576 324.224 131.579 323.042 132.178C321.859 132.778 320.501 132.936 319.213 132.622C318.933 132.555 318.867 132.998 319.145 133.065V133.065Z" fill="white"/>
<path d="M311.951 143.029C310.401 140.566 309.837 137.609 310.37 134.747C310.423 134.464 309.98 134.396 309.927 134.68C309.378 137.658 309.972 140.734 311.59 143.294C311.745 143.538 312.105 143.272 311.951 143.029Z" fill="white"/>
<path d="M320.819 120.13C320.256 120.115 319.706 119.96 319.218 119.679C318.73 119.399 318.32 119.002 318.023 118.523C317.872 118.278 317.512 118.544 317.662 118.788C317.992 119.315 318.446 119.754 318.985 120.065C319.523 120.376 320.13 120.55 320.751 120.573C320.809 120.58 320.868 120.564 320.916 120.529C320.963 120.494 320.995 120.443 321.006 120.385C321.015 120.326 321 120.267 320.965 120.219C320.93 120.171 320.877 120.139 320.819 120.13H320.819Z" fill="white"/>
<path d="M92.1548 105.958C91.8327 105.764 91.5571 105.502 91.3473 105.19C91.1375 104.878 90.9986 104.524 90.9405 104.153C90.8823 103.781 90.9063 103.402 91.0107 103.041C91.1151 102.68 91.2974 102.346 91.5448 102.063L87.0171 94.127L91.7551 94.433L95.3283 101.922C95.7761 102.369 96.0445 102.965 96.0824 103.597C96.1203 104.228 95.9252 104.852 95.534 105.349C95.1428 105.847 94.5827 106.184 93.9599 106.296C93.3371 106.408 92.6948 106.287 92.1548 105.958Z" fill="#FFB6B6"/>
<path d="M57.3002 160.057H60.435L61.9262 147.967L57.2998 147.967L57.3002 160.057Z" fill="#FFB6B6"/>
<path d="M56.501 159.033L62.674 159.033H62.6743C63.7176 159.033 64.7182 159.448 65.4559 160.185C66.1937 160.923 66.6082 161.924 66.6083 162.967V163.095L56.5011 163.095L56.501 159.033Z" fill="#2F2E41"/>
<path d="M78.7776 160.057H81.912L83.4033 147.967L78.7769 147.967L78.7776 160.057Z" fill="#FFB6B6"/>
<path d="M77.9775 159.033L84.1506 159.033H84.1509C85.1942 159.033 86.1948 159.448 86.9325 160.185C87.6703 160.923 88.0848 161.924 88.0848 162.967V163.095L77.9777 163.095L77.9775 159.033Z" fill="#2F2E41"/>
<path d="M86.8374 94.4668C86.8374 94.4668 87.6996 106.745 86.0015 112.928C84.3034 119.112 84.0002 156.506 84.0002 156.506H78.3084L73.3751 105.605L62.0021 156.686L56.5806 156.313L59.5538 96.1206L86.8374 94.4668Z" fill="#2F2E41"/>
<path d="M61.906 53.0795L66.2573 49.9043L73.5484 51.4919L75.5221 56.1816L78.923 57.8678C80.0413 58.4222 81.0082 59.2399 81.7406 60.2505C82.4731 61.2611 82.9492 62.4344 83.1281 63.6697L87.9867 97.2209L59.5539 96.1218L56.1118 56.6087C56.0758 56.196 56.123 55.7802 56.2506 55.386C56.3782 54.9918 56.5836 54.6273 56.8545 54.3138C57.1255 54.0004 57.4566 53.7446 57.8282 53.5614C58.1999 53.3782 58.6044 53.2714 59.0181 53.2474L61.906 53.0795Z" fill="#0267FD"/>
<path d="M80.7222 60.4883L83.3483 64.0282L94.7862 98.9141L89.4248 101.061L80.8397 84.8047L80.7222 60.4883Z" fill="#0267FD"/>
<path d="M71.203 48.2459C74.7103 48.2459 77.5535 45.4027 77.5535 41.8954C77.5535 38.3881 74.7103 35.5449 71.203 35.5449C67.6958 35.5449 64.8525 38.3881 64.8525 41.8954C64.8525 45.4027 67.6958 48.2459 71.203 48.2459Z" fill="#FFB9B9"/>
<path opacity="0.1" d="M57.3589 68.0234L67.722 82.437L79.3058 89.9908L57.3589 68.0234Z" fill="black"/>
<path d="M67.8375 46.4875C67.3958 45.6055 66.9413 44.6455 67.1102 43.6737C67.279 42.7019 68.3942 41.8551 69.255 42.3369C69.6121 41.0464 71.1929 40.4816 72.5237 40.6305C73.8544 40.7795 75.0797 41.4214 76.3901 41.697C77.7005 41.9725 79.2919 41.7539 80.0001 40.6175L78.3055 40.5882L80.0702 38.5414L78.0246 38.3884C78.7332 37.6237 78.5449 36.3246 77.859 35.5396C77.1731 34.7545 76.1323 34.3831 75.1166 34.1482C73.0891 33.6809 70.9874 33.6326 68.9406 34.0063C67.9755 34.155 67.0456 34.4786 66.1966 34.9611C65.3972 35.4487 64.7366 36.1338 64.2784 36.9505C63.7841 37.8718 63.5169 38.8979 63.499 39.9433C63.4688 41.3437 63.7906 42.7292 64.4348 43.9729C65.0791 45.2166 66.0252 46.2788 67.1864 47.062" fill="#2F2E41"/>
<path d="M304.285 163.258H107.208C105.178 163.256 103.233 162.449 101.797 161.014C100.362 159.579 99.5551 157.633 99.5527 155.604V7.65496C99.5551 5.62542 100.362 3.67967 101.797 2.24459C103.233 0.809502 105.178 0.00227849 107.208 0H304.285C306.315 0.00231452 308.26 0.809557 309.696 2.24464C311.131 3.67972 311.938 5.62545 311.94 7.65496V155.604C311.938 157.633 311.131 159.579 309.696 161.014C308.26 162.449 306.315 163.256 304.285 163.258Z" fill="#E4E4E4"/>
<path d="M254.685 67.9292H224.263C222.76 67.9292 221.318 67.332 220.255 66.2689C219.191 65.2058 218.594 63.7639 218.594 62.2605C218.594 60.7571 219.191 59.3152 220.255 58.2521C221.318 57.189 222.76 56.5918 224.263 56.5918H254.685C256.188 56.5918 257.63 57.189 258.693 58.2521C259.757 59.3152 260.354 60.7571 260.354 62.2605C260.354 63.7639 259.757 65.2058 258.693 66.2689C257.63 67.332 256.188 67.9292 254.685 67.9292Z" fill="white"/>
<path d="M228.042 83.4246H220.862C220.31 83.4246 219.782 83.2056 219.392 82.8158C219.002 82.426 218.783 81.8974 218.783 81.3461C218.783 80.7948 219.002 80.2662 219.392 79.8764C219.782 79.4866 220.31 79.2676 220.862 79.2676H228.042C228.593 79.2676 229.122 79.4866 229.512 79.8764C229.902 80.2662 230.121 80.7948 230.121 81.3461C230.121 81.8974 229.902 82.426 229.512 82.8158C229.122 83.2056 228.593 83.4246 228.042 83.4246Z" fill="white"/>
<path d="M257.897 83.4246H250.717C250.165 83.4246 249.637 83.2056 249.247 82.8158C248.857 82.426 248.638 81.8974 248.638 81.3461C248.638 80.7948 248.857 80.2662 249.247 79.8764C249.637 79.4866 250.165 79.2676 250.717 79.2676H257.897C258.448 79.2676 258.977 79.4866 259.367 79.8764C259.757 80.2662 259.976 80.7948 259.976 81.3461C259.976 81.8974 259.757 82.426 259.367 82.8158C258.977 83.2056 258.448 83.4246 257.897 83.4246Z" fill="white"/>
<path d="M242.78 83.4246H235.6C235.049 83.4246 234.52 83.2056 234.13 82.8158C233.74 82.426 233.521 81.8974 233.521 81.3461C233.521 80.7948 233.74 80.2662 234.13 79.8764C234.52 79.4866 235.049 79.2676 235.6 79.2676H242.78C243.332 79.2676 243.86 79.4866 244.25 79.8764C244.64 80.2662 244.859 80.7948 244.859 81.3461C244.859 81.8974 244.64 82.426 244.25 82.8158C243.86 83.2056 243.332 83.4246 242.78 83.4246Z" fill="white"/>
<path d="M228.042 91.3602H220.862C220.31 91.3602 219.782 91.1412 219.392 90.7514C219.002 90.3616 218.783 89.8329 218.783 89.2816C218.783 88.7304 219.002 88.2017 219.392 87.8119C219.782 87.4221 220.31 87.2031 220.862 87.2031H228.042C228.593 87.2031 229.122 87.4221 229.512 87.8119C229.902 88.2017 230.121 88.7304 230.121 89.2816C230.121 89.8329 229.902 90.3616 229.512 90.7514C229.122 91.1412 228.593 91.3602 228.042 91.3602Z" fill="white"/>
<path d="M257.897 91.3602H250.717C250.165 91.3602 249.637 91.1412 249.247 90.7514C248.857 90.3616 248.638 89.8329 248.638 89.2816C248.638 88.7304 248.857 88.2017 249.247 87.8119C249.637 87.4221 250.165 87.2031 250.717 87.2031H257.897C258.448 87.2031 258.977 87.4221 259.367 87.8119C259.757 88.2017 259.976 88.7304 259.976 89.2816C259.976 89.8329 259.757 90.3616 259.367 90.7514C258.977 91.1412 258.448 91.3602 257.897 91.3602Z" fill="white"/>
<path d="M242.78 91.3602H235.6C235.049 91.3602 234.52 91.1412 234.13 90.7514C233.74 90.3616 233.521 89.8329 233.521 89.2816C233.521 88.7304 233.74 88.2017 234.13 87.8119C234.52 87.4221 235.049 87.2031 235.6 87.2031H242.78C243.332 87.2031 243.86 87.4221 244.25 87.8119C244.64 88.2017 244.859 88.7304 244.859 89.2816C244.859 89.8329 244.64 90.3616 244.25 90.7514C243.86 91.1412 243.332 91.3602 242.78 91.3602Z" fill="white"/>
<path d="M228.042 99.2977H220.862C220.31 99.2977 219.782 99.0787 219.392 98.6889C219.002 98.2991 218.783 97.7704 218.783 97.2191C218.783 96.6679 219.002 96.1392 219.392 95.7494C219.782 95.3596 220.31 95.1406 220.862 95.1406H228.042C228.593 95.1406 229.122 95.3596 229.512 95.7494C229.902 96.1392 230.121 96.6679 230.121 97.2191C230.121 97.7704 229.902 98.2991 229.512 98.6889C229.122 99.0787 228.593 99.2977 228.042 99.2977Z" fill="white"/>
<path d="M257.897 99.2977H250.717C250.165 99.2977 249.637 99.0787 249.247 98.6889C248.857 98.2991 248.638 97.7704 248.638 97.2191C248.638 96.6679 248.857 96.1392 249.247 95.7494C249.637 95.3596 250.165 95.1406 250.717 95.1406H257.897C258.448 95.1406 258.977 95.3596 259.367 95.7494C259.757 96.1392 259.976 96.6679 259.976 97.2191C259.976 97.7704 259.757 98.2991 259.367 98.6889C258.977 99.0787 258.448 99.2977 257.897 99.2977Z" fill="white"/>
<path d="M242.78 99.2977H235.6C235.049 99.2977 234.52 99.0787 234.13 98.6889C233.74 98.2991 233.521 97.7704 233.521 97.2191C233.521 96.6679 233.74 96.1392 234.13 95.7494C234.52 95.3596 235.049 95.1406 235.6 95.1406H242.78C243.332 95.1406 243.86 95.3596 244.25 95.7494C244.64 96.1392 244.859 96.6679 244.859 97.2191C244.859 97.7704 244.64 98.2991 244.25 98.6889C243.86 99.0787 243.332 99.2977 242.78 99.2977Z" fill="white"/>
<path d="M228.042 107.233H220.862C220.31 107.233 219.782 107.014 219.392 106.624C219.002 106.235 218.783 105.706 218.783 105.155C218.783 104.603 219.002 104.075 219.392 103.685C219.782 103.295 220.31 103.076 220.862 103.076H228.042C228.593 103.076 229.122 103.295 229.512 103.685C229.902 104.075 230.121 104.603 230.121 105.155C230.121 105.706 229.902 106.235 229.512 106.624C229.122 107.014 228.593 107.233 228.042 107.233Z" fill="white"/>
<path d="M257.897 107.233H250.717C250.165 107.233 249.637 107.014 249.247 106.624C248.857 106.235 248.638 105.706 248.638 105.155C248.638 104.603 248.857 104.075 249.247 103.685C249.637 103.295 250.165 103.076 250.717 103.076H257.897C258.448 103.076 258.977 103.295 259.367 103.685C259.757 104.075 259.976 104.603 259.976 105.155C259.976 105.706 259.757 106.235 259.367 106.624C258.977 107.014 258.448 107.233 257.897 107.233Z" fill="white"/>
<path d="M242.78 107.233H235.6C235.049 107.233 234.52 107.014 234.13 106.624C233.74 106.235 233.521 105.706 233.521 105.155C233.521 104.603 233.74 104.075 234.13 103.685C234.52 103.295 235.049 103.076 235.6 103.076H242.78C243.332 103.076 243.86 103.295 244.25 103.685C244.64 104.075 244.859 104.603 244.859 105.155C244.859 105.706 244.64 106.235 244.25 106.624C243.86 107.014 243.332 107.233 242.78 107.233Z" fill="white"/>
<path d="M179.48 98.9182C190.125 98.9182 198.754 90.2892 198.754 79.6447C198.754 69.0002 190.125 60.3711 179.48 60.3711C168.836 60.3711 160.207 69.0002 160.207 79.6447C160.207 90.2892 168.836 98.9182 179.48 98.9182Z" fill="#CACACA"/>
<path d="M179.48 103.265C177.977 103.264 176.536 102.666 175.474 101.603C174.411 100.54 173.813 99.0994 173.812 97.5965V61.6948C173.811 60.95 173.957 60.2123 174.242 59.5241C174.526 58.8358 174.944 58.2103 175.47 57.6834C175.997 57.1566 176.622 56.7386 177.31 56.4534C177.998 56.1683 178.735 56.0215 179.48 56.0215C180.225 56.0215 180.963 56.1683 181.651 56.4534C182.339 56.7386 182.964 57.1566 183.49 57.6834C184.017 58.2103 184.434 58.8358 184.719 59.5241C185.003 60.2123 185.149 60.95 185.149 61.6948V97.5965C185.147 99.0994 184.549 100.54 183.487 101.603C182.424 102.666 180.983 103.264 179.48 103.265Z" fill="white"/>
<path d="M229.832 65.496H224.541C224.341 65.496 224.148 65.4164 224.007 65.2747C223.865 65.1329 223.785 64.9407 223.785 64.7402C223.785 64.5397 223.865 64.3475 224.007 64.2058C224.148 64.064 224.341 63.9844 224.541 63.9844H229.832C230.032 63.9844 230.224 64.064 230.366 64.2058C230.508 64.3475 230.588 64.5397 230.588 64.7402C230.588 64.9407 230.508 65.1329 230.366 65.2747C230.224 65.4164 230.032 65.496 229.832 65.496Z" fill="#E4E4E4"/>
<path d="M238.146 65.6855H232.855C232.654 65.6855 232.462 65.6058 232.32 65.4641C232.179 65.3224 232.099 65.1301 232.099 64.9297C232.099 64.7292 232.179 64.5369 232.32 64.3952C232.462 64.2535 232.654 64.1738 232.855 64.1738H238.146C238.346 64.1738 238.538 64.2535 238.68 64.3952C238.822 64.5369 238.902 64.7292 238.902 64.9297C238.902 65.1301 238.822 65.3224 238.68 65.4641C238.538 65.6058 238.346 65.6855 238.146 65.6855Z" fill="#E4E4E4"/>
<path d="M246.46 65.873H241.169C240.969 65.873 240.777 65.7933 240.635 65.6516C240.493 65.5099 240.414 65.3176 240.414 65.1172C240.414 64.9167 240.493 64.7244 240.635 64.5827C240.777 64.441 240.969 64.3613 241.169 64.3613H246.46C246.661 64.3613 246.853 64.441 246.995 64.5827C247.136 64.7244 247.216 64.9167 247.216 65.1172C247.216 65.3176 247.136 65.5099 246.995 65.6516C246.853 65.7933 246.661 65.873 246.46 65.873Z" fill="#E4E4E4"/>
<path d="M254.774 66.0624H249.483C249.283 66.0624 249.091 65.9828 248.949 65.8411C248.807 65.6993 248.728 65.5071 248.728 65.3066C248.728 65.1061 248.807 64.9139 248.949 64.7722C249.091 64.6304 249.283 64.5508 249.483 64.5508H254.774C254.975 64.5508 255.167 64.6304 255.309 64.7722C255.45 64.9139 255.53 65.1061 255.53 65.3066C255.53 65.5071 255.45 65.6993 255.309 65.8411C255.167 65.9828 254.975 66.0624 254.774 66.0624Z" fill="#E4E4E4"/>
<path d="M124.683 139.921C124.682 140.857 124.868 141.784 125.229 142.647C125.589 143.511 126.118 144.294 126.784 144.951H123.662C122.741 144.951 121.829 144.77 120.978 144.418C120.127 144.065 119.354 143.548 118.703 142.897C118.051 142.246 117.535 141.473 117.182 140.622C116.83 139.771 116.648 138.859 116.648 137.938V24.2305C116.648 23.3095 116.83 22.3974 117.182 21.5465C117.535 20.6955 118.051 19.9223 118.703 19.2711C119.354 18.6198 120.127 18.1032 120.978 17.7507C121.829 17.3982 122.741 17.2168 123.662 17.2168H128.205C127.134 17.8399 126.244 18.7333 125.626 19.8076C125.008 20.8819 124.683 22.0996 124.683 23.339L124.683 139.921Z" fill="#CACACA"/>
<path d="M123.927 50.444C121.539 49.7751 119.141 49.1553 116.735 48.5847C108.507 46.6206 100.166 45.1667 91.7591 44.2311C90.3341 43.8558 88.8185 44.0587 87.5423 44.7955C86.2661 45.5323 85.3327 46.7434 84.9452 48.1652L80.7467 63.6596C80.3612 65.0878 80.5581 66.6107 81.2943 67.8938C82.0305 69.177 83.2457 70.1156 84.6732 70.5036L84.7299 70.515C90.2853 71.1461 95.8934 72.0228 101.471 73.1415C101.97 73.2397 102.465 73.3418 102.964 73.4476C104.752 73.8179 106.534 74.2135 108.312 74.6342C109.09 74.8156 109.865 75.0046 110.643 75.1973C112.737 75.7188 114.832 76.2744 116.928 76.8639C119.26 77.5215 121.593 78.2231 123.927 78.9689C124.18 79.0445 124.433 79.1238 124.683 79.207V50.6594C124.433 50.5838 124.18 50.512 123.927 50.444Z" fill="white"/>
<path d="M123.927 50.444C121.539 49.7751 119.141 49.1553 116.735 48.5847C108.507 46.6206 100.166 45.1667 91.7591 44.2311C90.3341 43.8558 88.8185 44.0587 87.5423 44.7955C86.2661 45.5323 85.3327 46.7434 84.9452 48.1652L80.7467 63.6596C80.3612 65.0878 80.5581 66.6107 81.2943 67.8938C82.0305 69.177 83.2457 70.1156 84.6732 70.5036L84.7299 70.515C90.2853 71.1461 95.8934 72.0228 101.471 73.1415C101.97 73.2397 102.465 73.3418 102.964 73.4476C104.752 73.8179 106.534 74.2135 108.312 74.6342C109.09 74.8156 109.865 75.0046 110.643 75.1973C112.737 75.7188 114.832 76.2744 116.928 76.8639C119.26 77.5215 121.593 78.2231 123.927 78.9689C124.18 79.0445 124.433 79.1238 124.683 79.207V78.4096C124.43 78.3302 124.176 78.2508 123.927 78.1715C121.78 77.4874 119.637 76.8437 117.495 76.2403C116.694 76.0098 115.893 75.7868 115.091 75.5714C113.648 75.1822 112.208 74.8093 110.772 74.4528C110.009 74.2601 109.246 74.0749 108.485 73.8973C108.429 73.8822 108.368 73.8708 108.312 73.8557C107.015 73.5496 105.717 73.2573 104.415 72.9789C103.917 72.8731 103.418 72.7673 102.919 72.6653C96.9024 71.4182 90.8406 70.4469 84.8431 69.7667C83.6164 69.4251 82.5743 68.6127 81.9437 67.5064C81.3131 66.4001 81.145 65.0895 81.4761 63.8599L85.6746 48.3617C86.0104 47.1285 86.8218 46.079 87.9306 45.4435C89.0395 44.8079 90.3552 44.6383 91.5889 44.9718L91.6456 44.9794C99.946 45.901 108.182 47.3297 116.308 49.2573C116.391 49.28 116.475 49.2989 116.558 49.3178C119.022 49.9073 121.478 50.5448 123.927 51.23C124.176 51.2981 124.43 51.3699 124.683 51.4454V50.6594C124.433 50.5838 124.18 50.512 123.927 50.444Z" fill="#0A2240"/>
<path d="M124.683 51.0524V78.8063C124.429 78.7232 124.18 78.6438 123.927 78.5645C121.693 77.8502 119.452 77.1775 117.204 76.5464C115.046 75.9342 112.88 75.3585 110.708 74.8193C109.937 74.6304 109.169 74.4452 108.398 74.2638C108.368 74.1278 108.338 73.9917 108.311 73.8557C108.172 73.2057 108.062 72.5481 107.979 71.8867C107.941 71.6335 107.915 71.3803 107.888 71.1234C107.491 67.0746 108.045 62.9889 109.507 59.1924C110.969 55.3959 113.298 51.9937 116.308 49.2573C116.418 49.1515 116.531 49.0495 116.645 48.9512C119.086 49.5332 121.513 50.163 123.927 50.8407C124.18 50.905 124.433 50.9768 124.683 51.0524Z" fill="#0267FD"/>
<path d="M99.5855 62.4154L89.0757 61.1758C88.706 61.1322 88.3313 61.1617 87.973 61.2629C87.6147 61.364 87.2798 61.5348 86.9875 61.7653C86.6952 61.9959 86.4512 62.2818 86.2693 62.6066C86.0875 62.9315 85.9714 63.289 85.9278 63.6587C85.8841 64.0285 85.9137 64.4032 86.0148 64.7615C86.116 65.1198 86.2867 65.4547 86.5173 65.747C86.7478 66.0393 87.0337 66.2833 87.3586 66.4652C87.6835 66.647 88.041 66.7631 88.4107 66.8067L98.9203 68.0463C99.666 68.1325 100.416 67.9195 101.004 67.4539C101.593 66.9883 101.973 66.3081 102.062 65.5626C102.15 64.8171 101.938 64.0671 101.474 63.4771C101.01 62.8871 100.331 62.5053 99.5855 62.4154ZM101.316 65.4765C101.251 66.0234 100.97 66.522 100.538 66.8627C100.105 67.2035 99.5544 67.3587 99.0072 67.2942L88.4974 66.0547C87.9517 65.9882 87.4545 65.7082 87.1148 65.2759C86.7751 64.8437 86.6206 64.2944 86.6851 63.7484C86.7496 63.2024 87.0278 62.7042 87.4589 62.363C87.89 62.0218 88.4387 61.8653 88.9849 61.9279L99.4947 63.1674C100.042 63.2337 100.54 63.5137 100.882 63.9463C101.223 64.3789 101.379 64.929 101.316 65.4765L101.316 65.4765Z" fill="#0A2240"/>
<path d="M124.683 57.5512V70.7139C124.44 70.8596 124.187 70.9884 123.927 71.0994C122.571 71.705 121.067 71.901 119.6 71.6633C118.134 71.4256 116.769 70.7646 115.673 69.7616C115.568 69.6671 115.462 69.5651 115.36 69.4593C115.258 69.3572 115.16 69.2476 115.065 69.138C113.924 67.8277 113.265 66.1671 113.196 64.4311C113.127 62.6951 113.653 60.9876 114.686 59.591C115.72 58.1943 117.199 57.1923 118.879 56.7506C120.56 56.309 122.34 56.4541 123.927 57.162C124.186 57.278 124.438 57.408 124.683 57.5512Z" fill="white"/>
<path d="M123.927 67.0788C120.953 67.6985 117.999 68.3851 115.065 69.1384C113.969 69.418 112.877 69.7078 111.789 70.0076C110.489 70.3666 109.188 70.7382 107.888 71.1224C106.229 71.6137 104.573 72.1277 102.919 72.6643C102.439 72.823 101.955 72.9818 101.471 73.1405C96.8722 74.6748 92.3033 76.3754 87.8099 78.231C86.38 78.5884 85.1491 79.4962 84.3854 80.7568C83.6217 82.0174 83.3869 83.5287 83.7322 84.9616L87.5228 100.562C87.8736 101.999 88.78 103.238 90.0432 104.007C91.3064 104.777 92.8232 105.013 94.2608 104.666L94.3138 104.647C101.703 101.616 109.266 99.0267 116.962 96.8923C119.26 96.2537 121.582 95.6515 123.927 95.0859C124.18 95.0254 124.43 94.965 124.683 94.9083V66.9238C124.43 66.9692 124.18 67.0221 123.927 67.0788Z" fill="white"/>
<path d="M123.927 67.0788C120.953 67.6985 117.999 68.3851 115.065 69.1384C113.969 69.418 112.877 69.7078 111.789 70.0076C110.489 70.3666 109.188 70.7382 107.888 71.1224C106.229 71.6137 104.573 72.1277 102.919 72.6643C102.439 72.823 101.955 72.9818 101.471 73.1405C96.8722 74.6748 92.3033 76.3754 87.8099 78.231C86.38 78.5884 85.1491 79.4962 84.3854 80.7568C83.6217 82.0174 83.3869 83.5287 83.7322 84.9616L87.5228 100.562C87.8736 101.999 88.78 103.238 90.0432 104.007C91.3064 104.777 92.8232 105.013 94.2608 104.666L94.3138 104.647C101.703 101.616 109.266 99.0267 116.962 96.8923C119.26 96.2537 121.582 95.6515 123.927 95.0859C124.18 95.0254 124.43 94.965 124.683 94.9083V94.1298C124.43 94.1903 124.18 94.2507 123.927 94.3112C123.738 94.3565 123.545 94.4019 123.356 94.4472C121.134 94.9877 118.936 95.5596 116.762 96.163C116.705 96.1781 116.645 96.197 116.588 96.2121C108.931 98.3417 101.406 100.922 94.053 103.94C92.8131 104.231 91.5086 104.021 90.423 103.355C89.3375 102.689 88.5587 101.621 88.2559 100.384L84.4692 84.784C84.1687 83.5418 84.3731 82.2311 85.0376 81.1393C85.7021 80.0476 86.7725 79.264 88.014 78.9604L88.0706 78.9415C92.9647 76.9158 97.9455 75.0792 102.964 73.4466C103.448 73.2879 103.932 73.1329 104.415 72.978C105.602 72.6039 106.79 72.2398 107.979 71.8858C109.234 71.5117 110.487 71.1514 111.739 70.805C111.823 70.7823 111.906 70.7596 111.989 70.737C113.213 70.4006 114.442 70.0756 115.673 69.7619C118.406 69.0666 121.157 68.4279 123.927 67.8459C124.176 67.793 124.43 67.7401 124.683 67.691V66.9238C124.43 66.9692 124.18 67.0221 123.927 67.0788Z" fill="#0A2240"/>
<path d="M124.683 67.3047V94.5182C124.434 94.5749 124.18 94.6316 123.927 94.6921C121.561 95.2665 119.206 95.8787 116.86 96.5287C116.766 96.4229 116.675 96.3171 116.588 96.2113C114.139 93.3448 112.34 89.9822 111.314 86.3545C110.288 82.7268 110.059 78.92 110.643 75.1955C110.662 75.0708 110.685 74.9423 110.708 74.8176C110.727 74.6967 110.749 74.572 110.772 74.451C111.005 73.2135 111.329 71.9946 111.739 70.8042C111.789 70.6606 111.838 70.5169 111.891 70.3733C113.043 70.0559 114.2 69.7511 115.36 69.4588C118.198 68.7256 121.054 68.0593 123.927 67.4596C124.176 67.403 124.43 67.3538 124.683 67.3047Z" fill="#0267FD"/>
<path d="M107.121 91.9572C106.838 91.2612 106.29 90.706 105.598 90.4134C104.906 90.1208 104.126 90.1147 103.429 90.3964L93.6221 94.3721C92.9267 94.6555 92.3721 95.2034 92.0802 95.8953C91.7884 96.5873 91.783 97.3668 92.0654 98.0627C92.3478 98.7586 92.8948 99.314 93.5863 99.6069C94.2778 99.8998 95.0573 99.9064 95.7536 99.6251L105.561 95.6494C106.256 95.3654 106.811 94.8175 107.103 94.1255C107.396 93.4336 107.402 92.654 107.121 91.9572ZM105.277 94.9465L95.4702 98.9259C94.9592 99.1325 94.3871 99.1279 93.8795 98.913C93.372 98.6981 92.9705 98.2905 92.7632 97.7798C92.5559 97.2691 92.5597 96.697 92.7739 96.1891C92.9881 95.6813 93.3951 95.2792 93.9056 95.0712L103.712 91.0956C104.223 90.8881 104.795 90.892 105.303 91.1064C105.811 91.3207 106.213 91.7281 106.42 92.2387C106.628 92.7494 106.624 93.3216 106.409 93.8294C106.195 94.3372 105.788 94.739 105.277 94.9465Z" fill="#0A2240"/>
<path d="M124.683 74.2552V89.0732C124.433 89.1366 124.181 89.1871 123.927 89.2243C122.409 89.437 120.863 89.1883 119.489 88.5106C118.115 87.833 116.977 86.7577 116.222 85.4244C115.467 84.0912 115.131 82.5618 115.257 81.0349C115.383 79.5081 115.965 78.0544 116.928 76.8628C117.015 76.7532 117.105 76.6474 117.204 76.5453C117.294 76.4395 117.393 76.3375 117.495 76.2392C118.33 75.4127 119.346 74.7904 120.461 74.4207C121.577 74.051 122.763 73.9439 123.927 74.1078C124.181 74.1419 124.434 74.1912 124.683 74.2552Z" fill="white"/>
<path d="M123.927 48.4746V86.1941C124.18 86.111 124.433 86.0316 124.683 85.9561V48.8185C124.429 48.7014 124.18 48.588 123.927 48.4746ZM123.927 48.4746V86.1941C124.18 86.111 124.433 86.0316 124.683 85.9561V48.8185C124.429 48.7014 124.18 48.588 123.927 48.4746ZM123.927 48.4746V86.1941C124.18 86.111 124.433 86.0316 124.683 85.9561V48.8185C124.429 48.7014 124.18 48.588 123.927 48.4746ZM123.927 51.2296V94.6934C124.18 94.6329 124.433 94.5763 124.683 94.5196V51.445C124.429 51.3694 124.176 51.2976 123.927 51.2296V51.2296ZM123.927 51.2296V94.6934C124.18 94.6329 124.433 94.5763 124.683 94.5196V51.445C124.429 51.3694 124.176 51.2976 123.927 51.2296V51.2296ZM123.927 51.2296V94.6934C124.18 94.6329 124.433 94.5763 124.683 94.5196V51.445C124.429 51.3694 124.176 51.2976 123.927 51.2296V51.2296ZM123.927 51.2296V94.6934C124.18 94.6329 124.433 94.5763 124.683 94.5196V51.445C124.429 51.3694 124.176 51.2976 123.927 51.2296V51.2296ZM123.927 51.2296V95.0864C124.18 95.026 124.429 94.9655 124.683 94.9088V51.445C124.429 51.3694 124.176 51.2976 123.927 51.2296V51.2296ZM288.791 15.4942H131.772C129.693 15.4976 127.699 16.3253 126.229 17.7958C124.758 19.2664 123.93 21.2599 123.927 23.3396V139.922C123.93 142.001 124.758 143.994 126.229 145.464C127.699 146.934 129.693 147.761 131.772 147.764H288.791C290.87 147.761 292.863 146.934 294.333 145.464C295.804 143.994 296.631 142.001 296.633 139.922V23.3396C296.631 21.2601 295.805 19.2661 294.335 17.7953C292.864 16.3245 290.871 15.4969 288.791 15.4941V15.4942ZM295.877 139.922C295.875 141.801 295.128 143.602 293.8 144.93C292.471 146.259 290.67 147.006 288.791 147.008H131.772C129.893 147.006 128.092 146.259 126.762 144.931C125.433 143.602 124.685 141.801 124.683 139.922V23.3396C124.685 21.4602 125.433 19.6585 126.762 18.3296C128.091 17.0006 129.893 16.2528 131.772 16.25H288.791C290.671 16.2521 292.472 16.9999 293.801 18.3291C295.129 19.6583 295.876 21.4603 295.877 23.3396V139.922ZM123.927 51.2296V94.3117C124.18 94.2513 124.429 94.1908 124.683 94.1303V51.445C124.429 51.3694 124.176 51.2976 123.927 51.2296V51.2296ZM123.927 51.2296V94.6934C124.18 94.6329 124.433 94.5763 124.683 94.5196V51.445C124.429 51.3694 124.176 51.2976 123.927 51.2296V51.2296ZM123.927 51.2296V94.6934C124.18 94.6329 124.433 94.5763 124.683 94.5196V51.445C124.429 51.3694 124.176 51.2976 123.927 51.2296V51.2296ZM123.927 51.2296V94.6934C124.18 94.6329 124.433 94.5763 124.683 94.5196V51.445C124.429 51.3694 124.176 51.2976 123.927 51.2296V51.2296ZM123.927 48.4746V86.1941C124.18 86.111 124.433 86.0316 124.683 85.9561V48.8185C124.429 48.7014 124.18 48.588 123.927 48.4746ZM123.927 48.4746V86.1941C124.18 86.111 124.433 86.0316 124.683 85.9561V48.8185C124.429 48.7014 124.18 48.588 123.927 48.4746Z" fill="#0A2240"/>
<path d="M90.2645 88.3833C90.1164 88.0379 89.8943 87.7291 89.614 87.4788C89.3336 87.2285 89.0017 87.0427 88.6418 86.9344C88.2818 86.8262 87.9025 86.7983 87.5306 86.8525C87.1587 86.9068 86.8031 87.0419 86.4891 87.2484L79.2442 81.6816L78.9019 86.4171L85.8342 90.9774C86.2161 91.482 86.7698 91.829 87.3904 91.9526C88.0111 92.0763 88.6555 91.968 89.2016 91.6482C89.7477 91.3284 90.1575 90.8195 90.3534 90.2178C90.5493 89.616 90.5177 88.9633 90.2645 88.3834V88.3833Z" fill="#FFB6B6"/>
<path d="M61.0707 54.7888L58.6867 53.6621C58.6867 53.6621 54.8462 54.7424 56.712 59.821L68.0038 80.857L81.7896 88.9282L86.0873 85.1198L72.2915 74.2041L61.0707 54.7888Z" fill="#0267FD"/>
</svg>
