<svg width="252" height="59" viewBox="0 0 252 59" fill="none" xmlns="http://www.w3.org/2000/svg">
<g clip-path="url(#clip0_10669_32625)">
<g clip-path="url(#clip1_10669_32625)">
<path d="M10.6682 45.1406L10.5758 45.0522C10.2137 44.6691 10 44.0742 10 43.304V43.4853V15.9693C10 15.9668 10 15.9649 10 15.9629C10 15.9653 10 15.9673 10 15.9697V16.1515C10 15.3174 10.2492 14.6891 10.6667 14.3124L26.0817 29.727L10.6682 45.1406ZM10 15.9614C10 15.8929 10.0019 15.8263 10.0053 15.7607C10.0019 15.8258 10 15.8929 10 15.9614ZM10.0053 15.7577C10.0053 15.7569 10.0053 15.7559 10.0057 15.7549C10.0053 15.7559 10.0053 15.7569 10.0053 15.7577ZM10.0057 15.749C10.0057 15.7485 10.0057 15.748 10.0057 15.7475C10.0057 15.748 10.0057 15.7485 10.0057 15.749Z" fill="url(#paint0_linear_10669_32625)"/>
<path d="M31.2186 35.0508L31.3358 34.9842L37.4234 31.5253C38.0038 31.1954 38.3906 30.7954 38.5836 30.3721C38.3911 30.7954 38.0042 31.1959 37.4234 31.5258L31.3358 34.9847L31.2186 35.0508ZM31.2201 34.8685L26.0811 29.7286L31.2196 24.5896L37.4234 28.114C38.2112 28.5617 38.6535 29.1386 38.7274 29.7281C38.7274 29.7286 38.7274 29.7296 38.7274 29.7305C38.6535 30.3186 38.2112 30.896 37.4234 31.3435L31.2201 34.8685Z" fill="url(#paint1_linear_10669_32625)"/>
<path d="M11.7674 45.7266C11.3368 45.7266 10.9611 45.5866 10.6681 45.3222L10.6686 45.3217C10.9616 45.5861 11.3378 45.7266 11.7684 45.7266C11.8058 45.7266 11.8437 45.7256 11.8821 45.7237C11.8432 45.7256 11.8048 45.7266 11.7674 45.7266ZM11.7679 45.5443C11.3373 45.5448 10.9616 45.4043 10.6686 45.1399V45.1396L26.0821 29.7259L31.2211 34.8659L13.1618 45.1269C12.6621 45.4102 12.1887 45.5443 11.7679 45.5443ZM10.6642 45.3188C10.637 45.2941 10.6102 45.2678 10.584 45.2406L10.6642 45.3188Z" fill="url(#paint2_linear_10669_32625)"/>
<path d="M26.082 29.7266L10.667 14.3119C10.96 14.0481 11.3352 13.9081 11.7653 13.9081C12.1872 13.9081 12.661 14.0427 13.1617 14.3265L31.2205 24.5875L26.082 29.7266ZM31.3367 24.4714L13.1617 14.1449C12.661 13.8609 12.1872 13.7263 11.7653 13.7263C11.7634 13.7263 11.762 13.7263 11.76 13.7263C11.7625 13.7263 11.7643 13.7263 11.7673 13.7263C12.1882 13.7263 12.6615 13.8604 13.1617 14.1444L31.3367 24.4714Z" fill="url(#paint3_linear_10669_32625)"/>
</g>
<path d="M59.32 25.18V27.66H64.02C63.56 29.56 62.04 30.76 60 30.76C57.5 30.76 55.56 28.84 55.56 26.3C55.56 23.78 57.44 21.86 59.84 21.86C61.3 21.86 62.86 22.32 63.84 24.2L66.28 23.34C65.32 20.62 62.66 19.3 59.84 19.3C55.9 19.3 52.8 22.38 52.8 26.3C52.8 30.24 55.92 33.3 59.92 33.3C63.88 33.3 66.72 30.32 66.72 26.34C66.72 26.02 66.7 25.64 66.66 25.18H59.32ZM78.3473 27.82C78.2473 24.78 75.9473 22.72 73.2873 22.72C70.4273 22.72 68.1273 24.88 68.1273 28.02C68.1273 31.16 70.4273 33.3 73.2473 33.3C75.4273 33.3 77.2073 32.3 78.0873 30.22L75.7273 29.72C75.0073 30.94 74.0273 31.04 73.2473 31.04C72.0273 31.04 71.0073 30.16 70.7473 28.72H78.3473V27.82ZM73.2873 25.02C74.3473 25.02 75.3073 25.58 75.6473 26.86H70.8273C71.1473 25.62 72.2873 25.02 73.2873 25.02ZM86.8531 30.36C86.3331 30.64 85.6531 30.84 85.1931 30.84C84.3131 30.84 83.7331 30.32 83.7331 29.12V25.18H86.9931V23.02H83.7331V20H81.0931V23.02H78.9531V25.18H81.0931V29.32C81.0931 32.06 82.6531 33.3 85.0131 33.3C85.8531 33.3 86.5731 33.12 87.6131 32.56L86.8531 30.36ZM98.5283 22.78C95.5483 22.78 93.0883 24.88 93.0883 28.02C93.0883 31.16 95.5483 33.26 98.5283 33.26C101.448 33.26 103.908 31.16 103.908 28.02C103.908 24.88 101.448 22.78 98.5283 22.78ZM98.5283 31C97.0883 31 95.6483 29.88 95.6483 28.02C95.6483 26.16 97.0883 25.04 98.5283 25.04C99.9083 25.04 101.348 26.16 101.348 28.02C101.348 29.88 99.9083 31 98.5283 31ZM111.68 22.72C110.36 22.72 109.32 23.14 108.54 23.92V23.02H105.9V33H108.54V28.58C108.54 26.14 109.52 25.14 111.02 25.14C112.24 25.14 113.04 26.08 113.04 27.48V33H115.68V26.92C115.68 24.44 114.08 22.72 111.68 22.72ZM133.128 23.02H130.488V23.82C129.648 23.12 128.548 22.72 127.188 22.72C124.648 22.72 122.288 24.88 122.288 28.02C122.288 31.16 124.648 33.3 127.188 33.3C128.548 33.3 129.648 32.9 130.488 32.22V33H133.128V23.02ZM127.648 31C126.048 31 124.848 29.86 124.848 28.02C124.848 26.18 126.048 25.02 127.648 25.02C129.068 25.02 130.488 26.18 130.488 28.02C130.488 29.86 129.068 31 127.648 31ZM141.7 22.72C140.38 22.72 139.34 23.14 138.56 23.92V23.02H135.92V33H138.56V28.58C138.56 26.14 139.54 25.14 141.04 25.14C142.26 25.14 143.06 26.08 143.06 27.48V33H145.7V26.92C145.7 24.44 144.1 22.72 141.7 22.72ZM158.284 18.6H155.644V23.82C154.804 23.12 153.704 22.72 152.344 22.72C149.804 22.72 147.444 24.88 147.444 28.02C147.444 31.16 149.804 33.3 152.344 33.3C153.704 33.3 154.804 32.9 155.644 32.22V33H158.284V18.6ZM152.804 31C151.204 31 150.004 29.86 150.004 28.02C150.004 26.18 151.204 25.02 152.804 25.02C154.224 25.02 155.644 26.18 155.644 28.02C155.644 29.86 154.224 31 152.804 31ZM167.296 22.88C165.676 22.88 164.516 23.68 163.716 24.84V23.02H161.076V33H163.716V29.78C163.716 27 164.836 25.5 167.276 25.5H167.856L167.996 22.96C167.756 22.88 167.556 22.88 167.296 22.88ZM174.192 22.78C171.212 22.78 168.752 24.88 168.752 28.02C168.752 31.16 171.212 33.26 174.192 33.26C177.112 33.26 179.572 31.16 179.572 28.02C179.572 24.88 177.112 22.78 174.192 22.78ZM174.192 31C172.752 31 171.312 29.88 171.312 28.02C171.312 26.16 172.752 25.04 174.192 25.04C175.572 25.04 177.012 26.16 177.012 28.02C177.012 29.88 175.572 31 174.192 31ZM183.024 18.46C182.084 18.46 181.424 19.2 181.424 20.04C181.424 20.92 182.084 21.58 183.024 21.58C183.944 21.58 184.624 20.92 184.624 20.04C184.624 19.2 183.944 18.46 183.024 18.46ZM184.344 33V23.02H181.704V33H184.344ZM197.327 18.6H194.687V23.82C193.847 23.12 192.747 22.72 191.387 22.72C188.847 22.72 186.487 24.88 186.487 28.02C186.487 31.16 188.847 33.3 191.387 33.3C192.747 33.3 193.847 32.9 194.687 32.22V33H197.327V18.6ZM191.847 31C190.247 31 189.047 29.86 189.047 28.02C189.047 26.18 190.247 25.02 191.847 25.02C193.267 25.02 194.687 26.18 194.687 28.02C194.687 29.86 193.267 31 191.847 31Z" fill="white"/>
</g>
<rect width="250" height="56" rx="8" transform="matrix(1 0 0 -1 1 57.7266)" stroke="white" stroke-width="2"/>
<defs>
<linearGradient id="paint0_linear_10669_32625" x1="24.7149" y1="15.679" x2="3.83465" y2="36.5592" gradientUnits="userSpaceOnUse">
<stop stop-color="#00A0FF"/>
<stop offset="0.00657445" stop-color="#00A1FF"/>
<stop offset="0.2601" stop-color="#00BEFF"/>
<stop offset="0.5122" stop-color="#00D2FF"/>
<stop offset="0.7604" stop-color="#00DFFF"/>
<stop offset="1" stop-color="#00E3FF"/>
</linearGradient>
<linearGradient id="paint1_linear_10669_32625" x1="39.6873" y1="29.7294" x2="9.58215" y2="29.7294" gradientUnits="userSpaceOnUse">
<stop stop-color="#FFE000"/>
<stop offset="0.4087" stop-color="#FFBD00"/>
<stop offset="0.7754" stop-color="#FFA500"/>
<stop offset="1" stop-color="#FF9C00"/>
</linearGradient>
<linearGradient id="paint2_linear_10669_32625" x1="28.4816" y1="32.5817" x2="0.166445" y2="60.8968" gradientUnits="userSpaceOnUse">
<stop stop-color="#FF3A44"/>
<stop offset="1" stop-color="#C31162"/>
</linearGradient>
<linearGradient id="paint3_linear_10669_32625" x1="6.6716" y1="5.06144" x2="19.3154" y2="17.7053" gradientUnits="userSpaceOnUse">
<stop stop-color="#32A071"/>
<stop offset="0.0685" stop-color="#2DA771"/>
<stop offset="0.4762" stop-color="#15CF74"/>
<stop offset="0.8009" stop-color="#06E775"/>
<stop offset="1" stop-color="#00F076"/>
</linearGradient>
<clipPath id="clip0_10669_32625">
<rect width="236" height="32" fill="white" transform="translate(8 13.7266)"/>
</clipPath>
<clipPath id="clip1_10669_32625">
<rect width="28.728" height="32" fill="white" transform="matrix(1 0 0 -1 10 45.7266)"/>
</clipPath>
</defs>
</svg>
