<svg width="18" height="18" viewBox="0 0 18 18" fill="none" xmlns="http://www.w3.org/2000/svg">
<path d="M10 5.00012C12.103 5.00012 13 5.89712 13 8.00012H15C15 4.77512 13.225 3.00012 10 3.00012V5.00012ZM13.422 10.4431C13.023 10.0801 12.407 10.0991 12.031 10.4861L9.63801 12.9471C9.06201 12.8371 7.90401 12.4761 6.71201 11.2871C5.52001 10.0941 5.15901 8.93312 5.05201 8.36112L7.51101 5.96712C7.89901 5.59112 7.91701 4.97612 7.55401 4.57612L3.85901 0.513121C3.49601 0.112121 2.87901 0.0741212 2.46801 0.426121L0.298008 2.28712C0.125008 2.46112 0.0220073 2.69112 0.0080073 2.93612C-0.0069927 3.18612 -0.292993 9.10812 4.29901 13.7021C8.30501 17.7071 13.323 18.0001 14.705 18.0001C14.907 18.0001 15.031 17.9941 15.064 17.9921C15.309 17.9781 15.539 17.8751 15.712 17.7011L17.572 15.5301C17.925 15.1191 17.885 14.5031 17.486 14.1391L13.422 10.4431Z" fill="white"/>
</svg>
