<svg width="368" height="198" viewBox="0 0 368 198" fill="none" xmlns="http://www.w3.org/2000/svg">
<rect x="0.286133" width="367.714" height="198" rx="9.42857" fill="#E6F0FF"/>
<path d="M125.592 39.2071H122.81L116.8 50.1207L110.812 39.2071H108.007V55H111.119V45.925L116.092 55H117.53L122.48 45.925V55H125.592V39.2071ZM140.718 43.2379H137.607V44.1807C136.617 43.3557 135.321 42.8843 133.718 42.8843C130.724 42.8843 127.943 45.43 127.943 49.1307C127.943 52.8314 130.724 55.3536 133.718 55.3536C135.321 55.3536 136.617 54.8821 137.607 54.0807V55H140.718V43.2379ZM134.26 52.6429C132.374 52.6429 130.96 51.2993 130.96 49.1307C130.96 46.9621 132.374 45.595 134.26 45.595C135.933 45.595 137.607 46.9621 137.607 49.1307C137.607 51.2993 135.933 52.6429 134.26 52.6429ZM149.36 52.5014C147.403 52.5014 146.083 51.1579 146.083 49.1307C146.083 47.1271 147.403 45.7364 149.36 45.7364C150.727 45.7364 151.835 46.42 152.259 48.07L155.253 47.2214C154.475 44.5814 152.094 42.8843 149.36 42.8843C145.918 42.8843 143.066 45.43 143.066 49.1307C143.066 52.8314 145.918 55.3536 149.36 55.3536C152.165 55.3536 154.593 53.6329 155.253 50.9457L152.377 50.215C151.835 51.8414 150.727 52.5014 149.36 52.5014ZM164.614 42.8843C163.011 42.8843 161.715 43.3557 160.725 44.1807V38.0286H157.613V55H160.725V54.0807C161.715 54.8821 163.011 55.3536 164.614 55.3536C167.608 55.3536 170.389 52.8314 170.389 49.1307C170.389 45.43 167.608 42.8843 164.614 42.8843ZM164.072 52.6429C162.398 52.6429 160.725 51.2993 160.725 49.1307C160.725 46.9621 162.398 45.595 164.072 45.595C165.958 45.595 167.372 46.9621 167.372 49.1307C167.372 51.2993 165.958 52.6429 164.072 52.6429ZM178.205 42.955C174.693 42.955 171.794 45.43 171.794 49.1307C171.794 52.8314 174.693 55.3064 178.205 55.3064C181.647 55.3064 184.546 52.8314 184.546 49.1307C184.546 45.43 181.647 42.955 178.205 42.955ZM178.205 52.6429C176.508 52.6429 174.811 51.3229 174.811 49.1307C174.811 46.9386 176.508 45.6186 178.205 45.6186C179.832 45.6186 181.529 46.9386 181.529 49.1307C181.529 51.3229 179.832 52.6429 178.205 52.6429ZM192.362 42.955C188.85 42.955 185.951 45.43 185.951 49.1307C185.951 52.8314 188.85 55.3064 192.362 55.3064C195.803 55.3064 198.703 52.8314 198.703 49.1307C198.703 45.43 195.803 42.955 192.362 42.955ZM192.362 52.6429C190.665 52.6429 188.968 51.3229 188.968 49.1307C188.968 46.9386 190.665 45.6186 192.362 45.6186C193.988 45.6186 195.686 46.9386 195.686 49.1307C195.686 51.3229 193.988 52.6429 192.362 52.6429ZM213.472 55L207.179 48.8714L212.859 43.2379H208.947L204.727 47.3393H204.162V38.0286H201.05V55H204.162V50.4036H204.704L209.324 55H213.472ZM220.846 39.2071V55H224.052V49.8379H228.201C231.831 49.8379 234.046 47.7164 234.046 44.5107C234.046 41.3521 231.831 39.2071 228.201 39.2071H220.846ZM224.052 46.9386V42.1064H228.201C229.921 42.1064 230.864 43.0964 230.864 44.5107C230.864 45.9721 229.921 46.9386 228.201 46.9386H224.052ZM243.853 43.0729C241.944 43.0729 240.577 44.0157 239.634 45.3829V43.2379H236.522V55H239.634V51.205C239.634 47.9286 240.954 46.1607 243.83 46.1607H244.513L244.678 43.1671C244.395 43.0729 244.16 43.0729 243.853 43.0729ZM251.981 42.955C248.469 42.955 245.57 45.43 245.57 49.1307C245.57 52.8314 248.469 55.3064 251.981 55.3064C255.423 55.3064 258.322 52.8314 258.322 49.1307C258.322 45.43 255.423 42.955 251.981 42.955ZM251.981 52.6429C250.284 52.6429 248.587 51.3229 248.587 49.1307C248.587 46.9386 250.284 45.6186 251.981 45.6186C253.608 45.6186 255.305 46.9386 255.305 49.1307C255.305 51.3229 253.608 52.6429 251.981 52.6429Z" fill="#0267FD"/>
<path d="M28.2883 103.026H22.8386L25.3277 100.65C27.2323 98.84 28.1752 97.6709 28.1752 95.8606C28.1752 93.5412 26.4591 91.9572 23.9512 91.9572C21.4243 91.9572 19.6894 93.5223 19.5951 95.9926L21.4431 96.3698C21.5374 94.616 22.4614 93.7109 23.9323 93.7109C25.29 93.7109 26.2329 94.5972 26.2329 95.8983C26.2329 97.4069 25.2334 98.2932 24.1209 99.3303L19.746 103.554V104.855H28.2883V103.026ZM30.9505 107.345L32.9305 102.385V102.329H30.6488L29.4608 107.345H30.9505ZM39.6201 91.9572C36.4333 91.9572 34.2835 94.616 34.2835 98.5383C34.2835 102.461 36.4333 105.119 39.6201 105.119C42.807 105.119 44.9567 102.461 44.9567 98.5383C44.9567 94.616 42.807 91.9572 39.6201 91.9572ZM39.6201 103.253C37.6213 103.253 36.339 101.329 36.339 98.5383C36.339 95.7475 37.6213 93.824 39.6201 93.824C41.619 93.824 42.9013 95.7475 42.9013 98.5383C42.9013 101.329 41.619 103.253 39.6201 103.253ZM52.1793 91.9572C48.9924 91.9572 46.8427 94.616 46.8427 98.5383C46.8427 102.461 48.9924 105.119 52.1793 105.119C55.3661 105.119 57.5158 102.461 57.5158 98.5383C57.5158 94.616 55.3661 91.9572 52.1793 91.9572ZM52.1793 103.253C50.1804 103.253 48.8981 101.329 48.8981 98.5383C48.8981 95.7475 50.1804 93.824 52.1793 93.824C54.1781 93.824 55.4604 95.7475 55.4604 98.5383C55.4604 101.329 54.1781 103.253 52.1793 103.253ZM64.7384 91.9572C61.5516 91.9572 59.4018 94.616 59.4018 98.5383C59.4018 102.461 61.5516 105.119 64.7384 105.119C67.9253 105.119 70.075 102.461 70.075 98.5383C70.075 94.616 67.9253 91.9572 64.7384 91.9572ZM64.7384 103.253C62.7396 103.253 61.4573 101.329 61.4573 98.5383C61.4573 95.7475 62.7396 93.824 64.7384 93.824C66.7373 93.824 68.0196 95.7475 68.0196 98.5383C68.0196 101.329 66.7373 103.253 64.7384 103.253ZM72.0716 107.345L74.0516 102.385V102.329H71.7699L70.5819 107.345H72.0716ZM80.7412 91.9572C77.5543 91.9572 75.4046 94.616 75.4046 98.5383C75.4046 102.461 77.5543 105.119 80.7412 105.119C83.9281 105.119 86.0778 102.461 86.0778 98.5383C86.0778 94.616 83.9281 91.9572 80.7412 91.9572ZM80.7412 103.253C78.7423 103.253 77.4601 101.329 77.4601 98.5383C77.4601 95.7475 78.7423 93.824 80.7412 93.824C82.7401 93.824 84.0223 95.7475 84.0223 98.5383C84.0223 101.329 82.7401 103.253 80.7412 103.253ZM93.3004 91.9572C90.1135 91.9572 87.9638 94.616 87.9638 98.5383C87.9638 102.461 90.1135 105.119 93.3004 105.119C96.4872 105.119 98.6369 102.461 98.6369 98.5383C98.6369 94.616 96.4872 91.9572 93.3004 91.9572ZM93.3004 103.253C91.3015 103.253 90.0192 101.329 90.0192 98.5383C90.0192 95.7475 91.3015 93.824 93.3004 93.824C95.2992 93.824 96.5815 95.7475 96.5815 98.5383C96.5815 101.329 95.2992 103.253 93.3004 103.253ZM105.86 91.9572C102.673 91.9572 100.523 94.616 100.523 98.5383C100.523 102.461 102.673 105.119 105.86 105.119C109.046 105.119 111.196 102.461 111.196 98.5383C111.196 94.616 109.046 91.9572 105.86 91.9572ZM105.86 103.253C103.861 103.253 102.578 101.329 102.578 98.5383C102.578 95.7475 103.861 93.824 105.86 93.824C107.858 93.824 109.141 95.7475 109.141 98.5383C109.141 101.329 107.858 103.253 105.86 103.253ZM114.232 102.536C113.516 102.536 112.988 103.083 112.988 103.724C112.988 104.403 113.516 104.931 114.232 104.931C114.949 104.931 115.458 104.403 115.458 103.724C115.458 103.083 114.949 102.536 114.232 102.536ZM122.249 91.9572C119.062 91.9572 116.912 94.616 116.912 98.5383C116.912 102.461 119.062 105.119 122.249 105.119C125.436 105.119 127.586 102.461 127.586 98.5383C127.586 94.616 125.436 91.9572 122.249 91.9572ZM122.249 103.253C120.25 103.253 118.968 101.329 118.968 98.5383C118.968 95.7475 120.25 93.824 122.249 93.824C124.248 93.824 125.53 95.7475 125.53 98.5383C125.53 101.329 124.248 103.253 122.249 103.253ZM134.808 91.9572C131.621 91.9572 129.472 94.616 129.472 98.5383C129.472 102.461 131.621 105.119 134.808 105.119C137.995 105.119 140.145 102.461 140.145 98.5383C140.145 94.616 137.995 91.9572 134.808 91.9572ZM134.808 103.253C132.809 103.253 131.527 101.329 131.527 98.5383C131.527 95.7475 132.809 93.824 134.808 93.824C136.807 93.824 138.089 95.7475 138.089 98.5383C138.089 101.329 136.807 103.253 134.808 103.253Z" fill="#0267FD"/>
<path d="M27.2323 159.729C28.2506 159.295 28.8729 158.334 28.8729 157.051C28.8729 154.789 27.1757 153.242 24.6677 153.242C22.122 153.242 20.406 154.883 20.2174 157.259L22.0843 157.636C22.1974 155.901 23.2157 155.015 24.6677 155.015C26.082 155.015 27.006 155.826 27.006 157.051C27.006 158.164 26.1574 158.843 24.762 158.843H23.0837V160.597H24.8752C26.3649 160.597 27.2323 161.313 27.2323 162.482C27.2323 163.765 26.1763 164.632 24.6866 164.632C23.0649 164.632 22.122 163.614 21.9523 161.973L20.0477 162.35C20.2363 164.764 22.0466 166.405 24.6866 166.405C27.3077 166.405 29.0803 164.821 29.0803 162.463C29.0803 161.125 28.3826 160.144 27.2323 159.729ZM50.0343 153.506H48.2805L43.1137 163.067L37.9657 153.506H36.1931V166.141H38.1543V157.787L42.6423 166.141H43.604L48.0731 157.787V166.141H50.0343V153.506ZM57.2302 156.58C54.4582 156.58 52.1953 158.56 52.1953 161.464C52.1953 164.368 54.4582 166.367 57.2302 166.367C59.9833 166.367 62.2273 164.368 62.2273 161.464C62.2273 158.56 59.9833 156.58 57.2302 156.58ZM57.2302 164.67C55.5896 164.67 54.1188 163.406 54.1188 161.464C54.1188 159.522 55.5896 158.258 57.2302 158.258C58.833 158.258 60.3228 159.522 60.3228 161.464C60.3228 163.406 58.833 164.67 57.2302 164.67ZM69.6282 156.523C68.2327 156.523 67.139 157.033 66.3847 157.938V156.787H64.4236V166.141H66.3847V161.822C66.3847 159.465 67.4973 158.334 69.1756 158.334C70.5144 158.334 71.4007 159.352 71.4007 160.879V166.141H73.3807V160.483C73.3807 158.145 71.8722 156.523 69.6282 156.523ZM81.7367 164.047C81.2464 164.368 80.6429 164.557 80.1527 164.557C79.2287 164.557 78.6064 163.991 78.6064 162.822V158.409H81.8121V156.787H78.6064V153.883H76.6452V156.787H74.6275V158.409H76.6452V162.954C76.6452 165.273 78.0029 166.405 80.0207 166.405C80.8127 166.405 81.4538 166.216 82.3401 165.688L81.7367 164.047ZM89.1298 156.523C87.7344 156.523 86.6407 157.033 85.8864 157.938V152.563H83.9253V166.141H85.8864V161.822C85.8864 159.465 86.999 158.334 88.6773 158.334C90.0161 158.334 90.9024 159.352 90.9024 160.879V166.141H92.8824V160.483C92.8824 158.145 91.3738 156.523 89.1298 156.523ZM94.8453 163.633C95.0905 165.518 96.8819 166.405 98.975 166.405C101.313 166.405 102.916 165.349 102.916 163.387C102.916 162.067 101.992 161.181 100.484 160.861L98.2585 160.37C97.4287 160.182 97.127 159.842 97.127 159.314C97.127 158.654 97.6362 158.089 98.7865 158.089C99.9933 158.089 100.766 158.711 100.917 159.616L102.784 159.22C102.445 157.655 100.993 156.523 98.843 156.523C96.599 156.523 95.147 157.749 95.147 159.484C95.147 160.804 96.071 161.671 97.6927 162.03L99.7293 162.445C100.597 162.633 100.993 162.991 100.993 163.557C100.993 164.293 100.276 164.802 99.1447 164.802C97.919 164.802 96.9385 164.33 96.8065 163.218L94.8453 163.633Z" fill="#0267FD"/>
<path d="M289.285 92.2212H287.532L282.365 101.782L277.217 92.2212H275.444V104.855H277.405V96.5018L281.893 104.855H282.855L287.324 96.5018V104.855H289.285V92.2212ZM296.481 95.2949C293.709 95.2949 291.446 97.2749 291.446 100.179C291.446 103.083 293.709 105.082 296.481 105.082C299.234 105.082 301.478 103.083 301.478 100.179C301.478 97.2749 299.234 95.2949 296.481 95.2949ZM296.481 103.385C294.841 103.385 293.37 102.121 293.37 100.179C293.37 98.2366 294.841 96.9732 296.481 96.9732C298.084 96.9732 299.574 98.2366 299.574 100.179C299.574 102.121 298.084 103.385 296.481 103.385ZM308.879 95.2383C307.484 95.2383 306.39 95.7475 305.636 96.6526V95.5023H303.675V104.855H305.636V100.537C305.636 98.18 306.748 97.0486 308.427 97.0486C309.765 97.0486 310.652 98.0669 310.652 99.5943V104.855H312.632V99.1983C312.632 96.86 311.123 95.2383 308.879 95.2383ZM320.988 102.762C320.497 103.083 319.894 103.271 319.404 103.271C318.48 103.271 317.857 102.706 317.857 101.537V97.124H321.063V95.5023H317.857V92.5983H315.896V95.5023H313.878V97.124H315.896V101.669C315.896 103.988 317.254 105.119 319.272 105.119C320.064 105.119 320.705 104.931 321.591 104.403L320.988 102.762ZM328.381 95.2383C326.985 95.2383 325.892 95.7475 325.137 96.6526V91.2783H323.176V104.855H325.137V100.537C325.137 98.18 326.25 97.0486 327.928 97.0486C329.267 97.0486 330.153 98.0669 330.153 99.5943V104.855H332.133V99.1983C332.133 96.86 330.625 95.2383 328.381 95.2383ZM336.849 104.855V91.2783H334.888V104.855H336.849ZM348.894 95.4835H346.706L343.708 102.234L340.785 95.4835H338.598L342.633 104.629L341.106 108.061H343.293L348.894 95.4835Z" fill="#0267FD"/>
<path d="M245.883 164.311H240.433L242.922 161.935C244.827 160.125 245.77 158.956 245.77 157.146C245.77 154.826 244.054 153.242 241.546 153.242C239.019 153.242 237.284 154.807 237.19 157.278L239.038 157.655C239.132 155.901 240.056 154.996 241.527 154.996C242.884 154.996 243.827 155.882 243.827 157.183C243.827 158.692 242.828 159.578 241.715 160.615L237.34 164.839V166.141H245.883V164.311ZM252.758 153.242C249.571 153.242 247.422 155.901 247.422 159.823C247.422 163.746 249.571 166.405 252.758 166.405C255.945 166.405 258.095 163.746 258.095 159.823C258.095 155.901 255.945 153.242 252.758 153.242ZM252.758 164.538C250.759 164.538 249.477 162.614 249.477 159.823C249.477 157.033 250.759 155.109 252.758 155.109C254.757 155.109 256.039 157.033 256.039 159.823C256.039 162.614 254.757 164.538 252.758 164.538ZM276.803 166.141L271.24 153.506H269.354L263.791 166.141H265.979L267.223 163.199H273.371L274.615 166.141H276.803ZM272.579 161.351H268.015L270.297 155.977L272.579 161.351ZM286.9 156.787H284.939V161.106C284.939 163.463 283.845 164.594 282.167 164.594C280.809 164.594 279.923 163.557 279.923 162.03V156.787H277.961V162.426C277.961 164.783 279.451 166.405 281.714 166.405C283.091 166.405 284.184 165.895 284.939 164.99V166.141H286.9V156.787ZM298.782 156.787H296.877V157.711C296.161 156.957 295.086 156.542 293.653 156.542C291.258 156.542 289.07 158.447 289.07 161.049C289.07 163.651 291.258 165.594 293.653 165.594C295.086 165.594 296.161 165.179 296.877 164.425V165.028C296.877 166.838 295.708 167.951 293.936 167.951C292.446 167.951 291.673 167.385 290.975 166.291L289.372 167.479C290.126 168.875 291.692 169.723 293.936 169.723C296.858 169.723 298.782 168.102 298.782 165.311V156.787ZM293.973 163.897C292.295 163.897 290.975 162.765 290.975 161.049C290.975 159.314 292.295 158.202 293.973 158.202C295.501 158.202 296.877 159.314 296.877 161.049C296.877 162.765 295.501 163.897 293.973 163.897ZM314.074 164.311H308.624L311.114 161.935C313.018 160.125 313.961 158.956 313.961 157.146C313.961 154.826 312.245 153.242 309.737 153.242C307.21 153.242 305.475 154.807 305.381 157.278L307.229 157.655C307.323 155.901 308.247 154.996 309.718 154.996C311.076 154.996 312.019 155.882 312.019 157.183C312.019 158.692 311.019 159.578 309.907 160.615L305.532 164.839V166.141H314.074V164.311ZM320.949 153.242C317.763 153.242 315.613 155.901 315.613 159.823C315.613 163.746 317.763 166.405 320.949 166.405C324.136 166.405 326.286 163.746 326.286 159.823C326.286 155.901 324.136 153.242 320.949 153.242ZM320.949 164.538C318.951 164.538 317.668 162.614 317.668 159.823C317.668 157.033 318.951 155.109 320.949 155.109C322.948 155.109 324.231 157.033 324.231 159.823C324.231 162.614 322.948 164.538 320.949 164.538ZM336.375 164.311H330.925L333.414 161.935C335.319 160.125 336.262 158.956 336.262 157.146C336.262 154.826 334.546 153.242 332.038 153.242C329.511 153.242 327.776 154.807 327.682 157.278L329.53 157.655C329.624 155.901 330.548 154.996 332.019 154.996C333.377 154.996 334.319 155.882 334.319 157.183C334.319 158.692 333.32 159.578 332.207 160.615L327.833 164.839V166.141H336.375V164.311ZM346.153 164.311H340.704L343.193 161.935C345.097 160.125 346.04 158.956 346.04 157.146C346.04 154.826 344.324 153.242 341.816 153.242C339.289 153.242 337.555 154.807 337.46 157.278L339.308 157.655C339.403 155.901 340.327 154.996 341.797 154.996C343.155 154.996 344.098 155.882 344.098 157.183C344.098 158.692 343.099 159.578 341.986 160.615L337.611 164.839V166.141H346.153V164.311Z" fill="#0267FD"/>
<path d="M169.085 20.9425V19.9383H160.925V20.9425H164.446V29.4141H165.578V20.9425H169.085ZM176.031 22.4416H174.956V23.5589C174.334 22.7386 173.344 22.2719 172.184 22.2719C170.331 22.2719 168.705 23.7286 168.705 25.9349C168.705 28.1412 170.331 29.5979 172.184 29.5979C173.344 29.5979 174.334 29.1312 174.956 28.3109V29.4141H176.031V22.4416ZM172.354 28.6362C170.911 28.6362 169.752 27.5896 169.752 25.9349C169.752 24.2661 170.911 23.2195 172.354 23.2195C173.669 23.2195 174.956 24.2661 174.956 25.9349C174.956 27.5896 173.669 28.6362 172.354 28.6362ZM182.403 22.3709C181.116 22.3709 180.169 23.1205 179.603 24.1529V22.4416H178.514V29.4141H179.603V26.7269C179.603 24.8459 180.55 23.4458 182.403 23.4458C182.53 23.4458 182.686 23.4458 182.813 23.4599L182.898 22.4275C182.7 22.3709 182.573 22.3709 182.403 22.3709ZM190.626 22.4416H189.579V23.4033C189.014 22.6821 188.123 22.2719 186.963 22.2719C185.124 22.2719 183.526 23.6579 183.526 25.6238C183.526 27.6038 185.124 29.0039 186.963 29.0039C188.123 29.0039 189.014 28.5938 189.579 27.8583V28.7069C189.579 30.1919 188.604 31.1253 187.133 31.1253C185.832 31.1253 185.124 30.6021 184.629 29.6686L183.724 30.2909C184.262 31.4223 185.407 32.1012 187.133 32.1012C189.24 32.1012 190.626 30.8849 190.64 28.8483L190.626 22.4416ZM187.119 28.0705C185.704 28.0705 184.573 27.1088 184.573 25.6238C184.573 24.1388 185.704 23.2053 187.119 23.2053C188.42 23.2053 189.579 24.1388 189.579 25.6238C189.579 27.1088 188.42 28.0705 187.119 28.0705ZM199.505 25.7511C199.434 23.6721 197.963 22.2719 196.082 22.2719C194.159 22.2719 192.476 23.7145 192.476 25.9491C192.476 28.1695 194.159 29.5979 196.012 29.5979C197.582 29.5979 198.798 28.8342 199.349 27.3775L198.388 27.1512C197.893 28.2685 197.002 28.6503 196.012 28.6503C194.81 28.6503 193.622 27.7169 193.523 26.1471H199.505V25.7511ZM196.082 23.2195C197.242 23.2195 198.218 23.9691 198.416 25.3409H193.565C193.777 23.9691 194.951 23.2195 196.082 23.2195ZM205.191 28.1553C204.837 28.4099 204.399 28.5796 204.003 28.5796C203.225 28.5796 202.716 28.0705 202.716 27.1653V23.3468H205.205V22.4416H202.716V20.2212H201.627V22.4416H200.113V23.3468H201.627V27.2361C201.627 28.7776 202.546 29.5979 203.932 29.5979C204.498 29.5979 204.978 29.4423 205.544 29.0463L205.191 28.1553Z" fill="#94989F"/>
<path d="M28.8021 83.625L24.5593 74.1493H23.5269L19.284 83.625H20.4861L21.5469 81.2207H26.5393L27.6 83.625H28.8021ZM26.1009 80.2166H21.9853L24.0501 75.5353L26.1009 80.2166ZM38.6507 76.4829C37.4627 76.4829 36.5575 77.0344 36.0201 77.8971C35.6099 77.0061 34.7189 76.4829 33.6441 76.4829C32.5551 76.4829 31.7631 76.9496 31.2681 77.7133V76.6526H30.1932V83.625H31.2681V80.061C31.2681 78.4204 32.1025 77.4729 33.3895 77.4729C34.4219 77.4729 35.1715 78.1941 35.1715 79.2973V83.625H36.2464V80.061C36.2464 78.4204 37.0949 77.4729 38.3819 77.4729C39.4285 77.4729 40.1781 78.1941 40.1781 79.2973V83.625H41.2529V79.1134C41.2529 77.5294 40.1215 76.4829 38.6507 76.4829ZM46.6455 76.497C44.5665 76.497 42.94 77.9961 42.94 80.1317C42.94 82.2673 44.5665 83.7947 46.6455 83.7947C48.6962 83.7947 50.3367 82.2673 50.3367 80.1317C50.3367 77.9961 48.6962 76.497 46.6455 76.497ZM46.6455 82.8471C45.2029 82.8471 43.9866 81.744 43.9866 80.1317C43.9866 78.5336 45.2029 77.4446 46.6455 77.4446C48.0739 77.4446 49.276 78.5336 49.276 80.1317C49.276 81.744 48.0739 82.8471 46.6455 82.8471ZM58.5311 76.6526H57.4421V80.0044C57.4421 81.8147 56.4804 82.7906 55.0237 82.7906C53.864 82.7906 53.1002 81.9279 53.1002 80.6267V76.6526H52.0112V80.8247C52.0112 82.5926 53.1285 83.7947 54.8115 83.7947C55.9712 83.7947 56.8764 83.3139 57.4421 82.4794V83.6109H58.5311V76.6526ZM64.7119 76.4829C63.538 76.4829 62.647 76.9637 62.0813 77.8123V76.6526H61.0064V83.625H62.0813V80.2731C62.0813 78.4629 63.043 77.4729 64.4997 77.4729C65.6594 77.4729 66.4373 78.3497 66.4373 79.6509V83.625H67.5121V79.4529C67.5121 77.685 66.3949 76.4829 64.7119 76.4829ZM73.6646 82.3663C73.311 82.6209 72.8726 82.7906 72.4766 82.7906C71.6988 82.7906 71.1896 82.2814 71.1896 81.3763V77.5577H73.6788V76.6526H71.1896V74.4321H70.1006V76.6526H68.5873V77.5577H70.1006V81.447C70.1006 82.9886 71.0199 83.8089 72.4059 83.8089C72.9716 83.8089 73.4525 83.6533 74.0182 83.2573L73.6646 82.3663Z" fill="#94989F"/>
<path d="M20.3871 135.434V144.91H23.5269C26.8504 144.91 28.7739 142.845 28.7739 140.172C28.7739 137.485 26.8504 135.434 23.5269 135.434H20.3871ZM21.5044 143.892V136.439H23.5127C26.1716 136.439 27.6424 138.065 27.6424 140.172C27.6424 142.265 26.1716 143.892 23.5127 143.892H21.5044ZM37.1511 137.938H36.0621V141.29C36.0621 143.1 35.1004 144.076 33.6436 144.076C32.4839 144.076 31.7202 143.213 31.7202 141.912V137.938H30.6312V142.11C30.6312 143.878 31.7485 145.08 33.4315 145.08C34.5912 145.08 35.4964 144.599 36.0621 143.765V144.896H37.1511V137.938ZM43.5157 137.867C42.2287 137.867 41.2811 138.617 40.7154 139.649V137.938H39.6264V144.91H40.7154V142.223C40.7154 140.342 41.663 138.942 43.5157 138.942C43.643 138.942 43.7986 138.942 43.9258 138.956L44.0107 137.924C43.8127 137.867 43.6854 137.867 43.5157 137.867ZM51.8941 137.938H50.8193V139.055C50.197 138.235 49.207 137.768 48.0473 137.768C46.1945 137.768 44.5681 139.225 44.5681 141.431C44.5681 143.637 46.1945 145.094 48.0473 145.094C49.207 145.094 50.197 144.627 50.8193 143.807V144.91H51.8941V137.938ZM48.217 144.132C46.7744 144.132 45.6147 143.086 45.6147 141.431C45.6147 139.762 46.7744 138.716 48.217 138.716C49.5323 138.716 50.8193 139.762 50.8193 141.431C50.8193 143.086 49.5323 144.132 48.217 144.132ZM58.2097 143.651C57.8561 143.906 57.4177 144.076 57.0217 144.076C56.2438 144.076 55.7347 143.567 55.7347 142.661V138.843H58.2238V137.938H55.7347V135.717H54.6457V137.938H53.1324V138.843H54.6457V142.732C54.6457 144.274 55.565 145.094 56.951 145.094C57.5167 145.094 57.9975 144.938 58.5632 144.542L58.2097 143.651ZM60.5935 135.109C60.1692 135.109 59.8581 135.449 59.8581 135.83C59.8581 136.241 60.1692 136.552 60.5935 136.552C61.0178 136.552 61.3431 136.241 61.3431 135.83C61.3431 135.449 61.0178 135.109 60.5935 135.109ZM61.1451 144.91V137.938H60.0561V144.91H61.1451ZM66.8101 137.782C64.7311 137.782 63.1047 139.281 63.1047 141.417C63.1047 143.552 64.7311 145.08 66.8101 145.08C68.8608 145.08 70.5014 143.552 70.5014 141.417C70.5014 139.281 68.8608 137.782 66.8101 137.782ZM66.8101 144.132C65.3675 144.132 64.1512 143.029 64.1512 141.417C64.1512 139.819 65.3675 138.73 66.8101 138.73C68.2385 138.73 69.4407 139.819 69.4407 141.417C69.4407 143.029 68.2385 144.132 66.8101 144.132ZM76.051 137.768C74.8771 137.768 73.9861 138.249 73.4204 139.097V137.938H72.3456V144.91H73.4204V141.558C73.4204 139.748 74.3821 138.758 75.8389 138.758C76.9986 138.758 77.7764 139.635 77.7764 140.936V144.91H78.8513V140.738C78.8513 138.97 77.734 137.768 76.051 137.768Z" fill="#94989F"/>
<path d="M277.255 75.1534H282.927V74.1493H276.138V83.625H277.255V79.467H282.432V78.4629H277.255V75.1534ZM288.231 76.5819C286.944 76.5819 285.997 77.3314 285.431 78.3639V76.6526H284.342V83.625H285.431V80.9379C285.431 79.0569 286.379 77.6567 288.231 77.6567C288.359 77.6567 288.514 77.6567 288.642 77.6709L288.726 76.6384C288.528 76.5819 288.401 76.5819 288.231 76.5819ZM296.384 79.962C296.313 77.883 294.842 76.4829 292.961 76.4829C291.038 76.4829 289.355 77.9254 289.355 80.16C289.355 82.3804 291.038 83.8089 292.89 83.8089C294.46 83.8089 295.676 83.0451 296.228 81.5884L295.266 81.3621C294.771 82.4794 293.88 82.8613 292.89 82.8613C291.688 82.8613 290.5 81.9279 290.401 80.358H296.384V79.962ZM292.961 77.4304C294.121 77.4304 295.097 78.18 295.295 79.5519H290.444C290.656 78.18 291.83 77.4304 292.961 77.4304ZM304.926 76.6526H303.851V77.7699C303.229 76.9496 302.239 76.4829 301.079 76.4829C299.226 76.4829 297.6 77.9396 297.6 80.1459C297.6 82.3521 299.226 83.8089 301.079 83.8089C302.239 83.8089 303.229 83.3421 303.851 82.5219V86.0293H304.926V76.6526ZM301.249 82.8471C299.806 82.8471 298.646 81.8006 298.646 80.1459C298.646 78.477 299.806 77.4304 301.249 77.4304C302.564 77.4304 303.851 78.477 303.851 80.1459C303.851 81.8006 302.564 82.8471 301.249 82.8471ZM313.661 76.6526H312.572V80.0044C312.572 81.8147 311.61 82.7906 310.153 82.7906C308.993 82.7906 308.23 81.9279 308.23 80.6267V76.6526H307.141V80.8247C307.141 82.5926 308.258 83.7947 309.941 83.7947C311.101 83.7947 312.006 83.3139 312.572 82.4794V83.6109H313.661V76.6526ZM322.528 79.962C322.458 77.883 320.987 76.4829 319.106 76.4829C317.182 76.4829 315.499 77.9254 315.499 80.16C315.499 82.3804 317.182 83.8089 319.035 83.8089C320.605 83.8089 321.821 83.0451 322.373 81.5884L321.411 81.3621C320.916 82.4794 320.025 82.8613 319.035 82.8613C317.833 82.8613 316.645 81.9279 316.546 80.358H322.528V79.962ZM319.106 77.4304C320.266 77.4304 321.241 78.18 321.439 79.5519H316.588C316.801 78.18 317.974 77.4304 319.106 77.4304ZM328.087 76.4829C326.913 76.4829 326.022 76.9637 325.456 77.8123V76.6526H324.381V83.625H325.456V80.2731C325.456 78.4629 326.418 77.4729 327.875 77.4729C329.034 77.4729 329.812 78.3497 329.812 79.6509V83.625H330.887V79.4529C330.887 77.685 329.77 76.4829 328.087 76.4829ZM336.205 82.8047C334.777 82.8047 333.617 81.7723 333.617 80.1459C333.617 78.5477 334.777 77.4729 336.205 77.4729C337.237 77.4729 338.171 78.0386 338.482 79.1134L339.514 78.8023C339.09 77.3739 337.732 76.4829 336.205 76.4829C334.239 76.4829 332.57 77.9537 332.57 80.1459C332.57 82.3663 334.239 83.8089 336.205 83.8089C337.747 83.8089 339.118 82.932 339.5 81.5036L338.51 81.2349C338.171 82.2814 337.237 82.8047 336.205 82.8047ZM347.75 76.6526H346.548L344.002 82.2249L341.513 76.6526H340.296L343.422 83.526L342.276 86.0293H343.479L347.75 76.6526Z" fill="#94989F"/>
<path d="M279.292 135.251C277.27 135.251 275.926 136.34 275.926 137.966C275.926 139.479 276.987 140.116 278.203 140.384L280.339 140.851C281.399 141.092 281.88 141.445 281.88 142.336C281.88 143.383 281.017 144.104 279.575 144.104C278.104 144.104 277.015 143.354 276.803 142.025L275.629 142.265C275.855 144.062 277.468 145.094 279.476 145.094C281.597 145.094 282.997 144.005 282.997 142.28C282.997 140.766 281.923 140.102 280.607 139.819L278.542 139.352C277.651 139.168 277.114 138.786 277.114 137.938C277.114 136.919 277.991 136.226 279.264 136.226C280.565 136.226 281.512 136.962 281.725 138.107L282.842 137.853C282.517 136.297 281.187 135.251 279.292 135.251ZM288.7 143.651C288.346 143.906 287.908 144.076 287.512 144.076C286.734 144.076 286.225 143.567 286.225 142.661V138.843H288.714V137.938H286.225V135.717H285.136V137.938H283.622V138.843H285.136V142.732C285.136 144.274 286.055 145.094 287.441 145.094C288.007 145.094 288.487 144.938 289.053 144.542L288.7 143.651ZM296.845 137.938H295.77V139.055C295.147 138.235 294.157 137.768 292.998 137.768C291.145 137.768 289.519 139.225 289.519 141.431C289.519 143.637 291.145 145.094 292.998 145.094C294.157 145.094 295.147 144.627 295.77 143.807V144.91H296.845V137.938ZM293.167 144.132C291.725 144.132 290.565 143.086 290.565 141.431C290.565 139.762 291.725 138.716 293.167 138.716C294.483 138.716 295.77 139.762 295.77 141.431C295.77 143.086 294.483 144.132 293.167 144.132ZM303.217 137.867C301.93 137.867 300.982 138.617 300.416 139.649V137.938H299.327V144.91H300.416V142.223C300.416 140.342 301.364 138.942 303.217 138.942C303.344 138.942 303.5 138.942 303.627 138.956L303.712 137.924C303.514 137.867 303.386 137.867 303.217 137.867ZM309.127 143.651C308.773 143.906 308.335 144.076 307.939 144.076C307.161 144.076 306.652 143.567 306.652 142.661V138.843H309.141V137.938H306.652V135.717H305.563V137.938H304.049V138.843H305.563V142.732C305.563 144.274 306.482 145.094 307.868 145.094C308.434 145.094 308.915 144.938 309.48 144.542L309.127 143.651ZM314.423 135.434V144.91H317.563C320.887 144.91 322.81 142.845 322.81 140.172C322.81 137.485 320.887 135.434 317.563 135.434H314.423ZM315.541 143.892V136.439H317.549C320.208 136.439 321.679 138.065 321.679 140.172C321.679 142.265 320.208 143.892 317.549 143.892H315.541ZM331.456 137.938H330.381V139.055C329.759 138.235 328.769 137.768 327.609 137.768C325.756 137.768 324.13 139.225 324.13 141.431C324.13 143.637 325.756 145.094 327.609 145.094C328.769 145.094 329.759 144.627 330.381 143.807V144.91H331.456V137.938ZM327.779 144.132C326.336 144.132 325.176 143.086 325.176 141.431C325.176 139.762 326.336 138.716 327.779 138.716C329.094 138.716 330.381 139.762 330.381 141.431C330.381 143.086 329.094 144.132 327.779 144.132ZM337.771 143.651C337.418 143.906 336.979 144.076 336.583 144.076C335.806 144.076 335.296 143.567 335.296 142.661V138.843H337.786V137.938H335.296V135.717H334.207V137.938H332.694V138.843H334.207V142.732C334.207 144.274 335.127 145.094 336.513 145.094C337.078 145.094 337.559 144.938 338.125 144.542L337.771 143.651ZM345.69 141.247C345.619 139.168 344.149 137.768 342.268 137.768C340.344 137.768 338.661 139.211 338.661 141.445C338.661 143.666 340.344 145.094 342.197 145.094C343.767 145.094 344.983 144.33 345.535 142.874L344.573 142.647C344.078 143.765 343.187 144.146 342.197 144.146C340.995 144.146 339.807 143.213 339.708 141.643H345.69V141.247ZM342.268 138.716C343.427 138.716 344.403 139.465 344.601 140.837H339.75C339.962 139.465 341.136 138.716 342.268 138.716Z" fill="#94989F"/>
</svg>
