<svg width="46" height="46" viewBox="0 0 46 46" fill="none" xmlns="http://www.w3.org/2000/svg">
<rect x="0.838571" y="0.838571" width="44.3229" height="44.3229" rx="9.22428" fill="#F29747"/>
<path fill-rule="evenodd" clip-rule="evenodd" d="M28.5355 19.8421L37.2978 11.0799H38.1078L40.3054 8.88237H38.1244V6.70703L35.9268 8.9046V9.71477L26.9528 18.6888C26.094 18.2487 25.1206 18.0004 24.0893 18.0004C20.6166 18.0004 17.8014 20.8156 17.8014 24.2883C17.8014 27.761 20.6166 30.5762 24.0893 30.5762C27.562 30.5762 30.3772 27.761 30.3772 24.2883C30.3772 22.552 29.6734 20.98 28.5355 19.8421ZM26.5077 27.1904H25.2822L22.8964 23.3714V27.1904H21.6709V26.2231H20.7035V25.2557H21.6709V24.2883H20.7035V23.321H21.6709V21.3862H22.8964L25.2862 25.2132V21.3862H26.5077V23.321H27.4751V24.2883H26.5077V25.2557H27.4751V26.2231H26.5077V27.1904Z" fill="#FCFCFC"/>
<path d="M24.0893 10.2615C26.913 10.2615 29.5416 11.0958 31.7423 12.5312L30.3389 13.9345C28.5152 12.8312 26.3764 12.1962 24.0893 12.1962C17.4113 12.1962 11.9972 17.61 11.9972 24.2883C11.9972 30.9666 17.4113 36.3804 24.0893 36.3804C30.7674 36.3804 36.1814 30.9666 36.1814 24.2883C36.1814 21.2975 35.0955 18.5604 33.2968 16.4495L34.6685 15.0775C36.8158 17.5417 38.1161 20.7632 38.1161 24.2883C38.1161 29.5679 35.1994 34.1663 30.8892 36.5597L32.3119 38.7566C32.729 39.4002 32.2671 40.2499 31.5 40.2499H16.6787C15.9116 40.2499 15.4496 39.4002 15.8667 38.7566L17.2894 36.5597C12.9792 34.1663 10.0625 29.5679 10.0625 24.2883C10.0625 16.5415 16.3424 10.2615 24.0893 10.2615Z" fill="#FCFCFC"/>
<path d="M24.0893 14.131C25.8386 14.131 27.4847 14.5732 28.9217 15.3519L27.479 16.7947C26.4454 16.3264 25.2978 16.0657 24.0893 16.0657C19.5481 16.0657 15.8667 19.7471 15.8667 24.2883C15.8667 28.8295 19.5481 32.5109 24.0893 32.5109C28.6305 32.5109 32.3119 28.8295 32.3119 24.2883C32.3119 22.3663 31.6525 20.5984 30.5476 19.1983L31.9233 17.8226C33.3747 19.5791 34.2467 21.8319 34.2467 24.2883C34.2467 29.8981 29.6991 34.4457 24.0893 34.4457C18.4796 34.4457 13.932 29.8981 13.932 24.2883C13.932 18.6786 18.4796 14.131 24.0893 14.131Z" fill="#FCFCFC"/>
<rect x="0.838571" y="0.838571" width="44.3229" height="44.3229" rx="9.22428" stroke="#F29747" stroke-width="1.67714"/>
</svg>
