<svg width="325" height="271" viewBox="0 0 325 271" fill="none" xmlns="http://www.w3.org/2000/svg">
<g filter="url(#filter0_d_10669_34309)">
<rect x="20" y="23" width="279" height="225" rx="15" fill="white" shape-rendering="crispEdges"/>
<g clip-path="url(#clip0_10669_34309)">
<circle cx="159.5" cy="93.5" r="48" fill="#E9F4EC"/>
<path d="M190.7 93.5C190.7 101.775 187.413 109.711 181.562 115.562C175.711 121.413 167.775 124.7 159.5 124.7C151.225 124.7 143.289 121.413 137.438 115.562C131.587 109.711 128.3 101.775 128.3 93.5C128.3 85.2252 131.587 77.2894 137.438 71.4383C143.289 65.5871 151.225 62.3 159.5 62.3C162.464 62.3 165.35 62.729 168.08 63.509L174.203 57.386C169.679 55.514 164.726 54.5 159.5 54.5C154.378 54.5 149.307 55.5088 144.575 57.4687C139.844 59.4286 135.544 62.3014 131.923 65.9228C124.609 73.2368 120.5 83.1566 120.5 93.5C120.5 103.843 124.609 113.763 131.923 121.077C135.544 124.699 139.844 127.571 144.575 129.531C149.307 131.491 154.378 132.5 159.5 132.5C169.843 132.5 179.763 128.391 187.077 121.077C194.391 113.763 198.5 103.843 198.5 93.5H190.7ZM143.549 86.012L138.05 91.55L155.6 109.1L194.6 70.1L189.101 64.562L155.6 98.063L143.549 86.012Z" fill="#24903D"/>
</g>
<path d="M134.474 157.225C132.119 157.225 130.649 158.485 130.649 160.285C130.649 162.25 132.089 162.91 133.289 163.165L135.419 163.57C136.319 163.75 136.589 164.095 136.589 164.665C136.589 165.385 135.974 165.94 134.804 165.94C133.664 165.94 132.824 165.445 132.554 164.305L130.409 164.74C130.664 166.75 132.509 167.725 134.609 167.725C136.994 167.725 138.599 166.51 138.599 164.56C138.599 163 137.594 162.025 135.959 161.68L133.799 161.245C133.019 161.095 132.794 160.735 132.794 160.225C132.794 159.55 133.409 158.98 134.429 158.98C135.434 158.98 136.259 159.595 136.409 160.54L138.449 160.12C138.059 158.335 136.514 157.225 134.474 157.225ZM147.387 160.015H145.407V163.33C145.407 165.16 144.672 165.91 143.547 165.91C142.632 165.91 142.032 165.205 142.032 164.155V160.015H140.052V164.575C140.052 166.435 141.252 167.725 143.052 167.725C144.042 167.725 144.822 167.41 145.407 166.825V167.5H147.387V160.015ZM152.895 165.91C151.65 165.91 150.81 165.055 150.81 163.765C150.81 162.49 151.65 161.605 152.895 161.605C153.765 161.605 154.47 162.04 154.74 163.09L156.645 162.55C156.15 160.87 154.635 159.79 152.895 159.79C150.705 159.79 148.89 161.41 148.89 163.765C148.89 166.12 150.705 167.725 152.895 167.725C154.68 167.725 156.225 166.63 156.645 164.92L154.815 164.455C154.47 165.49 153.765 165.91 152.895 165.91ZM161.553 165.91C160.308 165.91 159.468 165.055 159.468 163.765C159.468 162.49 160.308 161.605 161.553 161.605C162.423 161.605 163.128 162.04 163.398 163.09L165.303 162.55C164.808 160.87 163.293 159.79 161.553 159.79C159.363 159.79 157.548 161.41 157.548 163.765C157.548 166.12 159.363 167.725 161.553 167.725C163.338 167.725 164.883 166.63 165.303 164.92L163.473 164.455C163.128 165.49 162.423 165.91 161.553 165.91ZM173.87 163.615C173.795 161.335 172.07 159.79 170.075 159.79C167.93 159.79 166.205 161.41 166.205 163.765C166.205 166.12 167.93 167.725 170.045 167.725C171.68 167.725 173.015 166.975 173.675 165.415L171.905 165.04C171.365 165.955 170.63 166.03 170.045 166.03C169.13 166.03 168.365 165.37 168.17 164.29H173.87V163.615ZM170.075 161.515C170.87 161.515 171.59 161.935 171.845 162.895H168.23C168.47 161.965 169.325 161.515 170.075 161.515ZM174.744 165.52C174.939 167.08 176.454 167.725 178.104 167.725C180.054 167.725 181.389 166.87 181.389 165.22C181.389 164.215 180.744 163.39 179.424 163.105L177.639 162.715C177.054 162.58 176.964 162.325 176.964 162.085C176.964 161.74 177.189 161.35 177.984 161.35C178.809 161.35 179.334 161.785 179.409 162.385L181.299 162.01C181.044 160.705 179.814 159.79 178.044 159.79C176.154 159.79 174.984 160.825 174.984 162.265C174.984 163.345 175.749 164.11 177.099 164.395L178.629 164.71C179.274 164.845 179.454 165.115 179.454 165.385C179.454 165.805 179.019 166.135 178.284 166.135C177.504 166.135 176.844 165.88 176.739 165.115L174.744 165.52ZM182.142 165.52C182.337 167.08 183.852 167.725 185.502 167.725C187.452 167.725 188.787 166.87 188.787 165.22C188.787 164.215 188.142 163.39 186.822 163.105L185.037 162.715C184.452 162.58 184.362 162.325 184.362 162.085C184.362 161.74 184.587 161.35 185.382 161.35C186.207 161.35 186.732 161.785 186.807 162.385L188.697 162.01C188.442 160.705 187.212 159.79 185.442 159.79C183.552 159.79 182.382 160.825 182.382 162.265C182.382 163.345 183.147 164.11 184.497 164.395L186.027 164.71C186.672 164.845 186.852 165.115 186.852 165.385C186.852 165.805 186.417 166.135 185.682 166.135C184.902 166.135 184.242 165.88 184.137 165.115L182.142 165.52Z" fill="#24903D"/>
<path d="M61.4314 187.68L64.7794 182.46H63.6874L60.9514 186.744L58.2154 182.46H57.1594L60.4834 187.692V190.5H61.4314V187.68ZM67.2127 184.452C65.4487 184.452 64.0687 185.724 64.0687 187.536C64.0687 189.348 65.4487 190.644 67.2127 190.644C68.9527 190.644 70.3447 189.348 70.3447 187.536C70.3447 185.724 68.9527 184.452 67.2127 184.452ZM67.2127 189.84C65.9887 189.84 64.9567 188.904 64.9567 187.536C64.9567 186.18 65.9887 185.256 67.2127 185.256C68.4247 185.256 69.4447 186.18 69.4447 187.536C69.4447 188.904 68.4247 189.84 67.2127 189.84ZM77.2975 184.584H76.3735V187.428C76.3735 188.964 75.5575 189.792 74.3215 189.792C73.3375 189.792 72.6895 189.06 72.6895 187.956V184.584H71.7655V188.124C71.7655 189.624 72.7135 190.644 74.1415 190.644C75.1255 190.644 75.8935 190.236 76.3735 189.528V190.488H77.2975V184.584ZM85.5652 184.44C84.5692 184.44 83.8132 184.848 83.3332 185.568V181.86H82.4212V190.5H83.3332V187.656C83.3332 186.12 84.1492 185.28 85.3852 185.28C86.3692 185.28 87.0292 186.024 87.0292 187.128V190.5H87.9412V186.96C87.9412 185.46 86.9932 184.44 85.5652 184.44ZM95.5372 184.584H94.6252V185.532C94.0972 184.836 93.2572 184.44 92.2732 184.44C90.7012 184.44 89.3212 185.676 89.3212 187.548C89.3212 189.42 90.7012 190.656 92.2732 190.656C93.2572 190.656 94.0972 190.26 94.6252 189.564V190.5H95.5372V184.584ZM92.4172 189.84C91.1932 189.84 90.2092 188.952 90.2092 187.548C90.2092 186.132 91.1932 185.244 92.4172 185.244C93.5332 185.244 94.6252 186.132 94.6252 187.548C94.6252 188.952 93.5332 189.84 92.4172 189.84ZM103.032 184.584H102.036L99.9239 189.42L97.7999 184.584H96.8039L99.4199 190.5H100.416L103.032 184.584ZM109.537 187.392C109.477 185.628 108.229 184.44 106.633 184.44C105.001 184.44 103.573 185.664 103.573 187.56C103.573 189.444 105.001 190.656 106.573 190.656C107.905 190.656 108.937 190.008 109.405 188.772L108.589 188.58C108.169 189.528 107.413 189.852 106.573 189.852C105.553 189.852 104.545 189.06 104.461 187.728H109.537V187.392ZM106.633 185.244C107.617 185.244 108.445 185.88 108.613 187.044H104.497C104.677 185.88 105.673 185.244 106.633 185.244ZM113.628 188.904C113.772 190.056 114.852 190.656 116.208 190.656C117.624 190.656 118.596 189.996 118.596 188.832C118.596 187.932 117.936 187.476 117.072 187.284L115.644 186.972C115.068 186.84 114.744 186.624 114.744 186.156C114.744 185.592 115.212 185.184 116.052 185.184C116.928 185.184 117.492 185.628 117.612 186.276L118.488 186.084C118.272 185.124 117.408 184.44 116.076 184.44C114.72 184.44 113.832 185.16 113.832 186.228C113.832 187.044 114.384 187.536 115.368 187.74L116.724 188.04C117.324 188.172 117.696 188.4 117.696 188.892C117.696 189.504 117.132 189.9 116.28 189.9C115.344 189.9 114.624 189.48 114.54 188.7L113.628 188.904ZM125.532 184.584H124.608V187.428C124.608 188.964 123.792 189.792 122.556 189.792C121.572 189.792 120.924 189.06 120.924 187.956V184.584H120V188.124C120 189.624 120.948 190.644 122.376 190.644C123.36 190.644 124.128 190.236 124.608 189.528V190.488H125.532V184.584ZM130.176 189.804C128.964 189.804 127.98 188.928 127.98 187.548C127.98 186.192 128.964 185.28 130.176 185.28C131.052 185.28 131.844 185.76 132.108 186.672L132.984 186.408C132.624 185.196 131.472 184.44 130.176 184.44C128.508 184.44 127.092 185.688 127.092 187.548C127.092 189.432 128.508 190.656 130.176 190.656C131.484 190.656 132.648 189.912 132.972 188.7L132.132 188.472C131.844 189.36 131.052 189.804 130.176 189.804ZM137.09 189.804C135.878 189.804 134.894 188.928 134.894 187.548C134.894 186.192 135.878 185.28 137.09 185.28C137.966 185.28 138.758 185.76 139.022 186.672L139.898 186.408C139.538 185.196 138.386 184.44 137.09 184.44C135.422 184.44 134.006 185.688 134.006 187.548C134.006 189.432 135.422 190.656 137.09 190.656C138.398 190.656 139.562 189.912 139.886 188.7L139.046 188.472C138.758 189.36 137.966 189.804 137.09 189.804ZM146.884 187.392C146.824 185.628 145.576 184.44 143.98 184.44C142.348 184.44 140.92 185.664 140.92 187.56C140.92 189.444 142.348 190.656 143.92 190.656C145.252 190.656 146.284 190.008 146.752 188.772L145.936 188.58C145.516 189.528 144.76 189.852 143.92 189.852C142.9 189.852 141.892 189.06 141.808 187.728H146.884V187.392ZM143.98 185.244C144.964 185.244 145.792 185.88 145.96 187.044H141.844C142.024 185.88 143.02 185.244 143.98 185.244ZM147.952 188.904C148.096 190.056 149.176 190.656 150.532 190.656C151.948 190.656 152.92 189.996 152.92 188.832C152.92 187.932 152.26 187.476 151.396 187.284L149.968 186.972C149.392 186.84 149.068 186.624 149.068 186.156C149.068 185.592 149.536 185.184 150.376 185.184C151.252 185.184 151.816 185.628 151.936 186.276L152.812 186.084C152.596 185.124 151.732 184.44 150.4 184.44C149.044 184.44 148.156 185.16 148.156 186.228C148.156 187.044 148.708 187.536 149.692 187.74L151.048 188.04C151.648 188.172 152.02 188.4 152.02 188.892C152.02 189.504 151.456 189.9 150.604 189.9C149.668 189.9 148.948 189.48 148.864 188.7L147.952 188.904ZM153.906 188.904C154.05 190.056 155.13 190.656 156.486 190.656C157.902 190.656 158.874 189.996 158.874 188.832C158.874 187.932 158.214 187.476 157.35 187.284L155.922 186.972C155.346 186.84 155.022 186.624 155.022 186.156C155.022 185.592 155.49 185.184 156.33 185.184C157.206 185.184 157.77 185.628 157.89 186.276L158.766 186.084C158.55 185.124 157.686 184.44 156.354 184.44C154.998 184.44 154.11 185.16 154.11 186.228C154.11 187.044 154.662 187.536 155.646 187.74L157.002 188.04C157.602 188.172 157.974 188.4 157.974 188.892C157.974 189.504 157.41 189.9 156.558 189.9C155.622 189.9 154.902 189.48 154.818 188.7L153.906 188.904ZM163.697 185.352V184.584H161.549V183.708C161.549 182.952 162.005 182.484 162.725 182.484C162.941 182.484 163.181 182.532 163.397 182.616L163.625 181.872C163.337 181.728 163.013 181.656 162.665 181.656C161.429 181.656 160.637 182.46 160.637 183.708V184.584H159.605V185.352H160.637V190.5H161.549V185.352H163.697ZM170.087 184.584H169.163V187.428C169.163 188.964 168.347 189.792 167.111 189.792C166.127 189.792 165.479 189.06 165.479 187.956V184.584H164.555V188.124C164.555 189.624 165.503 190.644 166.931 190.644C167.915 190.644 168.683 190.236 169.163 189.528V190.488H170.087V184.584ZM173.099 190.5V181.86H172.187V190.5H173.099ZM176.122 190.5V181.86H175.21V190.5H176.122ZM183.718 184.584H182.698L180.538 189.312L178.426 184.584H177.394L180.046 190.416L179.074 192.54H180.094L183.718 184.584ZM190.563 189.804C189.351 189.804 188.367 188.928 188.367 187.548C188.367 186.192 189.351 185.28 190.563 185.28C191.439 185.28 192.231 185.76 192.495 186.672L193.371 186.408C193.011 185.196 191.859 184.44 190.563 184.44C188.895 184.44 187.479 185.688 187.479 187.548C187.479 189.432 188.895 190.656 190.563 190.656C191.871 190.656 193.035 189.912 193.359 188.7L192.519 188.472C192.231 189.36 191.439 189.804 190.563 189.804ZM198.233 184.524C197.141 184.524 196.337 185.16 195.857 186.036V184.584H194.933V190.5H195.857V188.22C195.857 186.624 196.661 185.436 198.233 185.436C198.341 185.436 198.473 185.436 198.581 185.448L198.653 184.572C198.485 184.524 198.377 184.524 198.233 184.524ZM205.15 187.392C205.09 185.628 203.842 184.44 202.246 184.44C200.614 184.44 199.186 185.664 199.186 187.56C199.186 189.444 200.614 190.656 202.186 190.656C203.518 190.656 204.55 190.008 205.018 188.772L204.202 188.58C203.782 189.528 203.026 189.852 202.186 189.852C201.166 189.852 200.158 189.06 200.074 187.728H205.15V187.392ZM202.246 185.244C203.23 185.244 204.058 185.88 204.226 187.044H200.11C200.29 185.88 201.286 185.244 202.246 185.244ZM212.338 184.584H211.426V185.532C210.898 184.836 210.058 184.44 209.074 184.44C207.502 184.44 206.122 185.676 206.122 187.548C206.122 189.42 207.502 190.656 209.074 190.656C210.058 190.656 210.898 190.26 211.426 189.564V190.5H212.338V184.584ZM209.218 189.84C207.994 189.84 207.01 188.952 207.01 187.548C207.01 186.132 207.994 185.244 209.218 185.244C210.334 185.244 211.426 186.132 211.426 187.548C211.426 188.952 210.334 189.84 209.218 189.84ZM217.697 189.432C217.397 189.648 217.025 189.792 216.689 189.792C216.029 189.792 215.597 189.36 215.597 188.592V185.352H217.709V184.584H215.597V182.7H214.673V184.584H213.389V185.352H214.673V188.652C214.673 189.96 215.453 190.656 216.629 190.656C217.109 190.656 217.517 190.524 217.997 190.188L217.697 189.432ZM224.416 187.392C224.356 185.628 223.108 184.44 221.512 184.44C219.88 184.44 218.452 185.664 218.452 187.56C218.452 189.444 219.88 190.656 221.452 190.656C222.784 190.656 223.816 190.008 224.284 188.772L223.468 188.58C223.048 189.528 222.292 189.852 221.452 189.852C220.432 189.852 219.424 189.06 219.34 187.728H224.416V187.392ZM221.512 185.244C222.496 185.244 223.324 185.88 223.492 187.044H219.376C219.556 185.88 220.552 185.244 221.512 185.244ZM231.664 181.86H230.752V185.532C230.224 184.836 229.384 184.44 228.4 184.44C226.828 184.44 225.448 185.676 225.448 187.548C225.448 189.42 226.828 190.656 228.4 190.656C229.384 190.656 230.224 190.26 230.752 189.564V190.5H231.664V181.86ZM228.544 189.84C227.32 189.84 226.336 188.952 226.336 187.548C226.336 186.132 227.32 185.244 228.544 185.244C229.66 185.244 230.752 186.132 230.752 187.548C230.752 188.952 229.66 189.84 228.544 189.84ZM242.288 184.584H241.268L239.108 189.312L236.996 184.584H235.964L238.616 190.416L237.644 192.54H238.664L242.288 184.584ZM245.982 184.452C244.218 184.452 242.838 185.724 242.838 187.536C242.838 189.348 244.218 190.644 245.982 190.644C247.722 190.644 249.114 189.348 249.114 187.536C249.114 185.724 247.722 184.452 245.982 184.452ZM245.982 189.84C244.758 189.84 243.726 188.904 243.726 187.536C243.726 186.18 244.758 185.256 245.982 185.256C247.194 185.256 248.214 186.18 248.214 187.536C248.214 188.904 247.194 189.84 245.982 189.84ZM256.067 184.584H255.143V187.428C255.143 188.964 254.327 189.792 253.091 189.792C252.107 189.792 251.459 189.06 251.459 187.956V184.584H250.535V188.124C250.535 189.624 251.483 190.644 252.911 190.644C253.895 190.644 254.663 190.236 255.143 189.528V190.488H256.067V184.584ZM261.467 184.524C260.375 184.524 259.571 185.16 259.091 186.036V184.584H258.167V190.5H259.091V188.22C259.091 186.624 259.895 185.436 261.467 185.436C261.575 185.436 261.707 185.436 261.815 185.448L261.887 184.572C261.719 184.524 261.611 184.524 261.467 184.524Z" fill="#000A1A"/>
<path d="M91.49 211.45H89.72L85.895 218.395L82.085 211.45H80.3V221.5H82.28V215.725L85.445 221.5H86.36L89.51 215.725V221.5H91.49V211.45ZM101.116 214.015H99.1361V214.615C98.5061 214.09 97.6811 213.79 96.6611 213.79C94.7561 213.79 92.9861 215.41 92.9861 217.765C92.9861 220.12 94.7561 221.725 96.6611 221.725C97.6811 221.725 98.5061 221.425 99.1361 220.915V221.5H101.116V214.015ZM97.0061 220C95.8061 220 94.9061 219.145 94.9061 217.765C94.9061 216.385 95.8061 215.515 97.0061 215.515C98.0711 215.515 99.1361 216.385 99.1361 217.765C99.1361 219.145 98.0711 220 97.0061 220ZM106.615 219.91C105.37 219.91 104.53 219.055 104.53 217.765C104.53 216.49 105.37 215.605 106.615 215.605C107.485 215.605 108.19 216.04 108.46 217.09L110.365 216.55C109.87 214.87 108.355 213.79 106.615 213.79C104.425 213.79 102.61 215.41 102.61 217.765C102.61 220.12 104.425 221.725 106.615 221.725C108.4 221.725 109.945 220.63 110.365 218.92L108.535 218.455C108.19 219.49 107.485 219.91 106.615 219.91ZM116.322 213.79C115.302 213.79 114.477 214.09 113.847 214.615V210.7H111.867V221.5H113.847V220.915C114.477 221.425 115.302 221.725 116.322 221.725C118.227 221.725 119.997 220.12 119.997 217.765C119.997 215.41 118.227 213.79 116.322 213.79ZM115.977 220C114.912 220 113.847 219.145 113.847 217.765C113.847 216.385 114.912 215.515 115.977 215.515C117.177 215.515 118.077 216.385 118.077 217.765C118.077 219.145 117.177 220 115.977 220ZM124.971 213.835C122.736 213.835 120.891 215.41 120.891 217.765C120.891 220.12 122.736 221.695 124.971 221.695C127.161 221.695 129.006 220.12 129.006 217.765C129.006 215.41 127.161 213.835 124.971 213.835ZM124.971 220C123.891 220 122.811 219.16 122.811 217.765C122.811 216.37 123.891 215.53 124.971 215.53C126.006 215.53 127.086 216.37 127.086 217.765C127.086 219.16 126.006 220 124.971 220ZM133.98 213.835C131.745 213.835 129.9 215.41 129.9 217.765C129.9 220.12 131.745 221.695 133.98 221.695C136.17 221.695 138.015 220.12 138.015 217.765C138.015 215.41 136.17 213.835 133.98 213.835ZM133.98 220C132.9 220 131.82 219.16 131.82 217.765C131.82 216.37 132.9 215.53 133.98 215.53C135.015 215.53 136.095 216.37 136.095 217.765C136.095 219.16 135.015 220 133.98 220ZM147.414 221.5L143.409 217.6L147.024 214.015H144.534L141.849 216.625H141.489V210.7H139.509V221.5H141.489V218.575H141.834L144.774 221.5H147.414ZM152.107 211.45V221.5H154.147V218.215H156.787C159.097 218.215 160.507 216.865 160.507 214.825C160.507 212.815 159.097 211.45 156.787 211.45H152.107ZM154.147 216.37V213.295H156.787C157.882 213.295 158.482 213.925 158.482 214.825C158.482 215.755 157.882 216.37 156.787 216.37H154.147ZM166.747 213.91C165.532 213.91 164.662 214.51 164.062 215.38V214.015H162.082V221.5H164.062V219.085C164.062 217 164.902 215.875 166.732 215.875H167.167L167.272 213.97C167.092 213.91 166.942 213.91 166.747 213.91ZM171.92 213.835C169.685 213.835 167.84 215.41 167.84 217.765C167.84 220.12 169.685 221.695 171.92 221.695C174.11 221.695 175.955 220.12 175.955 217.765C175.955 215.41 174.11 213.835 171.92 213.835ZM171.92 220C170.84 220 169.76 219.16 169.76 217.765C169.76 216.37 170.84 215.53 171.92 215.53C172.955 215.53 174.035 216.37 174.035 217.765C174.035 219.16 172.955 220 171.92 220ZM189.076 213.295V211.45H180.346V213.295H183.691V221.5H185.731V213.295H189.076ZM196.609 214.015H194.629V214.615C193.999 214.09 193.174 213.79 192.154 213.79C190.249 213.79 188.479 215.41 188.479 217.765C188.479 220.12 190.249 221.725 192.154 221.725C193.174 221.725 193.999 221.425 194.629 220.915V221.5H196.609V214.015ZM192.499 220C191.299 220 190.399 219.145 190.399 217.765C190.399 216.385 191.299 215.515 192.499 215.515C193.564 215.515 194.629 216.385 194.629 217.765C194.629 219.145 193.564 220 192.499 220ZM203.368 213.91C202.153 213.91 201.283 214.51 200.683 215.38V214.015H198.703V221.5H200.683V219.085C200.683 217 201.523 215.875 203.353 215.875H203.788L203.893 213.97C203.713 213.91 203.563 213.91 203.368 213.91ZM212.351 214.015H210.446V214.48C209.891 214.045 209.126 213.79 208.091 213.79C206.216 213.79 204.461 215.365 204.461 217.405C204.461 219.46 206.216 221.05 208.091 221.05C209.126 221.05 209.891 220.81 210.446 220.36V220.48C210.446 221.785 209.621 222.565 208.361 222.565C207.386 222.565 206.906 222.22 206.321 221.485L204.716 222.7C205.361 223.735 206.621 224.35 208.361 224.35C210.776 224.35 212.366 223.075 212.366 220.78L212.351 214.015ZM208.436 219.355C207.251 219.355 206.366 218.575 206.366 217.405C206.366 216.235 207.251 215.455 208.436 215.455C209.486 215.455 210.446 216.235 210.446 217.405C210.446 218.575 209.486 219.355 208.436 219.355ZM221.53 217.615C221.455 215.335 219.73 213.79 217.735 213.79C215.59 213.79 213.865 215.41 213.865 217.765C213.865 220.12 215.59 221.725 217.705 221.725C219.34 221.725 220.675 220.975 221.335 219.415L219.565 219.04C219.025 219.955 218.29 220.03 217.705 220.03C216.79 220.03 216.025 219.37 215.83 218.29H221.53V217.615ZM217.735 215.515C218.53 215.515 219.25 215.935 219.505 216.895H215.89C216.13 215.965 216.985 215.515 217.735 215.515ZM227.909 219.52C227.519 219.73 227.009 219.88 226.664 219.88C226.004 219.88 225.569 219.49 225.569 218.59V215.635H228.014V214.015H225.569V211.75H223.589V214.015H221.984V215.635H223.589V218.74C223.589 220.795 224.759 221.725 226.529 221.725C227.159 221.725 227.699 221.59 228.479 221.17L227.909 219.52Z" fill="#000A1A"/>
</g>
<defs>
<filter id="filter0_d_10669_34309" x="0.5" y="0.5" width="324" height="270" filterUnits="userSpaceOnUse" color-interpolation-filters="sRGB">
<feFlood flood-opacity="0" result="BackgroundImageFix"/>
<feColorMatrix in="SourceAlpha" type="matrix" values="0 0 0 0 0 0 0 0 0 0 0 0 0 0 0 0 0 0 127 0" result="hardAlpha"/>
<feOffset dx="3"/>
<feGaussianBlur stdDeviation="11.25"/>
<feComposite in2="hardAlpha" operator="out"/>
<feColorMatrix type="matrix" values="0 0 0 0 0 0 0 0 0 0 0 0 0 0 0 0 0 0 0.07 0"/>
<feBlend mode="normal" in2="BackgroundImageFix" result="effect1_dropShadow_10669_34309"/>
<feBlend mode="normal" in="SourceGraphic" in2="effect1_dropShadow_10669_34309" result="shape"/>
</filter>
<clipPath id="clip0_10669_34309">
<rect width="96" height="96" fill="white" transform="translate(111.5 45.5)"/>
</clipPath>
</defs>
</svg>
