<svg width="46" height="47" viewBox="0 0 46 47" fill="none" xmlns="http://www.w3.org/2000/svg">
<rect x="0.5" y="1.01953" width="45" height="45" rx="5.5" fill="#0267FD"/>
<path d="M30.3252 31.5469V34.3705" stroke="white" stroke-width="2.66582" stroke-linecap="round" stroke-linejoin="round"/>
<path d="M15.2666 31.5469V34.3705" stroke="white" stroke-width="2.66582" stroke-linecap="round" stroke-linejoin="round"/>
<path d="M33.149 13.6641H12.4422C11.9224 13.6641 11.501 14.0855 11.501 14.6053V30.606C11.501 31.1259 11.9224 31.5472 12.4422 31.5472H33.149C33.6689 31.5472 34.0903 31.1259 34.0903 30.606V14.6053C34.0903 14.0855 33.6689 13.6641 33.149 13.6641Z" stroke="white" stroke-width="2.66582" stroke-linecap="round" stroke-linejoin="round"/>
<path d="M25.6197 24.9602C26.6594 24.9602 27.5022 24.1174 27.5022 23.0778C27.5022 22.0381 26.6594 21.1953 25.6197 21.1953C24.5801 21.1953 23.7373 22.0381 23.7373 23.0778C23.7373 24.1174 24.5801 24.9602 25.6197 24.9602Z" fill="white"/>
<path d="M25.6182 23.0703H34.0891" stroke="white" stroke-width="2.66582" stroke-linecap="round" stroke-linejoin="round"/>
<path d="M25.6182 27.7833C28.2173 27.7833 30.3243 25.6763 30.3243 23.0772C30.3243 20.4781 28.2173 18.3711 25.6182 18.3711C23.0191 18.3711 20.9121 20.4781 20.9121 23.0772C20.9121 25.6763 23.0191 27.7833 25.6182 27.7833Z" stroke="white" stroke-width="2.66582" stroke-linecap="round" stroke-linejoin="round"/>
<rect x="0.5" y="1.01953" width="45" height="45" rx="5.5" stroke="#0267FD"/>
</svg>
