<svg width="358" height="189" viewBox="0 0 358 189" fill="none" xmlns="http://www.w3.org/2000/svg">
<rect x="0.5" y="0.5" width="357" height="187.615" rx="7.5" fill="white"/>
<path d="M30.3845 26.1487H28.4201V31.3627H21.7741V26.1487H19.8097V38.4492H21.7741V33.1618H28.4201V38.4492H30.3845V26.1487ZM37.4045 29.1412C34.7057 29.1412 32.5027 31.0689 32.5027 33.8962C32.5027 36.7235 34.7057 38.6695 37.4045 38.6695C40.0849 38.6695 42.2696 36.7235 42.2696 33.8962C42.2696 31.0689 40.0849 29.1412 37.4045 29.1412ZM37.4045 37.0172C35.8073 37.0172 34.3753 35.7872 34.3753 33.8962C34.3753 32.0052 35.8073 30.7752 37.4045 30.7752C38.965 30.7752 40.4154 32.0052 40.4154 33.8962C40.4154 35.7872 38.965 37.0172 37.4045 37.0172ZM52.8897 29.3432H50.9804V33.5474C50.9804 35.8422 49.9156 36.9438 48.2816 36.9438C46.9598 36.9438 46.0969 35.934 46.0969 34.447V29.3432H44.1876V34.8325C44.1876 37.1274 45.6379 38.7062 47.841 38.7062C49.1812 38.7062 50.246 38.2106 50.9804 37.3293V38.4492H52.8897V29.3432ZM54.896 36.0075C55.1347 37.8434 56.8788 38.7062 58.9166 38.7062C61.1932 38.7062 62.7537 37.6781 62.7537 35.7688C62.7537 34.4837 61.8541 33.6208 60.3854 33.3087L58.219 32.8314C57.4112 32.6478 57.1175 32.3173 57.1175 31.8033C57.1175 31.1607 57.6132 30.6099 58.7331 30.6099C59.908 30.6099 60.6607 31.2158 60.8076 32.097L62.6252 31.7115C62.2947 30.1877 60.8811 29.0861 58.7881 29.0861C56.6034 29.0861 55.1898 30.2795 55.1898 31.9685C55.1898 33.2536 56.0894 34.0981 57.6682 34.447L59.651 34.8509C60.4955 35.0344 60.8811 35.3833 60.8811 35.934C60.8811 36.65 60.1834 37.1457 59.0819 37.1457C57.8885 37.1457 56.9339 36.6868 56.8054 35.6036L54.896 36.0075ZM73.4002 33.6942C73.3084 30.9588 71.2889 29.0861 68.8471 29.0861C66.2769 29.0861 64.1289 31.0138 64.1289 33.9146C64.1289 36.7969 66.2952 38.7062 68.7737 38.7062C70.7932 38.7062 72.4088 37.7516 73.1615 35.8422L71.4541 35.4751C70.8115 36.7602 69.7834 37.0539 68.7737 37.0539C67.4335 37.0539 66.2034 36.0442 66.0198 34.3552H73.4002V33.6942ZM68.8471 30.7752C70.0955 30.7752 71.142 31.5095 71.4357 32.9966H66.0749C66.3687 31.5279 67.6538 30.7752 68.8471 30.7752ZM90.6249 38.4492L86.182 33.529C88.5136 33.4005 90.0558 31.9685 90.0558 29.8572C90.0558 27.6358 88.3667 26.1487 85.8332 26.1487H80.0501V38.4492H82.0145V33.5474H83.7954L88.1831 38.4492H90.6249ZM82.0145 31.7666V27.9295H85.8332C87.1918 27.9295 88.0914 28.7006 88.0914 29.8572C88.0914 30.9955 87.1918 31.7666 85.8332 31.7666H82.0145ZM100.58 33.6942C100.488 30.9588 98.4688 29.0861 96.027 29.0861C93.4568 29.0861 91.3088 31.0138 91.3088 33.9146C91.3088 36.7969 93.4751 38.7062 95.9536 38.7062C97.9731 38.7062 99.5887 37.7516 100.341 35.8422L98.634 35.4751C97.9914 36.7602 96.9633 37.0539 95.9536 37.0539C94.6134 37.0539 93.3833 36.0442 93.1997 34.3552H100.58V33.6942ZM96.027 30.7752C97.2754 30.7752 98.3219 31.5095 98.6156 32.9966H93.2548C93.5486 31.5279 94.8337 30.7752 96.027 30.7752ZM107.761 29.0861C106.403 29.0861 105.338 29.5818 104.603 30.4631V29.3432H102.694V38.4492H104.603V34.245C104.603 31.9501 105.687 30.8486 107.321 30.8486C108.624 30.8486 109.487 31.84 109.487 33.3271V38.4492H111.415V32.9415C111.415 30.665 109.946 29.0861 107.761 29.0861ZM119.55 36.4114C119.072 36.7235 118.485 36.9071 118.008 36.9071C117.108 36.9071 116.502 36.3563 116.502 35.218V30.922H119.623V29.3432H116.502V26.5159H114.593V29.3432H112.628V30.922H114.593V35.3466C114.593 37.6047 115.915 38.7062 117.879 38.7062C118.65 38.7062 119.274 38.5227 120.137 38.0086L119.55 36.4114Z" fill="#0267FD"/>
<rect x="279.282" y="18.3594" width="60.359" height="28.1795" rx="14.0897" fill="#FDF5E9"/>
<path d="M297.866 36.9492L293.736 27.7238H292.73L288.6 36.9492H289.77L290.803 34.6084H295.663L296.696 36.9492H297.866ZM295.236 33.6308H291.23L293.24 29.0732L295.236 33.6308ZM302.005 36.1506C300.615 36.1506 299.485 35.1454 299.485 33.562C299.485 32.0061 300.615 30.9596 302.005 30.9596C303.01 30.9596 303.919 31.5104 304.222 32.5568L305.227 32.2539C304.814 30.8632 303.492 29.9958 302.005 29.9958C300.091 29.9958 298.467 31.4278 298.467 33.562C298.467 35.7238 300.091 37.1282 302.005 37.1282C303.506 37.1282 304.842 36.2745 305.213 34.8838L304.25 34.6222C303.919 35.6411 303.01 36.1506 302.005 36.1506ZM310.751 35.7238C310.407 35.9716 309.98 36.1368 309.594 36.1368C308.837 36.1368 308.341 35.6411 308.341 34.7599V31.0422H310.765V30.161H308.341V27.9992H307.281V30.161H305.808V31.0422H307.281V34.8288C307.281 36.3296 308.176 37.1282 309.526 37.1282C310.076 37.1282 310.545 36.9768 311.095 36.5912L310.751 35.7238ZM313.072 27.4071C312.659 27.4071 312.356 27.7376 312.356 28.1094C312.356 28.5087 312.659 28.8116 313.072 28.8116C313.485 28.8116 313.802 28.5087 313.802 28.1094C313.802 27.7376 313.485 27.4071 313.072 27.4071ZM313.609 36.9492V30.161H312.549V36.9492H313.609ZM322.319 30.161H321.176L318.753 35.71L316.315 30.161H315.173L318.174 36.9492H319.317L322.319 30.161ZM329.783 33.383C329.714 31.3589 328.282 29.9958 326.45 29.9958C324.578 29.9958 322.939 31.4002 322.939 33.5758C322.939 35.7375 324.578 37.1282 326.382 37.1282C327.91 37.1282 329.094 36.3847 329.631 34.9664L328.695 34.7461C328.213 35.8339 327.345 36.2057 326.382 36.2057C325.211 36.2057 324.055 35.2969 323.958 33.7685H329.783V33.383ZM326.45 30.9183C327.579 30.9183 328.53 31.6481 328.722 32.9837H323.999C324.206 31.6481 325.349 30.9183 326.45 30.9183Z" fill="#F29747"/>
<path d="M23.9084 78.0566C21.843 78.0566 20.2182 76.4043 20.2182 74.2838C20.2182 72.1496 21.843 70.511 23.9084 70.511C25.5056 70.511 26.7861 71.3647 27.2543 72.8518L28.3008 72.5489C27.7362 70.69 26.0288 69.4921 23.9084 69.4921C21.2234 69.4921 19.1167 71.5988 19.1167 74.2838C19.1167 76.9688 21.2234 79.0755 23.9084 79.0755C26.0288 79.0755 27.7362 77.8776 28.3008 75.9499L27.2543 75.702C26.7724 77.2166 25.5056 78.0566 23.9084 78.0566ZM36.4569 72.1083H35.3966V75.3716C35.3966 77.134 34.4603 78.0841 33.0421 78.0841C31.913 78.0841 31.1695 77.2442 31.1695 75.9774V72.1083H30.1093V76.1702C30.1093 77.8913 31.197 79.0617 32.8356 79.0617C33.9646 79.0617 34.8459 78.5936 35.3966 77.7812V78.8827H36.4569V72.1083ZM42.6534 72.0394C41.4004 72.0394 40.4778 72.7692 39.927 73.7743V72.1083H38.8668V78.8965H39.927V76.2803C39.927 74.449 40.8496 73.0859 42.6534 73.0859C42.7773 73.0859 42.9287 73.0859 43.0527 73.0996L43.1353 72.0945C42.9425 72.0394 42.8186 72.0394 42.6534 72.0394ZM48.3278 72.0394C47.0748 72.0394 46.1522 72.7692 45.6015 73.7743V72.1083H44.5412V78.8965H45.6015V76.2803C45.6015 74.449 46.524 73.0859 48.3278 73.0859C48.4517 73.0859 48.6032 73.0859 48.7271 73.0996L48.8097 72.0945C48.6169 72.0394 48.493 72.0394 48.3278 72.0394ZM56.2646 75.3303C56.1957 73.3062 54.7637 71.943 52.9324 71.943C51.0598 71.943 49.4213 73.3475 49.4213 75.523C49.4213 77.6848 51.0598 79.0755 52.8636 79.0755C54.3919 79.0755 55.5761 78.3319 56.1131 76.9137L55.1768 76.6934C54.6949 77.7812 53.8274 78.1529 52.8636 78.1529C51.6932 78.1529 50.5366 77.2442 50.4402 75.7158H56.2646V75.3303ZM52.9324 72.8656C54.0615 72.8656 55.0116 73.5953 55.2043 74.9309H50.4815C50.688 73.5953 51.8309 72.8656 52.9324 72.8656ZM61.676 71.943C60.5331 71.943 59.6657 72.4112 59.1149 73.2373V72.1083H58.0684V78.8965H59.1149V75.6332C59.1149 73.8707 60.0512 72.9069 61.4694 72.9069C62.5985 72.9069 63.3558 73.7606 63.3558 75.0273V78.8965H64.4023V74.8346C64.4023 73.1134 63.3145 71.943 61.676 71.943ZM70.3922 77.671C70.048 77.9189 69.6211 78.0841 69.2356 78.0841C68.4783 78.0841 67.9826 77.5884 67.9826 76.7072V72.9895H70.406V72.1083H67.9826V69.9465H66.9224V72.1083H65.4491V72.9895H66.9224V76.776C66.9224 78.2769 67.8174 79.0755 69.1668 79.0755C69.7175 79.0755 70.1857 78.924 70.7365 78.5385L70.3922 77.671ZM80.974 74.1599C81.7726 74.0497 82.5299 73.2649 82.5299 72.0945C82.5299 70.6487 81.5248 69.6711 79.7898 69.6711H75.5489V78.8965H79.9688C81.8277 78.8965 82.8328 77.85 82.8328 76.3905C82.8328 75.1237 82.0067 74.3251 80.974 74.2012V74.1599ZM76.6367 70.6074H79.6934C80.795 70.6074 81.4972 71.227 81.4972 72.1496C81.4972 73.1409 80.8088 73.8019 79.7761 73.8019H76.6367V70.6074ZM76.6367 77.9602V74.6831H79.8862C80.9602 74.6831 81.7313 75.3027 81.7313 76.2941C81.7313 77.2855 81.0291 77.9602 79.8724 77.9602H76.6367ZM91.1903 72.1083H90.1439V73.196C89.538 72.3974 88.5742 71.943 87.4451 71.943C85.6413 71.943 84.0579 73.3613 84.0579 75.5093C84.0579 77.6573 85.6413 79.0755 87.4451 79.0755C88.5742 79.0755 89.538 78.6211 90.1439 77.8225V78.8965H91.1903V72.1083ZM87.6103 78.1392C86.2059 78.1392 85.0768 77.1203 85.0768 75.5093C85.0768 73.8845 86.2059 72.8656 87.6103 72.8656C88.8909 72.8656 90.1439 73.8845 90.1439 75.5093C90.1439 77.1203 88.8909 78.1392 87.6103 78.1392ZM94.654 78.8965V68.9826H93.6076V78.8965H94.654ZM103.521 72.1083H102.474V73.196C101.868 72.3974 100.905 71.943 99.7755 71.943C97.9718 71.943 96.3883 73.3613 96.3883 75.5093C96.3883 77.6573 97.9718 79.0755 99.7755 79.0755C100.905 79.0755 101.868 78.6211 102.474 77.8225V78.8965H103.521V72.1083ZM99.9408 78.1392C98.5363 78.1392 97.4072 77.1203 97.4072 75.5093C97.4072 73.8845 98.5363 72.8656 99.9408 72.8656C101.221 72.8656 102.474 73.8845 102.474 75.5093C102.474 77.1203 101.221 78.1392 99.9408 78.1392ZM109.546 71.943C108.403 71.943 107.535 72.4112 106.984 73.2373V72.1083H105.938V78.8965H106.984V75.6332C106.984 73.8707 107.921 72.9069 109.339 72.9069C110.468 72.9069 111.225 73.7606 111.225 75.0273V78.8965H112.272V74.8346C112.272 73.1134 111.184 71.943 109.546 71.943ZM117.449 78.0979C116.059 78.0979 114.93 77.0927 114.93 75.5093C114.93 73.9533 116.059 72.9069 117.449 72.9069C118.455 72.9069 119.363 73.4576 119.666 74.5041L120.671 74.2012C120.258 72.8105 118.937 71.943 117.449 71.943C115.536 71.943 113.911 73.375 113.911 75.5093C113.911 77.671 115.536 79.0755 117.449 79.0755C118.95 79.0755 120.286 78.2218 120.658 76.8311L119.694 76.5695C119.363 77.5884 118.455 78.0979 117.449 78.0979ZM128.687 75.3303C128.619 73.3062 127.187 71.943 125.355 71.943C123.483 71.943 121.844 73.3475 121.844 75.523C121.844 77.6848 123.483 79.0755 125.286 79.0755C126.815 79.0755 127.999 78.3319 128.536 76.9137L127.6 76.6934C127.118 77.7812 126.25 78.1529 125.286 78.1529C124.116 78.1529 122.959 77.2442 122.863 75.7158H128.687V75.3303ZM125.355 72.8656C126.484 72.8656 127.434 73.5953 127.627 74.9309H122.904C123.111 73.5953 124.254 72.8656 125.355 72.8656Z" fill="#4A515C"/>
<path d="M30.8802 91.596H28.8974V100.574L21.4804 91.596H19.8097V103.896H21.7741V95.0658L29.2095 103.896H30.8802V91.596ZM40.1664 96.2041L40.2949 93.3768H45.9678V91.596H38.4774L38.2387 97.9665H42.2226C43.6546 97.9665 44.6093 98.7376 44.6093 100.059C44.6093 101.455 43.5995 102.373 42.1124 102.373C40.607 102.373 39.4688 101.436 39.4688 99.5454L37.5594 99.9126C37.5594 102.648 39.5789 104.154 42.0574 104.154C44.7378 104.154 46.5002 102.446 46.5002 100.023C46.5002 97.6361 44.8479 96.2041 42.3695 96.2041H40.1664ZM53.3919 91.3389C50.2892 91.3389 48.1963 93.9276 48.1963 97.7462C48.1963 101.565 50.2892 104.154 53.3919 104.154C56.4946 104.154 58.5875 101.565 58.5875 97.7462C58.5875 93.9276 56.4946 91.3389 53.3919 91.3389ZM53.3919 102.336C51.4458 102.336 50.1974 100.463 50.1974 97.7462C50.1974 95.0291 51.4458 93.1565 53.3919 93.1565C55.3379 93.1565 56.5863 95.0291 56.5863 97.7462C56.5863 100.463 55.3379 102.336 53.3919 102.336ZM60.5314 106.32L62.4591 101.491V101.436H60.2376L59.081 106.32H60.5314ZM68.9719 91.3389C65.8692 91.3389 63.7763 93.9276 63.7763 97.7462C63.7763 101.565 65.8692 104.154 68.9719 104.154C72.0746 104.154 74.1675 101.565 74.1675 97.7462C74.1675 93.9276 72.0746 91.3389 68.9719 91.3389ZM68.9719 102.336C67.0259 102.336 65.7774 100.463 65.7774 97.7462C65.7774 95.0291 67.0259 93.1565 68.9719 93.1565C70.918 93.1565 72.1664 95.0291 72.1664 97.7462C72.1664 100.463 70.918 102.336 68.9719 102.336ZM81.1993 91.3389C78.0966 91.3389 76.0037 93.9276 76.0037 97.7462C76.0037 101.565 78.0966 104.154 81.1993 104.154C84.3019 104.154 86.3949 101.565 86.3949 97.7462C86.3949 93.9276 84.3019 91.3389 81.1993 91.3389ZM81.1993 102.336C79.2532 102.336 78.0048 100.463 78.0048 97.7462C78.0048 95.0291 79.2532 93.1565 81.1993 93.1565C83.1453 93.1565 84.3937 95.0291 84.3937 97.7462C84.3937 100.463 83.1453 102.336 81.1993 102.336ZM93.4266 91.3389C90.324 91.3389 88.2311 93.9276 88.2311 97.7462C88.2311 101.565 90.324 104.154 93.4266 104.154C96.5293 104.154 98.6222 101.565 98.6222 97.7462C98.6222 93.9276 96.5293 91.3389 93.4266 91.3389ZM93.4266 102.336C91.4806 102.336 90.2322 100.463 90.2322 97.7462C90.2322 95.0291 91.4806 93.1565 93.4266 93.1565C95.3727 93.1565 96.6211 95.0291 96.6211 97.7462C96.6211 100.463 95.3727 102.336 93.4266 102.336ZM100.566 106.32L102.494 101.491V101.436H100.272L99.1158 106.32H100.566ZM109.007 91.3389C105.904 91.3389 103.811 93.9276 103.811 97.7462C103.811 101.565 105.904 104.154 109.007 104.154C112.109 104.154 114.202 101.565 114.202 97.7462C114.202 93.9276 112.109 91.3389 109.007 91.3389ZM109.007 102.336C107.061 102.336 105.812 100.463 105.812 97.7462C105.812 95.0291 107.061 93.1565 109.007 93.1565C110.953 93.1565 112.201 95.0291 112.201 97.7462C112.201 100.463 110.953 102.336 109.007 102.336ZM121.234 91.3389C118.131 91.3389 116.038 93.9276 116.038 97.7462C116.038 101.565 118.131 104.154 121.234 104.154C124.337 104.154 126.43 101.565 126.43 97.7462C126.43 93.9276 124.337 91.3389 121.234 91.3389ZM121.234 102.336C119.288 102.336 118.04 100.463 118.04 97.7462C118.04 95.0291 119.288 93.1565 121.234 93.1565C123.18 93.1565 124.428 95.0291 124.428 97.7462C124.428 100.463 123.18 102.336 121.234 102.336ZM133.461 91.3389C130.359 91.3389 128.266 93.9276 128.266 97.7462C128.266 101.565 130.359 104.154 133.461 104.154C136.564 104.154 138.657 101.565 138.657 97.7462C138.657 93.9276 136.564 91.3389 133.461 91.3389ZM133.461 102.336C131.515 102.336 130.267 100.463 130.267 97.7462C130.267 95.0291 131.515 93.1565 133.461 93.1565C135.407 93.1565 136.656 95.0291 136.656 97.7462C136.656 100.463 135.407 102.336 133.461 102.336ZM141.613 101.638C140.915 101.638 140.401 102.171 140.401 102.795C140.401 103.456 140.915 103.97 141.613 103.97C142.311 103.97 142.806 103.456 142.806 102.795C142.806 102.171 142.311 101.638 141.613 101.638ZM149.418 91.3389C146.315 91.3389 144.222 93.9276 144.222 97.7462C144.222 101.565 146.315 104.154 149.418 104.154C152.521 104.154 154.614 101.565 154.614 97.7462C154.614 93.9276 152.521 91.3389 149.418 91.3389ZM149.418 102.336C147.472 102.336 146.223 100.463 146.223 97.7462C146.223 95.0291 147.472 93.1565 149.418 93.1565C151.364 93.1565 152.612 95.0291 152.612 97.7462C152.612 100.463 151.364 102.336 149.418 102.336ZM161.645 91.3389C158.543 91.3389 156.45 93.9276 156.45 97.7462C156.45 101.565 158.543 104.154 161.645 104.154C164.748 104.154 166.841 101.565 166.841 97.7462C166.841 93.9276 164.748 91.3389 161.645 91.3389ZM161.645 102.336C159.699 102.336 158.451 100.463 158.451 97.7462C158.451 95.0291 159.699 93.1565 161.645 93.1565C163.591 93.1565 164.84 95.0291 164.84 97.7462C164.84 100.463 163.591 102.336 161.645 102.336Z" fill="#000A1A"/>
<path d="M20.6588 144.256V135.03H19.5711V144.256H20.6588ZM26.6747 137.302C25.5319 137.302 24.6644 137.771 24.1136 138.597V137.468H23.0672V144.256H24.1136V140.993C24.1136 139.23 25.0499 138.266 26.4682 138.266C27.5972 138.266 28.3545 139.12 28.3545 140.387V144.256H29.401V140.194C29.401 138.473 28.3132 137.302 26.6747 137.302ZM35.3909 143.03C35.0467 143.278 34.6199 143.443 34.2343 143.443C33.477 143.443 32.9813 142.948 32.9813 142.067V138.349H35.4047V137.468H32.9813V135.306H31.9211V137.468H30.4478V138.349H31.9211V142.135C31.9211 143.636 32.8161 144.435 34.1655 144.435C34.7163 144.435 35.1844 144.283 35.7352 143.898L35.3909 143.03ZM43.1004 140.69C43.0316 138.666 41.5996 137.302 39.7683 137.302C37.8957 137.302 36.2571 138.707 36.2571 140.882C36.2571 143.044 37.8957 144.435 39.6994 144.435C41.2278 144.435 42.412 143.691 42.949 142.273L42.0127 142.053C41.5307 143.141 40.6633 143.512 39.6994 143.512C38.529 143.512 37.3724 142.604 37.276 141.075H43.1004V140.69ZM39.7683 138.225C40.8973 138.225 41.8474 138.955 42.0402 140.29H37.3173C37.5239 138.955 38.6667 138.225 39.7683 138.225ZM48.6908 137.399C47.4378 137.399 46.5153 138.129 45.9645 139.134V137.468H44.9043V144.256H45.9645V141.64C45.9645 139.808 46.8871 138.445 48.6908 138.445C48.8148 138.445 48.9662 138.445 49.0901 138.459L49.1728 137.454C48.98 137.399 48.8561 137.399 48.6908 137.399ZM56.6276 140.69C56.5588 138.666 55.1268 137.302 53.2955 137.302C51.4228 137.302 49.7843 138.707 49.7843 140.882C49.7843 143.044 51.4228 144.435 53.2266 144.435C54.755 144.435 55.9392 143.691 56.4762 142.273L55.5398 142.053C55.0579 143.141 54.1905 143.512 53.2266 143.512C52.0562 143.512 50.8996 142.604 50.8032 141.075H56.6276V140.69ZM53.2955 138.225C54.4245 138.225 55.3746 138.955 55.5674 140.29H50.8445C51.0511 138.955 52.1939 138.225 53.2955 138.225ZM57.8532 142.425C58.0184 143.746 59.2576 144.435 60.8136 144.435C62.4383 144.435 63.5536 143.678 63.5536 142.342C63.5536 141.309 62.7963 140.786 61.805 140.566L60.1664 140.208C59.5055 140.056 59.1337 139.808 59.1337 139.271C59.1337 138.624 59.6707 138.156 60.6346 138.156C61.6397 138.156 62.2869 138.666 62.4246 139.409L63.4297 139.189C63.1819 138.087 62.1905 137.302 60.6621 137.302C59.1062 137.302 58.0873 138.129 58.0873 139.354C58.0873 140.29 58.7206 140.855 59.8497 141.089L61.4056 141.433C62.0941 141.585 62.521 141.846 62.521 142.411C62.521 143.113 61.8738 143.567 60.8962 143.567C59.8222 143.567 58.996 143.085 58.8996 142.19L57.8532 142.425ZM69.1283 143.03C68.784 143.278 68.3572 143.443 67.9716 143.443C67.2143 143.443 66.7186 142.948 66.7186 142.067V138.349H69.142V137.468H66.7186V135.306H65.6584V137.468H64.1851V138.349H65.6584V142.135C65.6584 143.636 66.5534 144.435 67.9028 144.435C68.4536 144.435 68.9217 144.283 69.4725 143.898L69.1283 143.03ZM81.9544 144.256L78.3882 140.304H78.5534C80.3572 140.304 81.5689 139.244 81.5689 137.66C81.5689 136.077 80.3572 135.03 78.5534 135.03H74.2849V144.256H75.3727V140.304H77.0663L80.5912 144.256H81.9544ZM75.3727 139.313V136.008H78.5534C79.71 136.008 80.4811 136.669 80.4811 137.66C80.4811 138.652 79.71 139.313 78.5534 139.313H75.3727ZM89.7784 137.468H88.732V138.555C88.1261 137.757 87.1623 137.302 86.0332 137.302C84.2294 137.302 82.646 138.721 82.646 140.869C82.646 143.017 84.2294 144.435 86.0332 144.435C87.1623 144.435 88.1261 143.98 88.732 143.182V144.256H89.7784V137.468ZM86.1984 143.499C84.794 143.499 83.6649 142.48 83.6649 140.869C83.6649 139.244 84.794 138.225 86.1984 138.225C87.479 138.225 88.732 139.244 88.732 140.869C88.732 142.48 87.479 143.499 86.1984 143.499ZM95.9272 143.03C95.5829 143.278 95.1561 143.443 94.7705 143.443C94.0132 143.443 93.5175 142.948 93.5175 142.067V138.349H95.9409V137.468H93.5175V135.306H92.4573V137.468H90.984V138.349H92.4573V142.135C92.4573 143.636 93.3523 144.435 94.7017 144.435C95.2525 144.435 95.7206 144.283 96.2714 143.898L95.9272 143.03ZM103.637 140.69C103.568 138.666 102.136 137.302 100.304 137.302C98.4319 137.302 96.7933 138.707 96.7933 140.882C96.7933 143.044 98.4319 144.435 100.236 144.435C101.764 144.435 102.948 143.691 103.485 142.273L102.549 142.053C102.067 143.141 101.199 143.512 100.236 143.512C99.0652 143.512 97.9086 142.604 97.8122 141.075H103.637V140.69ZM100.304 138.225C101.434 138.225 102.384 138.955 102.576 140.29H97.8536C98.0601 138.955 99.2029 138.225 100.304 138.225Z" fill="#4A515C"/>
<path d="M22.6646 154.493H21.8774L18.5521 156.453V157.625L21.4276 156.019V165.256H22.6646V154.493ZM31.8126 164.099H26.5917L29.178 161.69C30.8326 160.131 31.7001 159.168 31.7001 157.577C31.7001 155.617 30.2704 154.284 28.1499 154.284C26.0295 154.284 24.5837 155.633 24.5034 157.722L25.6761 157.963C25.7403 156.324 26.672 155.393 28.1339 155.393C29.5315 155.393 30.4792 156.276 30.4792 157.593C30.4792 158.959 29.6439 159.73 28.407 160.854L24.5676 164.437V165.256H31.8126V164.099ZM35.7908 154.284C34.3932 154.284 33.1402 155.264 33.1402 156.854C33.1402 158.38 34.3932 159.392 35.7908 159.392C37.1884 159.392 38.4253 158.38 38.4253 156.854C38.4253 155.264 37.1884 154.284 35.7908 154.284ZM34.5699 165.256H35.4535L43.5016 154.493H42.6181L34.5699 165.256ZM35.7908 155.152C36.6422 155.152 37.4775 155.794 37.4775 156.838C37.4775 157.882 36.6422 158.525 35.7908 158.525C34.9233 158.525 34.0719 157.882 34.0719 156.838C34.0719 155.794 34.9233 155.152 35.7908 155.152ZM42.5056 160.34C41.108 160.34 39.855 161.32 39.855 162.911C39.855 164.437 41.108 165.465 42.5056 165.465C43.9032 165.465 45.1401 164.437 45.1401 162.911C45.1401 161.32 43.9032 160.34 42.5056 160.34ZM42.5056 161.208C43.357 161.208 44.1923 161.85 44.1923 162.894C44.1923 163.939 43.357 164.581 42.5056 164.581C41.6381 164.581 40.7867 163.939 40.7867 162.894C40.7867 161.85 41.6381 161.208 42.5056 161.208ZM51.3992 154.493V165.256H52.6683V161.176H56.0899C58.3871 161.176 59.8329 159.81 59.8329 157.834C59.8329 155.858 58.3871 154.493 56.0899 154.493H51.3992ZM52.6683 160.035V155.633H56.0899C57.6321 155.633 58.5799 156.549 58.5799 157.834C58.5799 159.119 57.6321 160.035 56.0899 160.035H52.6683ZM61.0367 163.682C60.5548 163.682 60.2013 164.067 60.2013 164.501C60.2013 164.951 60.5548 165.304 61.0367 165.304C61.5186 165.304 61.872 164.951 61.872 164.501C61.872 164.067 61.5186 163.682 61.0367 163.682ZM73.6486 165.256L68.8294 154.493H67.6567L62.8375 165.256H64.2029L65.4077 162.525H71.0784L72.2832 165.256H73.6486ZM70.5804 161.384H65.9057L68.2511 156.067L70.5804 161.384Z" fill="#000A1A"/>
<rect x="0.5" y="0.5" width="357" height="187.615" rx="7.5" stroke="#EBEBED"/>
</svg>
